<?xml version="1.0" standalone="no"?>
<!DOCTYPE svg PUBLIC "-//W3C//DTD SVG 1.1//EN" "http://www.w3.org/Graphics/SVG/1.1/DTD/svg11.dtd" >
<svg xmlns="http://www.w3.org/2000/svg">
<metadata>
Created by FontPrep 20130207 at Thu Aug 21 13:26:55 2014
 By Ivo Gregurec
Copyright (c) 2014 by Fontfabric LLC. All rights reserved.
</metadata>
<defs>
<font id="1fd684ab40f37a5cb194fab3613adc14" horiz-adv-x='1024' >
  <font-face 
    font-family="GloberRegular"
    font-weight="400"
    font-stretch="normal"
    units-per-em="2048"
    panose-1="0 0 0 0 0 0 0 0 0 0"
    ascent="1536"
    descent="-512"
    x-height="1077"
    cap-height="1475"
    bbox="-326 -535 2113 2157.45"
    underline-thickness="102"
    underline-position="-102"
    unicode-range="U+0020-FB02"
  />
<missing-glyph horiz-adv-x="1265" 
d="M657 293q-23 8 -67 8l-66 -8v-119q20 -8 66 -8l67 8v119zM938 1024q0 127 -84 200t-233 72q-69 0 -133 -13t-93 -28l-28 -14q-6 -55 36 -86q76 41 203 41q209 0 209 -178q0 -124 -95 -209q-40 -35 -81 -73q-98 -91 -96 -279q38 -28 94 0q0 144 106 236l90 76
q105 91 105 255zM1178 0h-1102v1475h1102v-1475z" />
    <glyph glyph-name="fi" unicode="fi" horiz-adv-x="1161" 
d="M294 0q-41 0 -81 10v951h-131q-8 23 -8 59l8 57h131v123q0 164 89 250t288 86q98 0 195 -15t145 -30l49 -16q0 -68 -39 -109q-145 49 -308 49t-217 -49t-55 -156v-133h551q39 0 80 -8v-1059q-25 -10 -71 -10t-76 10v951h-484v-951q-25 -10 -66 -10z" />
    <glyph glyph-name="fl" unicode="fl" horiz-adv-x="1165" 
d="M294 0q-41 0 -81 10v951h-131q-8 57 -8 75t8 41h131v123q0 336 365 336q98 0 201 -17t159 -36l53 -17v-1456q-25 -10 -71 -10t-76 10v1372q-131 33 -255 33t-176 -50t-53 -155v-133h230q8 -25 8 -57t-8 -59h-230v-951q-25 -10 -66 -10z" />
    <glyph glyph-name=".notdef" horiz-adv-x="1265" 
d="M657 293q-23 8 -67 8l-66 -8v-119q20 -8 66 -8l67 8v119zM938 1024q0 127 -84 200t-233 72q-69 0 -133 -13t-93 -28l-28 -14q-6 -55 36 -86q76 41 203 41q209 0 209 -178q0 -124 -95 -209q-40 -35 -81 -73q-98 -91 -96 -279q38 -28 94 0q0 144 106 236l90 76
q105 91 105 255zM1178 0h-1102v1475h1102v-1475z" />
    <glyph glyph-name=".null" horiz-adv-x="0" 
 />
    <glyph glyph-name="nonmarkingreturn" horiz-adv-x="681" 
 />
    <glyph glyph-name="space" unicode=" " horiz-adv-x="485" 
 />
    <glyph glyph-name="exclam" unicode="!" horiz-adv-x="528" 
d="M256 170q48 0 88 -10v-150q-25 -10 -70 -10t-90 10v150q24 10 72 10zM319 360q-18 -12 -49 -12t-55 8l-6 4l-25 1104q16 10 72 10t88 -10z" />
    <glyph glyph-name="quotedbl" unicode="&#x22;" horiz-adv-x="679" 
d="M426 1061l-27 403q20 10 74 11l74 -11l-27 -403q-16 -8 -47 -8zM133 1464q23 10 66 10t82 -10l-27 -403q-14 -8 -47 -8l-47 8z" />
    <glyph glyph-name="numbersign" unicode="#" horiz-adv-x="1345" 
d="M582 864l-131 -471h315l131 471h-315zM1078 1276q36 0 65 -12l-80 -279h184q10 -27 10 -59t-10 -62h-217l-133 -471h178q10 -20 10 -55t-10 -66h-213l-71 -260q-43 -12 -63 -12t-71 12l74 260h-315l-74 -260q-44 -12 -66 -12t-65 12l72 260h-191q-10 20 -10 60t10 61h225
l134 471h-187q-10 23 -10 62t10 59h219l80 279q31 12 68 12t63 -12l-78 -279h316l80 279q30 12 66 12z" />
    <glyph glyph-name="dollar" unicode="$" horiz-adv-x="1150" 
d="M614 1247q-346 0 -346 -231q0 -82 58 -135t143 -76q230 -62 373 -119q86 -35 143 -114t57 -195q0 -164 -108 -260t-309 -111l16 -260q-20 -10 -68 -10l-69 10l14 258q-106 2 -206 20t-144 37l-47 17q0 96 35 112q186 -55 379 -55q352 0 352 234q1 88 -57 145t-143 80
q-231 62 -371 113q-85 31 -142 107t-57 187q0 158 103 253t298 110l-14 242q25 10 67 10l70 -10l-16 -238q184 -4 301 -37l39 -12q0 -86 -43 -113q-131 41 -308 41z" />
    <glyph glyph-name="percent" unicode="%" horiz-adv-x="1542" 
d="M1176 78q76 0 114 56t37 200t-39 200q-38 58 -113 58t-114 -57t-39 -201t39 -200t115 -56zM1176 -20q-272 0 -273 354q1 354 273 354t272 -354t-272 -354zM215 1062q0 -144 38 -200t115 -57q76 0 114 56q38 55 38 199t-38 202t-115 57q-76 0 -114 -57q-38 -56 -38 -200z
M369 707q-272 0 -273 354q0 354 272 354t273 -354q0 -354 -272 -354zM1237 1427l-793 -1437q-23 -10 -65 -10l-64 10l795 1437q31 17 72 12t55 -12z" />
    <glyph glyph-name="ampersand" unicode="&#x26;" horiz-adv-x="1306" 
d="M508 102q162 0 309 115q-231 184 -368 434q-207 -123 -207 -303q0 -114 72 -180t194 -66zM811 1134q0 173 -168 173q-82 1 -132 -59t-50 -180t59 -257q145 80 218 157t73 166zM644 1413q150 0 229 -71t79 -179q0 -145 -96 -243t-289 -205q119 -217 346 -393
q82 104 129 262q80 6 119 -49q-45 -143 -157 -281q115 -78 247 -133q6 -82 -63 -123q-154 63 -283 152q-31 -33 -75 -65t-141 -69t-204 -36q-165 0 -277 88t-112 262q0 80 32 152t104 144q72 71 169 122q-73 166 -73 322t84 250q82 93 232 93z" />
    <glyph glyph-name="quotesingle" unicode="'" horiz-adv-x="413" 
d="M160 1061l-27 403q20 10 74 11l74 -11l-27 -403q-14 -8 -47 -8z" />
    <glyph glyph-name="parenleft" unicode="(" horiz-adv-x="593" 
d="M266 655q0 -161 27 -317t84 -322t121 -262l26 -43q-19 -42 -79 -57q-15 -4 -23 -4h-8q-40 61 -97 176q-57 116 -96 227t-70 276q-32 165 -32 327q0 402 190 817q43 94 74 141l31 47q47 4 90 -36q11 -10 20 -26q-28 -39 -81 -150q-54 -111 -88 -213q-33 -102 -61 -262
q-28 -159 -28 -319z" />
    <glyph glyph-name="parenright" unicode=")" horiz-adv-x="593" 
d="M330 655q0 160 -27 317t-85 324t-120 260l-26 43q21 43 79 58q15 4 23 4h8q31 -42 92 -166q60 -124 99 -235t71 -277t31 -328q0 -163 -30 -325t-92 -335t-140 -298l-31 -47q-66 -5 -110 61q28 40 82 151q53 112 87 214q33 102 61 260t28 319z" />
    <glyph glyph-name="asterisk" unicode="*" horiz-adv-x="704" 
d="M309 1272v172q41 16 86 0v-172l166 55q25 -27 25 -82l-166 -53l106 -145q-37 -37 -71 -50l-105 142l-100 -142q-41 12 -72 47l103 146l-164 55q0 53 26 82z" />
    <glyph glyph-name="plus" unicode="+" horiz-adv-x="958" 
d="M422 537h-297q-10 20 -10 57l10 57h297v299q20 8 57 8l58 -8v-299h299q8 -20 8 -57l-8 -57h-299v-297q-20 -10 -58 -11l-57 11v297z" />
    <glyph glyph-name="comma" unicode="," horiz-adv-x="460" 
d="M313 57q1 -83 -31 -155t-65 -103l-31 -28l-57 39q63 68 72 190l-54 10v150q29 10 82 10l84 -10v-103z" />
    <glyph glyph-name="hyphen" unicode="-" horiz-adv-x="729" 
d="M565 537h-401q-10 20 -10 57l10 57h401q10 -20 10 -57z" />
    <glyph glyph-name="period" unicode="." horiz-adv-x="462" 
d="M239 0q-47 0 -92 10v150q27 10 84 10l84 -10v-150q-29 -10 -76 -10z" />
    <glyph glyph-name="slash" unicode="/" horiz-adv-x="931" 
d="M735 1524q27 12 77 12t73 -12l-688 -1608q-27 -12 -71 -12t-79 12z" />
    <glyph glyph-name="zero" unicode="0" horiz-adv-x="1267" 
d="M633 1286q-174 0 -257 -135t-83 -453t83 -455t257 -137t256 136t82 456t-82 454t-256 134zM1133 696q0 -372 -127 -544t-374 -172t-372 172t-125 544t125 544q125 173 372 173t374 -172t127 -545z" />
    <glyph glyph-name="one" unicode="1" horiz-adv-x="825" 
d="M546 0q-52 0 -77 12v897q0 166 10 275q-137 -164 -373 -223q-50 50 -34 124q256 68 403 295q23 12 73 12t73 -12v-1368q-23 -12 -75 -12z" />
    <glyph glyph-name="two" unicode="2" horiz-adv-x="1085" 
d="M944 70q0 -40 -12 -70h-811q-12 66 -12 159t23 147q22 56 36 86t45 63t53 58q29 32 242 168t251 196q50 85 50 181q0 95 -69 163q-69 67 -223 67t-271 -43l-41 -14q-51 39 -43 108q154 74 360 74t325 -88q118 -88 118 -274q0 -130 -65 -233q-63 -96 -267 -215
q-205 -119 -258 -164t-71 -73q-52 -79 -52 -169l4 -62h676q12 -25 12 -65z" />
    <glyph glyph-name="three" unicode="3" horiz-adv-x="1062" 
d="M934 362q0 -174 -116 -278t-369 -104q-97 0 -183 17t-125 36l-39 16q-4 68 39 111q139 -49 297 -49q344 0 344 272q0 285 -331 285h-127q-27 61 0 123h127q291 0 290 251q0 246 -295 246q-150 0 -241 -37l-35 -12q-55 37 -49 107q135 68 341 68t318 -94q112 -93 111 -257
q0 -256 -203 -332q246 -78 246 -369z" />
    <glyph glyph-name="four" unicode="4" horiz-adv-x="1179" 
d="M750 483v697l-512 -697h512zM893 483h197q12 -20 12 -60t-12 -61h-197v-350q-27 -12 -73 -12t-70 12v350h-668q-12 18 -12 54t8 61l665 903q25 12 75 12t75 -12v-897z" />
    <glyph glyph-name="five" unicode="5" horiz-adv-x="1064" 
d="M332 1260v-463q51 10 141 10q473 0 473 -414t-514 -413q-100 0 -182 15t-115 30l-31 16q-6 68 39 111q115 -43 288 -43q358 0 360 282q0 145 -83 217t-286 72q-96 0 -161 -8q-66 -8 -75 -8v729h701q23 -70 0 -133h-555z" />
    <glyph glyph-name="six" unicode="6" horiz-adv-x="1128" 
d="M870 418q0 158 -76 236t-210 77q-133 0 -295 -88q-6 -57 -6 -125q-1 -213 79 -316q80 -104 214 -104t215 81q79 81 79 239zM606 852q188 0 304 -106t116 -325q0 -218 -121 -330q-121 -111 -327 -111t-327 135q-120 135 -120 411q0 416 197 630t553 237q27 -57 0 -121
q-240 -27 -384 -144t-190 -350q158 74 299 74z" />
    <glyph glyph-name="seven" unicode="7" horiz-adv-x="1011" 
d="M350 0q-12 0 -78 8q0 197 47 359q47 163 118 271t143 202q179 234 202 417h-698q-12 25 -12 69t10 58l2 9h840q10 -37 9 -111q-3 -210 -206 -479q-140 -188 -197 -301q-114 -226 -112 -494q-56 -8 -68 -8z" />
    <glyph glyph-name="eight" unicode="8" horiz-adv-x="1191" 
d="M592 100q154 0 238 67t85 167q0 100 -48 150q-28 30 -60 60t-93 57q-62 27 -126 53t-82 34q-233 -139 -234 -344q0 -112 83 -178t237 -66zM593 1296q-128 0 -202 -57t-74 -149t64 -161q23 -26 79 -58t132 -63t90 -38q186 127 186 301q0 106 -73 166q-74 59 -202 59z
M594 -20q-223 0 -345 96t-122 260q0 248 276 403q-231 125 -231 336q0 156 113 247t307 91t304 -88q112 -88 112 -242q0 -225 -222 -360q133 -66 207 -151t74 -224q0 -172 -125 -270t-348 -98z" />
    <glyph glyph-name="nine" unicode="9" horiz-adv-x="1128" 
d="M844 874q0 212 -80 316t-214 104t-214 -80t-80 -239q0 -158 77 -236q77 -77 215 -77t290 88q6 59 6 124zM102 972q0 218 121 330t328 112t327 -136q120 -135 119 -412q1 -418 -197 -630t-554 -236q-25 63 0 121q240 25 382 141t189 352q-152 -74 -297 -73
q-188 0 -303 106q-115 107 -115 325z" />
    <glyph glyph-name="colon" unicode=":" horiz-adv-x="475" 
d="M244 0q-50 0 -90 10v150q27 10 84 10l84 -10v-150q-28 -10 -78 -10zM244 809q-50 0 -90 10v150q27 10 84 10l84 -10v-150q-28 -10 -78 -10z" />
    <glyph glyph-name="semicolon" unicode=";" horiz-adv-x="497" 
d="M336 57q0 -83 -32 -155t-62 -103l-33 -28l-57 39q63 68 71 190l-55 10v150q27 10 84 10l84 -10v-103zM258 809q-50 0 -90 10v150q27 10 84 10l84 -10v-150q-28 -10 -78 -10z" />
    <glyph glyph-name="less" unicode="&#x3c;" horiz-adv-x="940" 
d="M774 229l-655 297q-10 29 -10 68l10 65l655 297q10 -16 10 -57l-10 -61l-534 -246l534 -242q10 -20 10 -61z" />
    <glyph glyph-name="equal" unicode="=" horiz-adv-x="1048" 
d="M879 356h-709q-16 63 0 117h709q16 -58 0 -117zM879 715h-709q-16 61 0 114h709q16 -55 0 -114z" />
    <glyph glyph-name="greater" unicode="&#x3e;" horiz-adv-x="937" 
d="M166 838q-10 20 -10 62t8 50l2 6l655 -297q10 -25 10 -65l-10 -68l-655 -297q-10 20 -10 60l10 61l534 242z" />
    <glyph glyph-name="question" unicode="?" horiz-adv-x="886" 
d="M366 0q-47 0 -92 10v150q27 10 84 10l84 -10v-150q-29 -10 -76 -10zM639 1065q0 221 -260 221q-142 0 -225 -37l-29 -12q-53 39 -47 109q123 68 314 68t296 -91q105 -90 105 -250q0 -205 -134 -320q-55 -49 -110 -95q-133 -112 -133 -293q-16 -17 -56 -17t-61 17
q0 106 26 186q27 80 63 123q49 58 163 163q88 81 88 228z" />
    <glyph glyph-name="at" unicode="@" horiz-adv-x="1871" 
d="M707 569q0 -297 225 -297q90 0 144 58t59 139v199q-3 82 -57 141t-153 59t-159 -63q-59 -64 -59 -236zM1262 451q0 -174 129 -175q99 0 163 86t64 259q0 307 -177 489t-489 182t-503 -194q-190 -194 -191 -527q0 -178 55 -316t151 -221q192 -165 481 -165q288 0 548 164
q47 -20 51 -78q-272 -193 -613 -193t-566 198q-111 97 -176 255t-64 356q0 375 231 598t598 223t577 -210q210 -211 210 -561q0 -211 -93 -329q-94 -118 -270 -118t-223 137q-76 -137 -264 -137q-324 0 -324 396t324 397q164 0 244 -107v98q20 12 64 12t63 -12v-507z" />
    <glyph glyph-name="A" unicode="A" horiz-adv-x="1327" 
d="M662 1298h-7q-12 -61 -41 -141l-237 -627h563l-238 627zM1290 12q-27 -12 -73 -12t-78 8l-6 4l-148 391h-653l-150 -391q-25 -12 -73 -12t-72 12l543 1450q84 31 168 0z" />
    <glyph glyph-name="B" unicode="B" horiz-adv-x="1284" 
d="M348 123h350q162 0 234 72q72 73 72 213t-74 209t-232 69h-350v-563zM348 805h336q274 0 274 273t-276 274h-334v-547zM197 1475h520q201 0 299 -111t98 -285q0 -219 -176 -325q108 -49 166 -133q57 -84 57 -215q-1 -188 -111 -297t-325 -109h-528v1475z" />
    <glyph glyph-name="C" unicode="C" horiz-adv-x="1146" 
d="M133 737q0 758 574 758q98 0 184 -16t123 -33l37 -19q2 -66 -47 -114q-117 51 -281 51q-209 0 -320 -141t-111 -487t112 -484q110 -137 319 -137q166 0 268 37l35 14q43 -43 47 -117q-127 -70 -366 -69q-574 -1 -574 757z" />
    <glyph glyph-name="D" unicode="D" horiz-adv-x="1353" 
d="M348 129h264q150 0 243 48t149 185q55 137 55 347t-30 331q-55 221 -227 279q-77 27 -190 27h-264v-1217zM197 1475h428q301 0 448 -168q147 -167 147 -569t-146 -570q-148 -168 -449 -168h-428v1475z" />
    <glyph glyph-name="E" unicode="E" 
d="M197 1475h813q12 -29 12 -65t-12 -62h-662v-539h559q27 -61 0 -125h-559v-557h682q12 -29 12 -63t-12 -64h-833v1475z" />
    <glyph glyph-name="F" unicode="F" horiz-adv-x="1089" 
d="M272 0q-51 0 -75 12v1463h804q22 -79 0 -127h-653v-560h572q12 -26 12 -62t-12 -64h-572v-650q-25 -12 -76 -12z" />
    <glyph glyph-name="G" unicode="G" horiz-adv-x="1277" 
d="M639 737q0 42 12 60h482v-750q-152 -68 -402 -67q-291 0 -445 191t-155 565q0 374 154 567t446 192q105 0 201 -16t137 -33l41 -19q-4 -72 -47 -112q-141 49 -279 49t-218 -31q-183 -71 -241 -294q-34 -126 -34 -304q0 -344 121 -483t338 -139q125 0 237 26v531h-336
q-12 25 -12 67z" />
    <glyph glyph-name="H" unicode="H" horiz-adv-x="1388" 
d="M348 823h692v639q26 12 76 12t76 -12v-1450q-25 -12 -78 -12t-74 12v676h-692v-676q-27 -12 -80 -12t-71 12v1450q27 12 76 12t75 -12v-639z" />
    <glyph glyph-name="I" unicode="I" horiz-adv-x="544" 
d="M271 0q-50 0 -74 12v1450q25 12 75 12t76 -12v-1450q-27 -12 -77 -12z" />
    <glyph glyph-name="J" unicode="J" horiz-adv-x="884" 
d="M698 360q0 -381 -360 -380q-141 0 -252 45l-37 16q-4 72 41 117q104 -43 221 -43q236 -1 236 241v1106q20 12 76 12t75 -12v-1102z" />
    <glyph glyph-name="K" unicode="K" horiz-adv-x="1255" 
d="M348 829h209l442 633q33 12 80 12t80 -12l-475 -680l535 -770q-29 -12 -87 -12t-92 12l-481 690h-211v-690q-23 -12 -75 -12t-76 12v1450q27 12 76 12t75 -12v-633z" />
    <glyph glyph-name="L" unicode="L" horiz-adv-x="1048" 
d="M348 133h641q10 -37 10 -65t-10 -68h-792v1462q27 12 76 12t75 -12v-1329z" />
    <glyph glyph-name="M" unicode="M" horiz-adv-x="1714" 
d="M1442 0q-50 0 -74 12v869q0 319 10 409h-6q-27 -86 -139 -301l-342 -606q-20 -8 -51 -8l-47 8q-102 185 -356 655q-89 164 -113 252h-7q16 -80 17 -399v-879q-23 -12 -72 -12t-67 12v1450q35 12 92 13l92 -13l356 -651q84 -162 107 -231h8q12 47 108 221t363 661
q107 28 199 0v-1450q-28 -12 -78 -12z" />
    <glyph glyph-name="N" unicode="N" horiz-adv-x="1425" 
d="M1229 12q-27 -12 -87 -12t-91 12l-607 1043q-61 101 -100 196l-10 29h-6q10 -111 10 -311v-957q-23 -12 -70 -12t-71 12v1450q63 23 139 9q31 -4 41 -9l600 -1030q62 -106 104 -205l13 -32h6q-12 131 -13 305v962q23 12 73 12t69 -12v-1450z" />
    <glyph glyph-name="O" unicode="O" horiz-adv-x="1388" 
d="M1098 737q0 339 -104 485t-300 146q-197 0 -300 -146t-103 -484t103 -485t300 -147q196 0 300 146t104 485zM131 737q1 385 147 571t416 187q270 0 416 -185t147 -573q0 -758 -563 -757q-563 -1 -563 757z" />
    <glyph glyph-name="P" unicode="P" horiz-adv-x="1232" 
d="M348 729h352q133 0 206 81t73 226q0 146 -73 228t-206 82h-352v-617zM272 0q-51 0 -75 12v1463h518q195 0 309 -120t115 -318q0 -199 -115 -319t-309 -120h-367v-586q-25 -12 -76 -12z" />
    <glyph glyph-name="Q" unicode="Q" horiz-adv-x="1388" 
d="M1098 737q0 339 -104 485t-300 146q-197 0 -300 -146t-103 -484t103 -485t300 -147q196 0 300 146t104 485zM131 737q1 385 147 571t416 187q270 0 416 -185t147 -573q0 -455 -206 -637q115 -106 268 -137q-10 -92 -86 -129q-174 53 -285 201q-104 -55 -254 -55
q-563 -1 -563 757z" />
    <glyph glyph-name="R" unicode="R" horiz-adv-x="1271" 
d="M348 1346v-582h342q131 0 205 77t74 214t-74 214t-205 77h-342zM272 0q-51 0 -75 12v1463h508q195 0 309 -115t114 -288q0 -172 -78 -280t-216 -141l354 -639q-32 -12 -80 -12t-88 8l-8 4l-344 623h-320v-623q-25 -12 -76 -12z" />
    <glyph glyph-name="S" unicode="S" horiz-adv-x="1155" 
d="M123 1087q0 188 125 298t360 110q104 0 202 -14t140 -27l45 -14q0 -72 -41 -119q-147 43 -324 43t-266 -70q-90 -70 -90 -206t145 -200q68 -31 139 -52t74 -22t29 -5t111 -42q86 -38 151 -84q128 -91 128 -289t-130 -306t-370 -108q-115 0 -223 20t-156 41l-49 20
q0 70 39 121q186 -63 370 -63q364 0 363 272q0 121 -77 178t-226 101q-156 39 -252 88t-130 87t-60 100q-27 62 -27 142z" />
    <glyph glyph-name="T" unicode="T" horiz-adv-x="1103" 
d="M552 0q-54 0 -71 12v1329h-409q-20 45 -13 81q6 36 11 44l2 9h960q12 -25 12 -66t-12 -68h-399v-1329q-27 -12 -81 -12z" />
    <glyph glyph-name="U" unicode="U" horiz-adv-x="1368" 
d="M1184 481q0 -237 -136 -369t-364 -132t-362 133q-135 133 -136 368v981q27 12 80 12t72 -12v-1003q0 -166 92 -258t257 -92t256 92t91 258v1003q24 12 74 12t76 -12v-981z" />
    <glyph glyph-name="V" unicode="V" horiz-adv-x="1284" 
d="M49 1460q25 14 80 14t74 -12l387 -1091q24 -73 45 -166l6 -25h6q14 82 53 191l387 1091q43 26 142 4l8 -4l-512 -1452q-33 -10 -82 -10l-84 10z" />
    <glyph glyph-name="W" unicode="W" horiz-adv-x="1959" 
d="M562 0q-52 0 -85 12l-420 1450q53 25 148 4l6 -4l305 -1046l53 -238h6q12 111 46 236l292 1048q50 26 148 4l6 -4l291 -1046q31 -127 39 -207l4 -31h6q12 102 51 236l297 1048q51 24 133 4l8 -4l-409 -1450q-31 -12 -85 -12t-83 12l-285 1037q-32 127 -43 221l-2 26h-6
q-6 -86 -45 -247l-287 -1037q-37 -12 -89 -12z" />
    <glyph glyph-name="X" unicode="X" horiz-adv-x="1251" 
d="M1200 14q-32 -14 -80 -14t-88 8l-8 4l-406 639l-403 -641q-35 -10 -78 -10t-90 10l475 752l-442 700q60 23 136 9q27 -4 40 -9l373 -585l379 585q33 12 83 12t83 -12l-451 -694z" />
    <glyph glyph-name="Y" unicode="Y" horiz-adv-x="1286" 
d="M640 0q-52 0 -75 12v604l-516 846q61 24 138 9q27 -4 40 -9l422 -686l432 686q49 24 126 9q27 -4 40 -9l-530 -841v-609q-25 -12 -77 -12z" />
    <glyph glyph-name="Z" unicode="Z" horiz-adv-x="1198" 
d="M1083 1409q0 -41 -12 -70l-811 -1204h838q10 -31 10 -69t-10 -66h-1008q-10 41 -10 71t10 64l807 1204h-750q-10 41 -10 73t10 63h924q12 -25 12 -66z" />
    <glyph glyph-name="bracketleft" unicode="[" horiz-adv-x="663" 
d="M199 1659h379q8 -20 8 -62l-8 -59h-238v-1765h238q8 -20 8 -60l-8 -61h-379v2007z" />
    <glyph glyph-name="backslash" unicode="\" horiz-adv-x="935" 
d="M889 -84q-25 -12 -65 -12t-89 12l-688 1608q27 12 69 12t79 -8l8 -4z" />
    <glyph glyph-name="bracketright" unicode="]" horiz-adv-x="663" 
d="M465 -348h-377q-10 18 -10 61l10 60h236v1765h-236q-10 18 -10 59l10 62h377v-2007z" />
    <glyph glyph-name="asciicircum" unicode="^" horiz-adv-x="1060" 
d="M238 936q-25 -10 -68 -10t-55 8l-6 2l356 528q52 26 131 0l356 -528q-18 -10 -61 -10l-70 10l-293 434z" />
    <glyph glyph-name="underscore" unicode="_" horiz-adv-x="1124" 
d="M125 -92q0 39 10 49v2h854q8 -14 8 -51l-8 -53h-854q-10 14 -10 53z" />
    <glyph glyph-name="grave" unicode="`" horiz-adv-x="487" 
d="M334 1311l-256 284q16 27 55 44t76 16l213 -295q-27 -43 -88 -49z" />
    <glyph glyph-name="a" unicode="a" horiz-adv-x="1054" 
d="M502 520q-130 0 -192 -50t-62 -163q0 -209 211 -209q133 0 212 91t79 233v82q-188 16 -248 16zM534 1098q202 0 283 -100q80 -100 80 -314v-674q-18 -10 -59 -10l-60 10l-22 154q-88 -184 -344 -184q-145 0 -232 85q-86 85 -86 242q0 319 387 320q131 0 269 -17v111
q0 131 -58 190t-185 59q-128 0 -249 -36l-37 -14q-45 22 -45 108q156 70 358 70z" />
    <glyph glyph-name="b" unicode="b" 
d="M866 539q0 237 -68 335t-205 98q-138 0 -209 -87q-71 -88 -73 -211v-264q0 -123 72 -214t195 -92q154 0 221 98t67 337zM229 1536q42 0 82 -10v-588q94 160 316 160q189 0 291 -130t102 -429t-101 -429t-292 -130q-221 0 -316 159v-129q-23 -10 -65 -10t-82 10v1516
q23 10 65 10z" />
    <glyph glyph-name="c" unicode="c" horiz-adv-x="913" 
d="M582 973q-162 -1 -238 -107t-76 -326t78 -324t244 -105q88 0 176 28l22 11q43 -35 48 -109q-94 -61 -295 -61t-314 143t-113 415t113 416q113 143 328 144q81 0 145 -12t88 -25l25 -12q0 -72 -45 -111q-71 35 -186 35z" />
    <glyph glyph-name="d" unicode="d" 
d="M544 973q-138 -1 -206 -99t-68 -336t69 -335q69 -99 206 -99t209 92t71 214v262q-2 121 -72 211q-71 90 -209 90zM895 1536q47 0 78 -10v-1516q-25 -10 -62 -10l-65 10l-15 137q-98 -168 -321 -167q-190 0 -292 130q-101 130 -101 429t101 429t305 130t302 -160v588
q23 10 70 10z" />
    <glyph glyph-name="e" unicode="e" horiz-adv-x="1048" 
d="M795 740q1 94 -57 166t-183 71q-270 0 -287 -375h520q7 44 7 138zM586 111q70 0 132 16t89 33l29 18q49 -39 53 -108q-42 -35 -138 -63t-194 -27q-442 0 -442 565q0 281 117 417q118 136 312 136t296 -104q100 -104 100 -292q0 -119 -16 -186l-6 -24h-650
q10 -205 87 -293t231 -88z" />
    <glyph glyph-name="f" unicode="f" horiz-adv-x="708" 
d="M295 0q-42 0 -82 10v951h-139q-8 29 -8 61t8 55h139v123q0 162 74 249t250 87q115 0 184 -25l24 -10q0 -68 -38 -108q-63 23 -165 23t-142 -50q-40 -49 -40 -156v-133h289q10 -37 10 -59t-10 -57h-289v-951q-23 -10 -65 -10z" />
    <glyph glyph-name="g" unicode="g" horiz-adv-x="1075" 
d="M862 -186q0 116 -130 148q-60 15 -198 32t-190 35q-123 -86 -123 -222q0 -96 71 -152q70 -56 222 -56q152 -1 250 59t98 156zM750 738q0 124 -65 188t-177 63q-112 0 -176 -63q-66 -62 -66 -186t66 -188t178 -65t176 63t64 188zM895 723q0 -156 -100 -250t-287 -94
q-70 0 -109 10q-57 -76 -55 -151q4 -57 74 -82t166 -34q96 -8 192 -28t163 -85t67 -179q0 -150 -136 -246t-361 -96q-226 0 -331 80q-104 80 -104 204t64 196t116 106q-47 47 -47 119q0 106 96 225q-182 84 -182 319q0 168 101 264t286 97q127 0 221 -49l279 47
q25 -61 0 -125l-185 -4q72 -88 72 -244z" />
    <glyph glyph-name="h" unicode="h" horiz-adv-x="1124" 
d="M245 0q-41 0 -81 10v1516q23 10 74 10l73 -10v-588q127 160 340 160q147 0 231 -84t85 -223v-781q-27 -10 -67 -10t-81 10v752q0 213 -221 213q-86 0 -164 -50t-123 -137v-778q-25 -10 -66 -10z" />
    <glyph glyph-name="i" unicode="i" horiz-adv-x="487" 
d="M246 0q-46 0 -76 10v1057q20 10 74 10l73 -10v-1057q-25 -10 -71 -10zM328 1311q-71 -24 -168 0v149q27 10 84 10l84 -10v-149z" />
    <glyph glyph-name="j" unicode="j" horiz-adv-x="487" 
d="M170 -188v1255q20 10 74 10l73 -10v-1247q1 -166 -73 -249t-213 -83q-91 0 -127 18q-6 14 -6 50t16 61q33 -8 82 -8q174 0 174 203zM240 1303q-56 0 -80 12v149q27 10 84 11l82 -11v-149q-30 -12 -86 -12z" />
    <glyph glyph-name="k" unicode="k" horiz-adv-x="1019" 
d="M987 12q-33 -12 -75 -12t-85 8l-8 4l-336 492h-172v-494q-27 -10 -71 -10l-76 10v1518q29 8 76 8l71 -8v-907h174l301 446q29 10 80 10l72 -10l-332 -494z" />
    <glyph glyph-name="l" unicode="l" horiz-adv-x="495" 
d="M250 0q-46 0 -76 10v1516q20 10 74 10l74 -10v-1516q-26 -10 -72 -10z" />
    <glyph glyph-name="m" unicode="m" horiz-adv-x="1708" 
d="M245 0q-41 0 -81 10v1057q23 10 74 10l73 -10v-127q119 158 324 158t268 -178q127 178 350 178q141 0 219 -83t78 -224v-781q-25 -10 -71 -10t-76 10v752q0 213 -203 213q-82 0 -154 -48t-116 -141v-776q-25 -10 -64 -10t-84 10v752q0 213 -202 213q-80 0 -153 -50
t-116 -137v-778q-25 -10 -66 -10z" />
    <glyph glyph-name="n" unicode="n" horiz-adv-x="1124" 
d="M245 0q-41 0 -81 10v1057q23 10 74 10l73 -10v-129q127 160 340 160q147 0 231 -84t85 -223v-781q-27 -10 -67 -10t-81 10v752q0 213 -221 213q-86 0 -164 -50t-123 -137v-778q-25 -10 -66 -10z" />
    <glyph glyph-name="o" unicode="o" horiz-adv-x="1110" 
d="M842 539q0 244 -73 343t-214 99t-214 -99t-73 -343t73 -343q73 -100 214 -100t214 100t73 343zM117 539q0 295 111 427q112 132 327 132t327 -132t112 -427t-112 -427t-327 -132t-327 132q-111 132 -111 427z" />
    <glyph glyph-name="p" unicode="p" horiz-adv-x="1138" 
d="M866 539q0 237 -68 335t-205 98q-138 0 -209 -87q-71 -88 -73 -211v-264q0 -123 72 -214t195 -92q154 0 221 98t67 337zM229 1077q42 0 82 -10v-129q94 160 316 160q189 0 291 -130t102 -429t-101 -429t-292 -130q-221 0 -316 159v-618q-23 -10 -65 -10t-82 10v1546
q23 10 65 10z" />
    <glyph glyph-name="q" unicode="q" horiz-adv-x="1138" 
d="M272 539q0 -238 69 -336t220 -99q119 0 191 87t75 206v277q-4 123 -74 211q-71 88 -207 88t-206 -98q-68 -98 -68 -336zM912 -489q-40 0 -85 10v618q-98 -160 -315 -159q-190 0 -292 130q-101 130 -101 429t101 429t305 130t302 -160v129q20 10 64 10t84 -10v-1546
q-23 -10 -63 -10z" />
    <glyph glyph-name="r" unicode="r" horiz-adv-x="800" 
d="M229 1077q42 0 82 -10v-168q106 197 277 197q100 0 176 -49q-8 -78 -68 -125q-63 41 -136 41q-74 1 -138 -55t-111 -150v-748q-23 -10 -65 -10t-82 10v1057q23 10 65 10z" />
    <glyph glyph-name="s" unicode="s" horiz-adv-x="909" 
d="M113 786q0 144 94 228t276 84q82 0 151 -12t97 -25l29 -14q4 -70 -41 -109q-98 35 -219 35q-244 0 -244 -180q0 -53 37 -91t83 -54q49 -18 182 -57t194 -110t61 -203q0 -133 -95 -216t-280 -82q-90 0 -172 17t-119 36l-36 16q-4 72 41 111q133 -51 260 -51q252 0 254 182
q0 109 -127 160q-31 11 -113 35t-126 42q-121 49 -163 137q-24 51 -24 121z" />
    <glyph glyph-name="t" unicode="t" horiz-adv-x="753" 
d="M375 961v-588q0 -147 48 -209t169 -62l100 11q12 -25 13 -62l-9 -55q-55 -16 -143 -16q-176 0 -251 96t-75 291v594h-159q-17 33 -12 69q5 35 10 41l2 6h159v195q57 39 148 33v-228h293q10 -20 10 -57l-10 -59h-293z" />
    <glyph glyph-name="u" unicode="u" horiz-adv-x="1122" 
d="M877 1077q41 0 81 -10v-1057q-23 -10 -73 -10l-74 10v129q-127 -160 -340 -159q-147 0 -231 84t-84 223v780q27 10 67 10t80 -10v-752q0 -213 223 -213q84 0 161 50t124 137v778q25 10 66 10z" />
    <glyph glyph-name="v" unicode="v" horiz-adv-x="1044" 
d="M51 1067q27 10 77 10t79 -10l256 -700q36 -99 55 -183l6 -28h6q23 94 64 209l256 702q23 10 68 10l71 -10l-381 -1057q-35 -10 -84 -10l-84 10z" />
    <glyph glyph-name="w" unicode="w" horiz-adv-x="1626" 
d="M469 0q-31 0 -82 10l-328 1057q25 10 73 10t69 -10l225 -717q25 -86 41 -186h6q14 92 45 186l225 717q33 10 78 10l74 -10l221 -713q23 -74 41 -190h6q10 70 47 188l224 715q25 10 64 10t69 -10l-328 -1057q-55 -10 -80 -10t-80 10l-198 629q-57 190 -62 272h-6
q-10 -100 -68 -272l-198 -629q-47 -10 -78 -10z" />
    <glyph glyph-name="x" unicode="x" horiz-adv-x="1011" 
d="M418 549l-355 518q29 10 82 10l84 -10l285 -410l281 410q23 10 73 10l80 -10l-356 -514l373 -543q-27 -10 -82 -10l-84 10l-301 434l-297 -434q-25 -10 -78 -10l-76 10z" />
    <glyph glyph-name="y" unicode="y" horiz-adv-x="1071" 
d="M266 -512q-56 0 -104 16q-12 25 -12 65t14 54q38 -10 98 -10t102 44t85 173l61 172q-23 0 -49 10l-410 1055q27 10 78 10l78 -10l276 -702l74 -220h6q23 90 66 220l241 702q23 10 74 10l74 -10l-434 -1266q-55 -165 -122 -239t-196 -74z" />
    <glyph glyph-name="z" unicode="z" horiz-adv-x="944" 
d="M846 76q0 -28 -12 -76h-740q-10 25 -10 65t10 60l580 827h-539q-10 23 -10 64l10 61h696q19 -60 0 -125l-579 -827h582q12 -21 12 -49z" />
    <glyph glyph-name="braceleft" unicode="{" horiz-adv-x="704" 
d="M500 1659h118q14 -43 0 -119h-90q-160 0 -159 -158v-501q0 -141 -74 -195q74 -53 74 -194v-504q0 -158 159 -158h90q20 -63 0 -119h-118q-131 0 -201 73t-70 200v544q0 96 -86 97h-63q-10 31 -10 61t10 59h63q86 0 86 99v542q0 127 70 200t201 73z" />
    <glyph glyph-name="bar" unicode="|" horiz-adv-x="540" 
d="M273 -403q-46 0 -76 10v2001q20 10 73 10l74 -10v-2001q-25 -10 -71 -10z" />
    <glyph glyph-name="braceright" unicode="}" horiz-adv-x="706" 
d="M205 1659q133 0 203 -73t69 -200v-542q0 -98 86 -99h62q10 -31 10 -65t-10 -55h-62q-86 0 -86 -97v-544q1 -127 -69 -200t-203 -73h-117q-10 31 -10 60t10 59h88q160 0 160 158v504q0 139 72 192q-72 55 -72 197v501q0 158 -160 158h-88q-10 32 -10 60t10 59h117z" />
    <glyph glyph-name="asciitilde" unicode="~" horiz-adv-x="1091" 
d="M391 592q-53 0 -91 -18t-54 -37l-17 -19q-61 14 -71 78q8 12 23 32t73 52q58 33 130 33q71 -1 166 -53q94 -52 148 -52t92 18t54 38l16 18q61 -16 74 -76q-8 -16 -33 -41q-76 -75 -209 -77q-58 0 -153 52t-148 52z" />
    <glyph glyph-name="exclamdown" unicode="&#xa1;" horiz-adv-x="507" 
d="M334 -403q-16 -11 -77 -11t-83 11l25 1103q18 10 55 11l55 -11zM248 1061q50 0 90 -10v-150q-27 -10 -84 -10l-84 10v150q28 10 78 10z" />
    <glyph glyph-name="cent" unicode="&#xa2;" horiz-adv-x="952" 
d="M566 1296q34 0 59 -12l-13 -188q121 -4 191 -37l20 -10q0 -66 -45 -107q-72 35 -186 35q-162 0 -238 -109q-76 -110 -76 -330t78 -327q78 -106 244 -107q103 0 174 31l25 10q43 -37 47 -104q-80 -51 -234 -59l13 -189q-23 -14 -69 -14t-60 14l10 191q-186 16 -284 158
q-97 142 -97 396t97 396q97 141 284 160l-10 190q36 12 70 12z" />
    <glyph glyph-name="sterling" unicode="&#xa3;" horiz-adv-x="1071" 
d="M956 68q0 -55 -12 -68h-797v135q146 134 165 251t-17 247h-168q-10 20 -10 62t10 53h135q-63 178 -63 296q0 188 113 280q114 91 304 91t334 -61q6 -72 -47 -111q-127 45 -260 45q-289 0 -289 -250q0 -82 66 -290h389q10 -20 10 -60t-10 -55h-358q23 -90 25 -163
t-37 -163q-38 -90 -122 -172h627q12 -12 12 -67z" />
    <glyph glyph-name="currency" unicode="&#xa4;" horiz-adv-x="1206" 
d="M605 850q-124 0 -210 -85t-86 -210t86 -210t210 -85t209 85t85 210t-85 210t-209 85zM199 552q0 136 84 247l-154 151q4 25 26 48t48 30h6l151 -149q109 82 244 82t242 -84l151 151q20 0 48 -26t28 -44l2 -8l-149 -151q84 -111 84 -245t-84 -245l151 -149q0 -40 -51 -71
q-12 -7 -18 -7l-9 -2l-151 151q-109 -81 -245 -81t-245 81l-149 -151q-36 3 -71 55q-7 12 -7 19l-2 6l154 151q-84 105 -84 241z" />
    <glyph glyph-name="yen" unicode="&#xa5;" horiz-adv-x="1251" 
d="M616 0q-50 0 -69 12v295h-344q-8 25 -8 53t8 48h344v155h-344q-8 25 -8 53t8 48h295l-428 725q27 12 74 12t79 -8l8 -4l392 -668l411 670q27 10 78 10l76 -10l-453 -727h293q8 -20 8 -48t-8 -53h-342v-155h342q8 -16 8 -46t-8 -55h-342v-295q-20 -12 -70 -12z" />
    <glyph glyph-name="brokenbar" unicode="&#xa6;" horiz-adv-x="516" 
d="M260 76q-48 0 -78 10v1063q23 10 76 10l76 -10v-1063q-26 -10 -74 -10z" />
    <glyph glyph-name="section" unicode="&#xa7;" horiz-adv-x="987" 
d="M266 723q0 -84 75 -118q75 -35 156 -55q82 -19 113 -30q106 84 106 162t-75 116q-48 23 -138 49q-89 26 -122 38q-115 -78 -115 -162zM719 258q0 102 -206 158q-85 24 -171 50t-146 84t-61 148q0 133 141 238q-120 72 -120 207t94 203t256 68t285 -46q12 -66 -33 -100
q-98 33 -221 32q-246 0 -246 -153q0 -108 196 -161q82 -22 165 -48q82 -26 140 -85q58 -58 58 -148q0 -129 -131 -228q143 -80 143 -221q0 -276 -397 -276q-162 0 -285 36l-39 15q-12 70 33 104q129 -39 268 -39q277 0 277 162z" />
    <glyph glyph-name="dieresis" unicode="&#xa8;" horiz-adv-x="931" 
d="M694 1262q-57 -23 -149 0v133q25 10 76 10l73 -10v-133zM371 1262q-58 -23 -150 0v133q25 10 76 10l74 -10v-133z" />
    <glyph glyph-name="copyright" unicode="&#xa9;" horiz-adv-x="1646" 
d="M810 301q-158 -1 -246 105q-89 106 -89 305q0 408 352 407q120 0 189 -33l22 -12q0 -53 -37 -84q-78 35 -159 35q-126 0 -188 -73t-62 -240q0 -309 250 -310q75 0 145 21l23 8q39 -25 39 -82q-81 -47 -239 -47zM824 1290q-247 0 -422 -174t-175 -420t175 -421t421 -175
t420 175t174 421t-173 420t-420 174zM823 -2q-291 0 -495 204t-203 494q0 290 204 495q205 204 495 204t494 -204t204 -495q0 -290 -204 -494t-495 -204z" />
    <glyph glyph-name="ordfeminine" unicode="&#xaa;" horiz-adv-x="739" 
d="M125 500h477q12 -43 0 -88h-477q-12 47 0 88zM338 690q76 0 121 49t47 131v52l-141 6q-147 0 -148 -119q0 -119 121 -119zM379 1290q229 0 229 -221v-442q-14 -8 -43 -9l-41 9l-12 75q-61 -96 -203 -96q-90 0 -142 53t-52 150q0 197 237 197q80 0 154 -9v66
q0 137 -139 137q-81 0 -150 -24l-22 -7q-31 31 -31 76q98 45 215 45z" />
    <glyph glyph-name="guillemotleft" unicode="&#xab;" horiz-adv-x="1038" 
d="M479 610l387 396q41 -29 47 -88l-319 -365l319 -367q-6 -59 -47 -88l-387 394q-10 20 -10 57zM113 614l417 428q41 -29 52 -92l-353 -397l353 -399q-10 -63 -52 -93l-417 426q-20 39 -14 76q7 37 12 43z" />
    <glyph glyph-name="logicalnot" unicode="&#xac;" horiz-adv-x="1232" 
d="M117 838q0 40 14 61h936v-528q-45 -25 -99 -11q-15 4 -22 9l-8 2v401h-807q-14 26 -14 66z" />
    <glyph glyph-name="uni00AD" unicode="&#xad;" horiz-adv-x="536" 
 />
    <glyph glyph-name="registered" unicode="&#xae;" horiz-adv-x="1093" 
d="M465 991h110q86 0 87 76q0 82 -87 82h-110v-158zM580 1206q74 0 112 -37t39 -102q0 -98 -90 -127l119 -190q-16 -10 -41 -11l-37 6l-117 189h-100v-189q-16 -6 -35 -6l-33 6v461h183zM547 1329q-152 0 -258 -106q-107 -106 -107 -258t106 -258q106 -107 259 -107
q152 0 258 106t106 259q0 152 -106 258t-258 106zM547 532q-178 0 -305 127t-127 305t127 306q127 127 305 127t305 -127t127 -305q0 -177 -127 -305t-305 -128z" />
    <glyph glyph-name="macron" unicode="&#xaf;" horiz-adv-x="833" 
d="M711 1290h-615q-23 51 0 101h615q18 -44 0 -101z" />
    <glyph glyph-name="degree" unicode="&#xb0;" horiz-adv-x="733" 
d="M532 1268q0 70 -42 118t-122 50q-80 0 -123 -50q-44 -50 -44 -120q0 -68 43 -116t124 -48q80 0 122 48t42 118zM113 1264q0 100 69 177q70 77 188 77t184 -74t67 -174q0 -100 -67 -174q-66 -74 -186 -74t-188 71q-67 71 -67 171z" />
    <glyph glyph-name="plusminus" unicode="&#xb1;" horiz-adv-x="1048" 
d="M881 279h-711q-10 20 -10 57l10 57h711q8 -20 8 -57zM467 766h-297q-10 20 -10 57l10 58h297v237q20 8 57 8l58 -8v-237h299q8 -20 8 -58l-8 -57h-299v-236q-20 -10 -58 -10l-57 10v236z" />
    <glyph glyph-name="twosuperior" unicode="&#xb2;" horiz-adv-x="612" 
d="M66 808q0 62 37 118q39 55 93 86q54 32 107 58q129 64 129 151q0 115 -158 114q-88 0 -139 -20q-31 37 -24 78q77 29 189 29t173 -53q61 -52 61 -131t-35 -128q-36 -49 -87 -78q-50 -28 -104 -56q-129 -66 -140 -177h350q10 -25 10 -45t-10 -45h-444q-8 37 -8 99z" />
    <glyph glyph-name="threesuperior" unicode="&#xb3;" horiz-adv-x="614" 
d="M512 1226q0 -100 -92 -147q115 -47 115 -178q0 -203 -279 -203q-88 0 -166 27l-20 8q0 49 28 72q68 -20 154 -21q178 0 178 125t-147 125h-93q-16 43 0 84h93q125 0 125 109t-142 108q-99 0 -153 -18q-29 29 -25 74q74 31 186 31t176 -49q62 -47 62 -147z" />
    <glyph glyph-name="acute" unicode="&#xb4;" horiz-adv-x="458" 
d="M397 1595l-256 -284q-63 6 -88 49l213 295q39 5 77 -13t54 -47z" />
    <glyph glyph-name="mu" unicode="&#xb5;" horiz-adv-x="1185" 
d="M260 1077q46 0 76 -10v-754q0 -211 223 -211q90 0 167 54t118 133v778q23 10 65 10t82 -10v-1057q-23 -10 -65 -10t-82 10v121q-117 -152 -307 -151q-143 0 -222 86q7 -178 25 -314t33 -182l14 -47q-29 -25 -76 -32t-84 5q-39 133 -39 475v1096q26 10 72 10z" />
    <glyph glyph-name="paragraph" unicode="&#xb6;" horiz-adv-x="1060" 
d="M856 1423v-1880q-20 -8 -61 -8l-60 8v1880q18 8 60 9zM473 1432v-1889q-20 -8 -59 -8l-62 8v1288q-137 3 -213 91t-74 210t80 210q78 89 217 90h111z" />
    <glyph glyph-name="periodcentered" unicode="&#xb7;" horiz-adv-x="458" 
d="M225 504q-53 0 -71 12v133q25 10 75 10l76 -10v-133q-27 -12 -80 -12z" />
    <glyph glyph-name="cedilla" unicode="&#xb8;" horiz-adv-x="606" 
d="M520 -242q0 -203 -239 -202q-49 0 -95 11t-67 23l-23 13q0 47 35 71q66 -33 143 -32q141 0 142 118q0 106 -127 107h-72l-20 24l36 201l89 -18l-23 -127q221 0 221 -189z" />
    <glyph glyph-name="onesuperior" unicode="&#xb9;" horiz-adv-x="495" 
d="M322 1411q28 0 53 -8v-688q-18 -6 -50 -6t-51 6v483q0 57 2 82q-88 -72 -198 -94q-31 31 -25 84q135 35 223 133q18 8 46 8z" />
    <glyph glyph-name="ordmasculine" unicode="&#xba;" horiz-adv-x="772" 
d="M635 456q0 -24 -8 -44h-484q-6 14 -6 43t6 45h484q8 -20 8 -44zM549 947q0 141 -39 199t-126 58t-124 -57t-37 -199t37 -198q37 -58 124 -58t126 58t39 197zM117 947q0 179 66 261q67 82 203 82t204 -81t68 -261t-68 -262t-205 -82t-203 82q-65 82 -65 261z" />
    <glyph glyph-name="guillemotright" unicode="&#xbb;" horiz-adv-x="1036" 
d="M170 1006l387 -396q10 -23 10 -61l-10 -57l-387 -394q-37 25 -47 88l319 367l-319 365q10 63 47 88zM506 1042l420 -428q10 -25 10 -65l-10 -62l-420 -426q-41 31 -51 93l352 399l-352 397q10 61 51 92z" />
    <glyph glyph-name="onequarter" unicode="&#xbc;" horiz-adv-x="1345" 
d="M1079 262v311l-245 -311h245zM1169 262h84q9 -47 0 -80h-84v-176q-37 -6 -45 -6t-45 6v176h-358q-6 18 -6 36t6 30l350 446q25 8 51 8t47 -8v-432zM340 1411q26 0 55 -8v-688q-23 -6 -53 -6t-49 6v483q0 57 2 82q-84 -70 -197 -94q-32 29 -24 84q135 35 223 133
q17 8 43 8zM221 -12l795 1439q27 17 64 12t46 -12l-792 -1439q-20 -8 -58 -8z" />
    <glyph glyph-name="onehalf" unicode="&#xbd;" horiz-adv-x="1458" 
d="M1122 713q112 -1 175 -53t63 -131q1 -138 -124 -205q-52 -29 -106 -57q-129 -67 -139 -177h350q11 -18 11 -45t-11 -45h-444q-8 38 -8 100t38 117t92 86t107 57q131 65 129 152q0 115 -153 115q-92 0 -144 -21q-28 35 -24 78q76 29 188 29zM340 1411q26 0 55 -8v-688
q-23 -6 -53 -6t-49 6v483q0 57 2 82q-84 -70 -197 -94q-33 29 -24 84q135 35 223 133q17 8 43 8zM1016 1427q27 17 64 12t46 -12l-792 -1439q-20 -8 -58 -8l-55 8z" />
    <glyph glyph-name="threequarters" unicode="&#xbe;" horiz-adv-x="1449" 
d="M1184 262v311l-246 -311h246zM1228 702q26 0 46 -8v-432h84q6 -31 6 -43t-6 -37h-84v-176q-37 -6 -45 -6t-45 6v176h-359q-6 25 -6 39t6 27l351 446q26 8 52 8zM289 698q-88 0 -166 27l-21 8q-4 45 27 72q70 -20 156 -21q178 0 178 125t-148 125h-92q-18 43 0 84h92
q125 0 125 109t-141 108q-81 0 -135 -12l-21 -6q-26 27 -22 74q73 31 185 31t174 -49t62 -149t-91 -145q115 -45 114 -178q0 -203 -276 -203zM1120 1427q28 17 62 12t49 -12l-793 -1439q-20 -8 -57 -8l-55 8z" />
    <glyph glyph-name="questiondown" unicode="&#xbf;" horiz-adv-x="868" 
d="M502 -221q144 0 227 37l27 12q53 -39 47 -109q-123 -67 -315 -67t-296 90t-104 250q0 204 133 320q55 48 111 94q134 112 133 294q18 12 61 12t58 -12q0 -106 -26 -186t-64 -123q-66 -76 -160 -160t-92 -231q0 -221 260 -221zM518 1065q48 0 88 -10v-150q-27 -10 -84 -10
l-82 10v150q30 10 78 10z" />
    <glyph glyph-name="Agrave" unicode="&#xc0;" horiz-adv-x="1327" 
d="M662 1298h-7q-12 -61 -41 -141l-237 -627h563l-238 627zM1290 12q-27 -12 -73 -12t-78 8l-6 4l-148 391h-653l-150 -391q-25 -12 -73 -12t-72 12l543 1450q84 31 168 0zM567 1888l213 -295q-27 -43 -88 -49l-256 285q16 27 55 44t76 15z" />
    <glyph glyph-name="Aacute" unicode="&#xc1;" horiz-adv-x="1325" 
d="M659 1298h-6q-12 -61 -41 -141l-237 -627h563l-238 627zM1288 12q-27 -12 -79 -12t-79 12l-147 391h-653l-150 -391q-25 -12 -67 -12t-70 8l-6 4l541 1450q64 23 159 4l8 -4zM559 1595l213 295q39 4 77 -13t54 -46l-256 -285q-63 6 -88 49z" />
    <glyph glyph-name="Acircumflex" unicode="&#xc2;" horiz-adv-x="1325" 
d="M659 1298h-6q-12 -61 -41 -141l-237 -627h563l-238 627zM1288 12q-27 -12 -79 -12t-79 12l-147 391h-653l-150 -391q-25 -12 -67 -12t-70 8l-6 4l541 1450q64 23 159 4l8 -4zM684 1855l270 -221q-25 -57 -69 -71l-230 161l-225 -161q-51 18 -70 71l271 221h53z" />
    <glyph glyph-name="Atilde" unicode="&#xc3;" horiz-adv-x="1325" 
d="M659 1298h-6q-12 -61 -41 -141l-237 -627h563l-238 627zM1288 12q-27 -12 -79 -12t-79 12l-147 391h-653l-150 -391q-25 -12 -67 -12t-70 8l-6 4l541 1450q64 23 159 4l8 -4zM545 1634q-60 0 -84 -57q-62 6 -76 49q49 99 160 109q59 2 127 -35t111 -36t75 56
q55 -8 80 -51q-6 -13 -17 -29t-55 -46q-92 -63 -220 4q-67 36 -101 36z" />
    <glyph glyph-name="Adieresis" unicode="&#xc4;" horiz-adv-x="1327" 
d="M662 1298h-7q-12 -61 -41 -141l-237 -627h563l-238 627zM1290 12q-27 -12 -73 -12t-78 8l-6 4l-148 391h-653l-150 -391q-25 -12 -73 -12t-72 12l543 1450q84 31 168 0zM745 1704q25 8 76 8l76 -8v-135q-27 -8 -76 -8l-76 8v135zM422 1704q25 8 76 8l75 -8v-135
q-27 -8 -75 -8l-76 8v135z" />
    <glyph glyph-name="Aring" unicode="&#xc5;" horiz-adv-x="1327" 
d="M940 530l-238 627l-40 141h-7q-12 -61 -41 -141l-237 -627h563zM805 1620q0 55 -38 94t-107 39q-70 0 -106 -39t-36 -95t37 -96t105 -40t106 41q39 41 39 96zM563 1419q-141 38 -141 214q0 89 71 147t168 59q97 0 169 -58q72 -59 71 -147q0 -167 -137 -211l524 -1411
q-25 -12 -71 -12t-78 8l-6 4l-148 391h-653l-150 -391q-25 -12 -73 -12t-72 12z" />
    <glyph glyph-name="AE" unicode="&#xc6;" horiz-adv-x="1757" 
d="M918 516v727l-437 -727h437zM1061 1348v-539h467q23 -66 0 -127h-467v-555h590q27 -70 0 -127h-733v389h-512l-226 -377q-33 -12 -84 -12t-78 12l887 1463h725q29 -59 0 -127h-569z" />
    <glyph glyph-name="Ccedilla" unicode="&#xc7;" horiz-adv-x="1144" 
d="M915 -283q0 -203 -239 -202q-99 0 -164 34l-20 13q0 47 34 71q66 -33 144 -32q141 0 141 118q0 106 -127 107h-72l-20 24l24 136q-487 53 -487 751q0 758 571 758q100 0 186 -16t124 -33l37 -19q8 -38 -26 -91q-7 -10 -22 -23q-117 51 -280 51q-209 0 -320 -141
t-111 -487t112 -485q110 -138 319 -138q157 0 268 39l35 12q36 -24 46 -82q3 -16 1 -25v-8q-125 -68 -360 -69l-15 -74q221 0 221 -189z" />
    <glyph glyph-name="Egrave" unicode="&#xc8;" 
d="M197 1475h813q12 -29 12 -65t-12 -62h-662v-539h559q27 -61 0 -125h-559v-557h682q12 -29 12 -63t-12 -64h-833v1475zM621 1544l-256 285q16 27 55 44t76 15l213 -295q-27 -43 -88 -49z" />
    <glyph glyph-name="Eacute" unicode="&#xc9;" 
d="M197 1475h813q12 -29 12 -65t-12 -62h-662v-539h559q27 -61 0 -125h-559v-557h682q12 -29 12 -63t-12 -64h-833v1475zM788 1833l-256 -285q-63 6 -88 49l213 295q39 4 77 -13t54 -46z" />
    <glyph glyph-name="Ecircumflex" unicode="&#xca;" 
d="M197 1475h813q12 -29 12 -65t-12 -62h-662v-539h559q27 -61 0 -125h-559v-557h682q12 -29 12 -63t-12 -64h-833v1475zM625 1855l270 -221q-20 -57 -70 -71l-227 161l-225 -161q-49 18 -72 71l270 221h54z" />
    <glyph glyph-name="Edieresis" unicode="&#xcb;" 
d="M197 1475h813q12 -29 12 -65t-12 -62h-662v-539h559q27 -61 0 -125h-559v-557h682q12 -29 12 -63t-12 -64h-833v1475zM844 1704v-135q-25 -8 -74 -8l-76 8v135q25 8 76 8zM520 1704v-135q-25 -8 -74 -8l-75 8v135q25 8 75 8z" />
    <glyph glyph-name="Igrave" unicode="&#xcc;" horiz-adv-x="544" 
d="M271 0q-50 0 -74 12v1450q25 12 75 12t76 -12v-1450q-27 -12 -77 -12zM313 1544l-256 285q15 27 55 44t76 15l213 -295q-27 -43 -88 -49z" />
    <glyph glyph-name="Iacute" unicode="&#xcd;" horiz-adv-x="544" 
d="M271 0q-50 0 -74 12v1450q25 12 75 12t76 -12v-1450q-27 -12 -77 -12zM461 1833l-256 -285q-63 6 -88 49l213 295q39 4 77 -13t54 -46z" />
    <glyph glyph-name="Icircumflex" unicode="&#xce;" horiz-adv-x="544" 
d="M271 0q-50 0 -74 12v1450q25 12 75 12t76 -12v-1450q-27 -12 -77 -12zM299 1855l270 -221q-25 -57 -69 -71l-230 161l-225 -161q-47 18 -70 71l271 221h53z" />
    <glyph glyph-name="Idieresis" unicode="&#xcf;" horiz-adv-x="544" 
d="M271 0q-50 0 -74 12v1450q25 12 75 12t76 -12v-1450q-27 -12 -77 -12zM510 1704v-135q-25 -8 -74 -8l-76 8v135q25 8 76 8zM186 1704v-135q-25 -8 -73 -8l-76 8v135q25 8 76 8z" />
    <glyph glyph-name="Eth" unicode="&#xd0;" horiz-adv-x="1372" 
d="M367 1346v-562h319q14 -53 0 -108h-319v-547h264q151 0 243 48t148 185q55 137 55 347t-29 331q-55 220 -228 279q-77 27 -189 27h-264zM215 1475h428q301 0 449 -168q148 -167 147 -569q0 -402 -147 -570t-449 -168h-428v676h-168q-16 57 0 108h168v691z" />
    <glyph glyph-name="Ntilde" unicode="&#xd1;" horiz-adv-x="1425" 
d="M1229 12q-27 -12 -87 -12t-91 12l-607 1043q-61 101 -100 196l-10 29h-6q10 -111 10 -311v-957q-23 -12 -73 -12t-68 12v1450q61 24 138 9q27 -4 40 -9l602 -1030q62 -106 104 -205l13 -32h6q-12 131 -13 305v962q23 12 73 12t69 -12v-1450zM847 1665q59 0 97 53
q51 -14 62 -69q-23 -38 -72 -63t-100 -25q-51 1 -116 35t-108 34t-86 -55q-53 23 -61 70q6 10 17 25q12 15 54 41t97 26t119 -36t97 -36z" />
    <glyph glyph-name="Ograve" unicode="&#xd2;" horiz-adv-x="1388" 
d="M1098 737q0 339 -104 485t-300 146q-197 0 -300 -146t-103 -484t103 -485t300 -147q196 0 300 146t104 485zM131 737q1 385 147 571t416 187q270 0 416 -185t147 -573q0 -758 -563 -757q-563 -1 -563 757zM641 1888l203 -284q-25 -43 -88 -50l-246 275q16 27 55 44t76 15
z" />
    <glyph glyph-name="Oacute" unicode="&#xd3;" horiz-adv-x="1388" 
d="M1098 737q0 339 -104 485t-300 146q-197 0 -300 -146t-103 -484t103 -485t300 -147q196 0 300 146t104 485zM131 737q1 385 147 571t416 187q270 0 416 -185t147 -573q0 -758 -563 -757q-563 -1 -563 757zM659 1630l205 285q39 4 77 -13t54 -47l-247 -274q-64 10 -89 49z
" />
    <glyph glyph-name="Ocircumflex" unicode="&#xd4;" horiz-adv-x="1388" 
d="M1098 737q0 339 -104 485t-300 146q-197 0 -300 -146t-103 -484t103 -485t300 -147q196 0 300 146t104 485zM131 737q1 385 147 571t416 187q270 0 416 -185t147 -573q0 -758 -563 -757q-563 -1 -563 757zM725 1855l270 -221q-25 -57 -69 -71l-230 161l-225 -161
q-51 18 -70 71l271 221h53z" />
    <glyph glyph-name="Otilde" unicode="&#xd5;" horiz-adv-x="1388" 
d="M694 1368q-197 0 -300 -146t-103 -484t103 -485t300 -147t300 146t104 485q0 339 -104 485t-300 146zM694 -20q-563 0 -563 757q1 385 147 571t416 187q270 0 416 -185t147 -573q0 -757 -563 -757zM812 1694q32 0 52 13t43 46q47 -16 62 -67q-2 -4 -8 -17t-45 -45
t-100 -36q-60 -3 -128 30t-100 33q-32 1 -57 -15q-24 -16 -31 -30l-11 -15q-45 23 -59 68q29 58 107 86t161 -11q82 -40 114 -40z" />
    <glyph glyph-name="Odieresis" unicode="&#xd6;" horiz-adv-x="1388" 
d="M1098 737q0 339 -104 485t-300 146q-197 0 -300 -146t-103 -484t103 -485t300 -147q196 0 300 146t104 485zM131 737q1 385 147 571t416 187q270 0 416 -185t147 -573q0 -758 -563 -757q-563 -1 -563 757zM780 1724q25 8 76 9l76 -9v-135q-27 -8 -76 -8l-76 8v135z
M457 1724q25 8 75 9l76 -9v-135q-27 -8 -76 -8l-75 8v135z" />
    <glyph glyph-name="multiply" unicode="&#xd7;" horiz-adv-x="946" 
d="M473 506l-237 -238q-25 8 -50 37q-27 23 -36 49l237 238l-237 237q8 25 36 52t50 34l237 -237l238 237q25 -8 49 -36q17 -14 35 -43l2 -7l-238 -237l238 -238q-8 -25 -37 -49q-14 -17 -43 -35l-6 -2z" />
    <glyph glyph-name="Oslash" unicode="&#xd8;" horiz-adv-x="1386" 
d="M1095 720q0 321 -96 464l-563 -981q96 -96 256 -97q197 0 300 146t103 468zM692 1368q-403 0 -403 -598q0 -306 78 -451l559 977q-92 72 -234 72zM1255 737q0 -758 -563 -757q-201 0 -327 100l-101 -174q-68 6 -110 53l120 207q-145 190 -145 573t146 569t417 187
q178 0 303 -82l88 154q63 -6 111 -54l-107 -180q168 -186 168 -596z" />
    <glyph glyph-name="Ugrave" unicode="&#xd9;" horiz-adv-x="1368" 
d="M1184 481q0 -237 -136 -369t-364 -132t-362 133q-135 133 -136 368v981q27 12 80 12t72 -12v-1003q0 -166 92 -258t257 -92t256 92t91 258v1003q24 12 74 12t76 -12v-981zM694 1556l-243 273q16 27 55 44t76 15l200 -282q-25 -40 -88 -50z" />
    <glyph glyph-name="Uacute" unicode="&#xda;" horiz-adv-x="1368" 
d="M1184 481q0 -237 -136 -369t-364 -132t-362 133q-135 133 -136 368v981q27 12 80 12t72 -12v-1003q0 -166 92 -258t257 -92t256 92t91 258v1003q24 12 74 12t76 -12v-981zM895 1833l-256 -285q-63 6 -88 49l213 295q39 4 77 -13t54 -46z" />
    <glyph glyph-name="Ucircumflex" unicode="&#xdb;" horiz-adv-x="1368" 
d="M1184 481q0 -237 -136 -369t-364 -132t-362 133q-135 133 -136 368v981q27 12 80 12t72 -12v-1003q0 -166 92 -258t257 -92t256 92t91 258v1003q24 12 74 12t76 -12v-981zM723 1855l270 -221q-25 -57 -69 -71l-230 161l-225 -161q-51 18 -70 71l271 221h53z" />
    <glyph glyph-name="Udieresis" unicode="&#xdc;" horiz-adv-x="1368" 
d="M1184 481q0 -237 -136 -369t-364 -132t-362 133q-135 133 -136 368v981q27 12 80 12t72 -12v-1003q0 -166 92 -258t257 -92t256 92t91 258v1003q24 12 74 12t76 -12v-981zM849 1583q-48 0 -77 10v133q25 10 76 11l74 -11v-133q-25 -10 -73 -10zM526 1583q-47 0 -77 10
v133q25 10 75 11l74 -11v-133q-25 -10 -72 -10z" />
    <glyph glyph-name="Yacute" unicode="&#xdd;" horiz-adv-x="1286" 
d="M640 0q-52 0 -75 12v604l-516 846q61 24 138 9q27 -4 40 -9l422 -686l432 686q49 24 126 9q27 -4 40 -9l-530 -841v-609q-25 -12 -77 -12zM526 1597l213 295q39 4 77 -13t54 -46l-256 -285q-63 6 -88 49z" />
    <glyph glyph-name="Thorn" unicode="&#xde;" horiz-adv-x="1236" 
d="M348 1057v-592h352q133 0 206 78t73 217t-73 218t-206 79h-352zM348 1186h367q195 0 309 -117t115 -309q0 -192 -115 -308t-309 -116h-367v-324q-25 -12 -79 -12t-72 12v1450q23 12 74 12t77 -12v-276z" />
    <glyph glyph-name="germandbls" unicode="&#xdf;" horiz-adv-x="1169" 
d="M246 0q-42 0 -82 10v1129q0 397 422 397q190 0 288 -102t97 -252q0 -100 -43 -193q-25 0 -70 -13q-45 -14 -75 -32q-29 -18 -53 -56t-24 -88t28 -90t71 -67q107 -67 182 -130q100 -84 99 -229q-1 -146 -90 -226t-231 -78q-142 0 -212 28l-23 8q-6 66 35 105
q68 -23 167 -23t155 47q55 47 55 121t-39 126t-95 87t-113 72q-134 89 -134 235q0 66 25 117t59 78q72 56 131 68l25 6q20 72 20 125q-2 102 -60 169t-177 66q-272 0 -273 -276v-1129q-23 -10 -65 -10z" />
    <glyph glyph-name="agrave" unicode="&#xe0;" horiz-adv-x="1054" 
d="M502 520q-254 0 -254 -211t211 -211q133 0 212 91t79 233v82q-188 16 -248 16zM534 1098q202 0 283 -100q80 -100 80 -314v-674q-18 -10 -59 -10l-60 10l-22 154q-88 -184 -344 -184q-145 0 -232 85q-86 85 -86 242q0 319 387 320q131 0 269 -17v117q0 127 -58 185
t-186 58q-127 0 -248 -36l-37 -14q-45 22 -45 108q156 70 358 70zM393 1587l213 -295q-27 -43 -88 -49l-256 285q16 27 55 44t76 15z" />
    <glyph glyph-name="aacute" unicode="&#xe1;" horiz-adv-x="1054" 
d="M502 520q-254 0 -254 -211t211 -211q133 0 212 91t79 233v82q-188 16 -248 16zM534 1098q202 0 283 -100q80 -100 80 -314v-674q-18 -10 -59 -10l-60 10l-22 154q-88 -184 -344 -184q-145 0 -232 85q-86 85 -86 242q0 319 387 320q131 0 269 -17v115q0 127 -58 186
t-186 59q-127 0 -248 -36l-37 -14q-45 22 -45 108q156 70 358 70zM387 1292l211 295q39 4 77 -13t56 -46l-256 -285q-63 6 -88 49z" />
    <glyph glyph-name="acircumflex" unicode="&#xe2;" horiz-adv-x="1054" 
d="M502 520q-254 0 -254 -211t211 -211q133 0 212 91t79 233v82q-188 16 -248 16zM534 1098q202 0 283 -100q80 -100 80 -314v-674q-18 -10 -59 -10l-60 10l-22 154q-88 -184 -344 -184q-145 0 -232 85q-86 85 -86 242q0 319 387 320q131 0 269 -17v119q0 125 -58 183
t-186 58q-127 0 -248 -36l-37 -14q-45 22 -45 108q156 70 358 70zM553 1520l266 -217q-27 -57 -69 -68l-222 156l-223 -158q-45 16 -67 70l264 217h51z" />
    <glyph glyph-name="atilde" unicode="&#xe3;" horiz-adv-x="1052" 
d="M502 520q-254 0 -254 -211t211 -211q133 0 212 91t79 233v82q-188 16 -248 16zM534 1098q202 0 283 -100q80 -100 80 -314v-674q-18 -10 -59 -10l-60 10l-22 154q-88 -184 -344 -184q-145 0 -232 85q-86 85 -86 242q0 319 387 320q131 0 269 -17v121q0 127 -58 183
t-186 56q-127 0 -248 -36l-37 -14q-45 22 -45 108q156 70 358 70zM406 1352q-44 0 -87 -58q-47 27 -59 70q70 92 166 92q57 0 122 -35t101 -35q70 0 92 54q49 -20 60 -70q-1 -8 -19 -28t-58 -40q-40 -22 -92 -22t-117 36t-109 36z" />
    <glyph glyph-name="adieresis" unicode="&#xe4;" horiz-adv-x="1054" 
d="M502 520q-254 0 -254 -211t211 -211q133 0 212 91t79 233v82q-188 16 -248 16zM534 1098q202 0 283 -100q80 -100 80 -314v-674q-18 -10 -59 -10l-60 10l-22 154q-88 -184 -344 -184q-145 0 -232 85q-86 85 -86 242q0 319 387 320q131 0 269 -17v117q0 127 -58 185
t-186 58q-127 0 -248 -36l-37 -14q-45 22 -45 108q156 70 358 70zM614 1442q25 10 76 10l74 -10v-133q-42 -17 -88 -12q-47 5 -53 10l-9 2v133zM291 1442q25 10 76 10l73 -10v-133q-42 -17 -88 -12t-53 10l-8 2v133z" />
    <glyph glyph-name="aring" unicode="&#xe5;" horiz-adv-x="1054" 
d="M502 520q-254 0 -254 -211t211 -211q133 0 212 91t79 233v82q-188 16 -248 16zM534 1098q202 0 283 -100q80 -100 80 -314v-674q-18 -10 -59 -10l-60 10l-22 154q-88 -184 -344 -184q-145 0 -232 85q-86 85 -86 242q0 319 387 320q131 0 269 -17v115q0 127 -58 186
t-186 59q-127 0 -248 -36l-37 -14q-45 22 -45 108q156 70 358 70zM664 1425q0 51 -36 87t-100 36t-98 -37q-35 -37 -35 -88t34 -88q35 -37 99 -37t100 38t36 89zM295 1423q0 99 69 155q70 56 164 56t165 -55t71 -155t-69 -156q-69 -58 -170 -58t-165 56t-65 157z" />
    <glyph glyph-name="ae" unicode="&#xe6;" horiz-adv-x="1587" 
d="M713 508h-226q-127 0 -184 -48t-57 -152t50 -157q50 -52 140 -53q127 0 202 86t75 232v92zM1335 719q0 258 -217 258q-244 0 -260 -359h469q8 35 8 101zM1485 700q0 -112 -17 -168l-6 -24h-604q20 -403 287 -404q66 0 124 16t83 34l26 16q45 -31 52 -100
q-34 -34 -124 -63q-90 -28 -182 -27q-137 0 -225 68t-121 175q-31 -104 -125 -174q-93 -69 -243 -69t-233 85t-83 242q0 311 373 311h246v113q1 129 -53 184t-178 55t-228 -36l-35 -14q-43 39 -43 108q145 70 330 70q237 -1 303 -189q96 188 309 189q176 0 272 -104t95 -294
z" />
    <glyph glyph-name="ccedilla" unicode="&#xe7;" horiz-adv-x="911" 
d="M455 -12q-340 63 -340 567q0 256 112 399q113 143 328 144q81 0 145 -12t88 -25l25 -12q0 -66 -45 -107q-72 35 -186 35q-162 0 -238 -109q-76 -110 -76 -330t78 -326t244 -108q98 0 176 31l22 10q43 -37 48 -104q-90 -59 -289 -61l-17 -99q221 0 222 -182
q0 -195 -240 -195q-93 0 -164 37l-20 10q0 47 34 72q66 -33 144 -33q141 0 141 111q0 104 -127 104h-71l-21 23z" />
    <glyph glyph-name="egrave" unicode="&#xe8;" horiz-adv-x="1048" 
d="M795 738q1 96 -57 168t-183 71q-270 0 -287 -375h518q9 40 9 136zM586 111q70 0 132 16t89 33l29 18q49 -39 53 -108q-42 -35 -138 -63t-194 -27q-442 0 -442 565q0 281 117 417q118 136 312 136t298 -106q102 -106 102 -292q0 -123 -16 -184l-6 -24h-654
q10 -205 87 -293t231 -88zM582 1243l-256 285q16 27 55 44t76 15l213 -295q-27 -43 -88 -49z" />
    <glyph glyph-name="eacute" unicode="&#xe9;" horiz-adv-x="1048" 
d="M795 738q1 96 -57 168t-183 71q-270 0 -287 -375h518q9 40 9 136zM586 111q70 0 132 16t89 33l29 18q49 -39 53 -108q-42 -35 -138 -63t-194 -27q-442 0 -442 565q0 281 117 417q118 136 312 136t298 -106q102 -106 102 -292q0 -123 -16 -184l-6 -24h-654
q10 -205 87 -293t231 -88zM731 1528l-256 -285q-63 6 -88 49l213 295q39 4 77 -13t54 -46z" />
    <glyph glyph-name="ecircumflex" unicode="&#xea;" horiz-adv-x="1048" 
d="M795 738q1 96 -57 168t-183 71q-270 0 -287 -375h518q9 40 9 136zM586 111q70 0 132 16t89 33l29 18q49 -39 53 -108q-42 -35 -138 -63t-194 -27q-442 0 -442 565q0 281 117 417q118 136 312 136t298 -106q102 -106 102 -292q0 -123 -16 -184l-6 -24h-654
q10 -205 87 -293t231 -88zM575 1520l267 -217q-27 -57 -70 -68l-221 156l-221 -158q-47 16 -70 70l264 217h51z" />
    <glyph glyph-name="edieresis" unicode="&#xeb;" horiz-adv-x="1048" 
d="M795 738q1 96 -57 168t-183 71q-270 0 -287 -375h518q9 40 9 136zM586 111q70 0 132 16t89 33l29 18q49 -39 53 -108q-42 -35 -138 -63t-194 -27q-442 0 -442 565q0 281 117 417q118 136 312 136t298 -106q102 -106 102 -292q0 -123 -16 -184l-6 -24h-654
q10 -205 87 -293t231 -88zM720 1280q-41 0 -81 10v133q23 10 74 11l75 -11v-133q-27 -10 -68 -10zM399 1280q-39 0 -84 10v133q23 10 74 11l76 -11v-133q-27 -10 -66 -10z" />
    <glyph glyph-name="igrave" unicode="&#xec;" horiz-adv-x="487" 
d="M246 0q-46 0 -76 10v1057q20 10 74 10l73 -10v-1057q-25 -10 -71 -10zM272 1247l-256 285q16 27 56 44t75 15l213 -295q-27 -43 -88 -49z" />
    <glyph glyph-name="iacute" unicode="&#xed;" horiz-adv-x="487" 
d="M246 0q-46 0 -76 10v1057q20 10 74 10l73 -10v-1057q-25 -10 -71 -10zM453 1528l-256 -285q-63 6 -88 49l213 295q39 4 77 -13t54 -46z" />
    <glyph glyph-name="icircumflex" unicode="&#xee;" horiz-adv-x="487" 
d="M246 0q-46 0 -76 10v1057q20 10 74 10l73 -10v-1057q-25 -10 -71 -10zM272 1520l265 -217q-27 -57 -68 -68l-223 156l-221 -158q-47 18 -70 70l266 217h51z" />
    <glyph glyph-name="idieresis" unicode="&#xef;" horiz-adv-x="487" 
d="M246 0q-46 0 -76 10v1057q20 10 74 10l73 -10v-1057q-25 -10 -71 -10zM475 1434v-136q-25 -8 -74 -8l-75 8v136q25 8 75 8zM152 1434v-136q-25 -8 -76 -8l-74 8v136q25 8 74 8z" />
    <glyph glyph-name="eth" unicode="&#xf0;" horiz-adv-x="1138" 
d="M559 96q139 0 215 94t76 326t-78 326q-78 92 -220 92t-212 -93t-70 -325t75 -326t214 -94zM1016 629q0 -357 -115 -503t-342 -146q-442 0 -442 536t424 537q207 0 305 -146q-51 231 -223 373l-254 -160q-45 31 -56 86l215 135q-113 68 -245 95q-6 63 30 100
q176 -31 324 -123l160 100q43 -31 55 -88l-125 -77q289 -250 289 -719z" />
    <glyph glyph-name="ntilde" unicode="&#xf1;" horiz-adv-x="1124" 
d="M245 0q-41 0 -81 10v1057q23 10 74 10l73 -10v-129q127 160 340 160q147 0 231 -84t85 -223v-781q-27 -10 -67 -10t-81 10v752q0 213 -221 213q-86 0 -164 -50t-123 -137v-778q-25 -10 -66 -10zM447 1360q-61 0 -97 -62q-53 25 -63 72q6 10 17 26t54 44q42 26 98 26
t121 -34t97 -35q66 0 96 61q55 -23 66 -72q-22 -36 -69 -66q-48 -30 -103 -30t-120 35t-97 35z" />
    <glyph glyph-name="ograve" unicode="&#xf2;" horiz-adv-x="1110" 
d="M842 539q0 244 -73 343t-214 99t-214 -99t-73 -343t73 -343q73 -100 214 -100t214 100t73 343zM117 539q0 295 111 427q112 132 327 132t327 -132t112 -427t-112 -427t-327 -132t-327 132q-111 132 -111 427zM426 1587l213 -295q-27 -43 -90 -49l-256 285q16 27 56 44
t77 15z" />
    <glyph glyph-name="oacute" unicode="&#xf3;" horiz-adv-x="1110" 
d="M842 539q0 244 -73 343t-214 99t-214 -99t-73 -343t73 -343q73 -100 214 -100t214 100t73 343zM117 539q0 295 111 427q112 132 327 132t327 -132t112 -427t-112 -427t-327 -132t-327 132q-111 132 -111 427zM383 1292l213 295q39 4 77 -13t54 -46l-256 -285
q-63 6 -88 49z" />
    <glyph glyph-name="ocircumflex" unicode="&#xf4;" horiz-adv-x="1110" 
d="M842 539q0 244 -73 343t-214 99t-214 -99t-73 -343t73 -343q73 -100 214 -100t214 100t73 343zM117 539q0 295 111 427q112 132 327 132t327 -132t112 -427t-112 -427t-327 -132t-327 132q-111 132 -111 427zM573 1520l267 -217q-27 -57 -68 -68l-223 156l-221 -158
q-47 16 -70 70l264 217h51z" />
    <glyph glyph-name="otilde" unicode="&#xf5;" horiz-adv-x="1110" 
d="M842 539q0 244 -73 343t-214 99t-214 -99t-73 -343t73 -343q73 -100 214 -100t214 100t73 343zM117 539q0 295 111 427q112 132 327 132t327 -132t112 -427t-112 -427t-327 -132t-327 132q-111 132 -111 427zM654 1278q-56 0 -120 36t-110 36q-45 0 -86 -62
q-52 23 -62 70q6 10 18 26t54 43q43 27 98 27t120 -35t97 -35q31 0 55 14t32 32l10 14q53 -16 63 -70q-6 -10 -17 -26t-54 -43q-42 -27 -98 -27z" />
    <glyph glyph-name="odieresis" unicode="&#xf6;" horiz-adv-x="1110" 
d="M842 539q0 244 -73 343t-214 99t-214 -99t-73 -343t73 -343q73 -100 214 -100t214 100t73 343zM117 539q0 295 111 427q112 132 327 132t327 -132t112 -427t-112 -427t-327 -132t-327 132q-111 132 -111 427zM637 1442q25 8 76 8l73 -8v-135q-25 -8 -73 -9l-76 9v135z
M313 1442q25 8 76 8l74 -8v-135q-25 -8 -74 -9l-76 9v135z" />
    <glyph glyph-name="divide" unicode="&#xf7;" horiz-adv-x="1116" 
d="M564 178q-50 0 -89 10v150q27 10 84 10l84 -10v-150q-29 -10 -79 -10zM967 537h-815q-10 20 -11 57l11 57h815q8 -20 8 -57zM564 840q-50 0 -89 10v149q27 10 84 11l84 -11v-149q-29 -10 -79 -10z" />
    <glyph glyph-name="oslash" unicode="&#xf8;" horiz-adv-x="1110" 
d="M555 96q287 0 287 414q0 215 -54 317l-393 -686q63 -45 160 -45zM555 981q-141 0 -214 -99q-73 -98 -73 -322t64 -320l395 688q-68 53 -172 53zM995 541q-1 -295 -113 -428t-327 -133q-133 0 -227 51l-72 -123q-55 2 -92 47l80 139q-127 138 -127 438t112 433
q113 133 326 133q144 -1 238 -60l75 131q53 -6 95 -47l-89 -147q121 -139 121 -434z" />
    <glyph glyph-name="ugrave" unicode="&#xf9;" horiz-adv-x="1122" 
d="M223 1077q40 0 80 -10v-752q0 -213 223 -213q84 0 161 50t124 137v778q25 10 66 10t81 -10v-1057q-23 -10 -73 -10l-74 10v129q-127 -160 -340 -159q-147 0 -231 84t-84 223v780q27 10 67 10zM459 1587l213 -295q-27 -43 -88 -49l-256 285q16 27 55 44t76 15z" />
    <glyph glyph-name="uacute" unicode="&#xfa;" horiz-adv-x="1122" 
d="M877 1077q41 0 81 -10v-1057q-23 -10 -73 -10l-74 10v129q-127 -160 -340 -159q-147 0 -231 84t-84 223v780q27 10 67 10t80 -10v-752q0 -213 223 -213q84 0 161 50t124 137v778q25 10 66 10zM750 1528l-256 -285q-63 6 -88 49l212 295q40 4 78 -13t54 -46z" />
    <glyph glyph-name="ucircumflex" unicode="&#xfb;" horiz-adv-x="1122" 
d="M877 1077q41 0 81 -10v-1057q-23 -10 -73 -10l-74 10v129q-127 -160 -340 -159q-147 0 -231 84t-84 223v780q27 10 67 10t80 -10v-752q0 -213 223 -213q84 0 161 50t124 137v778q25 10 66 10zM586 1520l264 -217q-23 -57 -68 -68l-223 156l-221 -158q-49 18 -68 70
l265 217h51z" />
    <glyph glyph-name="udieresis" unicode="&#xfc;" horiz-adv-x="1122" 
d="M223 1077q40 0 80 -10v-752q0 -213 223 -213q84 0 161 50t124 137v778q25 10 66 10t81 -10v-1057q-23 -10 -73 -10l-74 10v129q-127 -160 -340 -159q-147 0 -231 84t-84 223v780q27 10 67 10zM793 1311q-27 -11 -73 -11t-79 11v133q25 10 76 10l76 -10v-133zM469 1311
q-66 -25 -152 0v133q25 10 76 10l76 -10v-133z" />
    <glyph glyph-name="yacute" unicode="&#xfd;" horiz-adv-x="1073" 
d="M266 -512q-56 0 -104 16q-12 25 -12 65t14 54q38 -10 98 -10t102 44t85 173l61 172q-23 0 -49 10l-410 1055q27 10 78 10l78 -10l276 -702l74 -220h6q23 90 66 220l241 702q23 10 74 10l74 -10l-434 -1266q-55 -165 -122 -239t-196 -74zM737 1528l-256 -285q-63 6 -88 49
l213 295q39 4 77 -13t54 -46z" />
    <glyph glyph-name="thorn" unicode="&#xfe;" horiz-adv-x="1138" 
d="M866 539q0 237 -68 335t-205 98q-138 0 -209 -87q-71 -88 -73 -211v-264q0 -123 72 -214t195 -92q154 0 221 98t67 337zM246 -489q-42 0 -82 10v2005q23 10 65 10t82 -10v-588q94 160 316 160q189 0 291 -130t102 -429t-101 -429t-292 -130q-221 0 -316 159v-618
q-23 -10 -65 -10z" />
    <glyph glyph-name="ydieresis" unicode="&#xff;" horiz-adv-x="1073" 
d="M266 -512q-56 0 -104 16q-12 25 -12 65t14 54q38 -10 98 -10t102 44t85 173l61 172q-23 0 -49 10l-410 1055q27 10 78 10l78 -10l276 -702l74 -220h6q23 90 66 220l241 702q23 10 74 10l74 -10l-434 -1266q-55 -165 -122 -239t-196 -74zM702 1303q-47 0 -77 10v133
q25 10 75 10l76 -10v-133q-27 -10 -74 -10zM378 1303q-48 0 -77 10v133q25 10 76 10l76 -10v-133q-27 -10 -75 -10z" />
    <glyph glyph-name="Amacron" unicode="&#x100;" horiz-adv-x="1325" 
d="M659 1298h-6q-12 -61 -41 -141l-237 -627h563l-238 627zM1288 12q-27 -12 -79 -12t-79 12l-147 391h-653l-150 -391q-25 -12 -67 -12t-70 8l-6 4l541 1450q64 23 159 4l8 -4zM362 1714h580q23 -47 0 -100h-580q-20 49 0 100z" />
    <glyph glyph-name="amacron" unicode="&#x101;" horiz-adv-x="1052" 
d="M502 520q-254 0 -254 -211t211 -211q133 0 212 91t79 233v82q-188 16 -248 16zM534 1098q202 0 283 -100q80 -100 80 -314v-674q-18 -10 -59 -10l-60 10l-22 154q-88 -184 -344 -184q-145 0 -232 85q-86 85 -86 242q0 319 387 320q131 0 269 -17v115q0 129 -58 187
t-185 58q-128 0 -249 -36l-37 -14q-45 22 -45 108q156 70 358 70zM256 1421h551q18 -45 0 -96h-551q-16 53 0 96z" />
    <glyph glyph-name="Abreve" unicode="&#x102;" horiz-adv-x="1327" 
d="M662 1298h-7q-12 -61 -41 -141l-237 -627h563l-238 627zM1290 12q-27 -12 -73 -12t-78 8l-6 4l-148 391h-653l-150 -391q-25 -12 -73 -12t-72 12l543 1450q84 31 168 0zM655 1712q63 0 121 18t84 37l25 19q53 -14 69 -72q-12 -12 -34 -32t-99 -51q-78 -32 -167 -32
t-164 29t-105 58l-29 28q16 53 68 72q90 -74 231 -74z" />
    <glyph glyph-name="abreve" unicode="&#x103;" horiz-adv-x="1054" 
d="M502 520q-254 0 -254 -211t211 -211q133 0 212 91t79 233v82q-188 16 -248 16zM534 1098q202 0 283 -100q80 -100 80 -314v-674q-18 -10 -59 -10l-60 10l-22 154q-88 -184 -344 -184q-145 0 -232 85q-86 85 -86 242q0 319 387 320q131 0 269 -17v121q0 123 -58 181
t-186 58q-127 0 -248 -36l-37 -14q-45 22 -45 108q156 70 358 70zM524 1391q60 0 116 19t81 38l27 18q51 -18 67 -73q-4 -4 -16 -21t-66 -46q-102 -56 -198 -56q-97 0 -169 30t-104 62l-29 31q18 55 68 73q86 -75 223 -75z" />
    <glyph glyph-name="Aogonek" unicode="&#x104;" horiz-adv-x="1327" 
d="M940 530l-238 627l-40 141h-7q-12 -61 -41 -141l-237 -627h563zM1175 -285q44 0 78 17q27 -20 27 -66q-53 -35 -134 -35t-132 47t-51 127q0 152 165 215l-143 383h-653l-150 -391q-25 -12 -73 -12t-72 12l543 1450q84 31 168 0l542 -1450l-18 -6q-86 -18 -144 -64
t-59 -110q0 -64 31 -90q31 -27 75 -27z" />
    <glyph glyph-name="aogonek" unicode="&#x105;" horiz-adv-x="1054" 
d="M502 520q-254 0 -254 -211t211 -211q131 0 211 96t80 234v76q-188 16 -248 16zM534 1098q202 0 283 -100q80 -100 80 -314v-676q-93 -25 -151 -79t-58 -124q0 -88 109 -88q41 0 67 13l10 2q27 -20 27 -72q-53 -35 -137 -35t-136 43t-53 119q0 154 203 240l-22 137
q-88 -184 -344 -184q-145 0 -232 85q-86 85 -86 242q0 319 387 320q131 0 269 -17v113q0 131 -58 189t-185 58q-128 0 -249 -36l-37 -14q-45 22 -45 108q156 70 358 70z" />
    <glyph glyph-name="Cacute" unicode="&#x106;" horiz-adv-x="1146" 
d="M705 -20q-571 0 -571 758t571 757q100 0 186 -16t123 -33l37 -19q2 -66 -47 -114q-117 51 -281 51q-209 0 -320 -141t-111 -487t112 -484q110 -137 319 -137q166 0 268 37l35 14q43 -43 47 -117q-126 -69 -368 -69zM913 1833l-256 -285q-63 6 -88 49l213 295q39 4 77 -13
t54 -46z" />
    <glyph glyph-name="cacute" unicode="&#x107;" horiz-adv-x="913" 
d="M582 973q-162 -1 -238 -107t-76 -326t78 -324t244 -105q88 0 176 28l22 11q43 -35 48 -109q-94 -61 -295 -61t-314 143t-113 415t113 416q113 143 328 144q81 0 145 -12t88 -25l25 -12q0 -72 -45 -111q-71 35 -186 35zM719 1528l-256 -285q-63 6 -88 49l213 295
q39 4 77 -13t54 -46z" />
    <glyph glyph-name="Ccircumflex" unicode="&#x108;" horiz-adv-x="1146" 
d="M705 -20q-571 0 -571 758t571 757q100 0 186 -16t123 -33l37 -19q2 -61 -47 -114q-117 51 -281 51q-209 0 -320 -141t-111 -487t112 -484q110 -137 319 -137q166 0 268 37l35 14q43 -41 47 -117q-126 -69 -368 -69zM745 1831l271 -221q-27 -59 -70 -70l-229 160
l-225 -162q-49 18 -70 72l270 221h53z" />
    <glyph glyph-name="ccircumflex" unicode="&#x109;" horiz-adv-x="913" 
d="M582 973q-162 -1 -238 -107t-76 -326t78 -324t244 -105q88 0 176 28l22 11q43 -35 48 -109q-94 -61 -295 -61t-314 143t-113 415t113 416q113 143 328 144q81 0 145 -12t88 -25l25 -12q0 -72 -45 -111q-71 35 -186 35zM557 1524l266 -217q-25 -55 -69 -70l-222 158
l-221 -158q-47 16 -69 70l264 217h51z" />
    <glyph glyph-name="Cdotaccent" unicode="&#x10a;" horiz-adv-x="1146" 
d="M705 -20q-571 0 -571 758t571 757q100 0 186 -16t123 -33l37 -19q2 -68 -47 -114q-117 51 -281 51q-209 0 -320 -141t-111 -487t112 -484q110 -137 319 -137q166 0 268 37l35 14q43 -43 47 -117q-126 -69 -368 -69zM788 1608q-26 -10 -74 -10t-81 10v139q23 8 78 8l77 -8
v-139z" />
    <glyph glyph-name="cdotaccent" unicode="&#x10b;" horiz-adv-x="913" 
d="M582 973q-162 -1 -238 -107t-76 -326t78 -324t244 -105q88 0 176 28l22 11q43 -35 48 -109q-94 -61 -295 -61t-314 143t-113 415t113 416q113 143 328 144q81 0 145 -12t88 -25l25 -12q0 -72 -45 -111q-71 35 -186 35zM536 1303q-49 0 -79 10v139q25 8 78 8l77 -8v-139
q-27 -10 -76 -10z" />
    <glyph glyph-name="Ccaron" unicode="&#x10c;" horiz-adv-x="1146" 
d="M705 -20q-571 0 -571 758t571 757q100 0 186 -16t123 -33l37 -19q2 -66 -47 -114q-117 51 -281 51q-209 0 -320 -141t-111 -487t112 -484q110 -137 319 -137q166 0 268 37l35 14q43 -43 47 -117q-126 -69 -368 -69zM680 1563l-272 221q25 55 69 71l230 -161l225 159
q45 -14 69 -69l-268 -221h-53z" />
    <glyph glyph-name="ccaron" unicode="&#x10d;" horiz-adv-x="913" 
d="M582 973q-162 -1 -238 -107t-76 -326t78 -324t244 -105q88 0 176 28l22 11q43 -35 48 -109q-94 -61 -295 -61t-314 143t-113 415t113 416q113 143 328 144q81 0 145 -12t88 -25l25 -12q0 -72 -45 -111q-71 35 -186 35zM528 1233l-249 205q20 49 65 67l209 -149l207 147
q39 -14 63 -65l-248 -205h-47z" />
    <glyph glyph-name="Dcaron" unicode="&#x10e;" horiz-adv-x="1353" 
d="M348 129h264q150 0 243 48t149 185q55 137 55 347t-30 331q-55 221 -227 279q-77 27 -190 27h-264v-1217zM197 1475h428q301 0 448 -168q147 -167 147 -569t-146 -570q-148 -168 -449 -168h-428v1475zM567 1563l-270 221q20 53 70 71l229 -161l225 159q45 -14 70 -69
l-270 -221h-54z" />
    <glyph glyph-name="dcaron" unicode="&#x10f;" horiz-adv-x="1163" 
d="M544 973q-138 -1 -206 -99t-68 -336t69 -335q69 -99 206 -99t209 92t71 214v262q-2 121 -72 211q-71 90 -209 90zM895 1536q47 0 78 -10v-1516q-25 -10 -62 -10l-65 10l-15 137q-98 -168 -321 -167q-190 0 -292 130q-101 130 -101 429t101 429t305 130t302 -160v588
q23 10 70 10zM1073 1231q113 119 101 301q82 20 131 -14q-3 -98 -47 -190t-115 -136q-50 6 -70 39z" />
    <glyph glyph-name="Dcroat" unicode="&#x110;" horiz-adv-x="1372" 
d="M367 1346v-562h319q14 -51 0 -108h-319v-547h264q151 0 243 48t148 185q55 137 55 347t-29 331q-55 220 -228 279q-77 27 -189 27h-264zM215 1475h428q301 0 449 -168q148 -167 147 -569q0 -402 -147 -570t-449 -168h-428v676h-168q-18 55 0 108h168v691z" />
    <glyph glyph-name="dcroat" unicode="&#x111;" 
d="M825 410v262q-2 121 -72 211q-71 90 -209 90q-138 -1 -206 -99t-68 -336t69 -335q69 -99 206 -99t209 92t71 214zM895 1536q47 0 78 -10v-158h143q6 -16 6 -49l-6 -49h-143v-1260q-25 -10 -62 -10l-65 10l-15 137q-98 -168 -321 -167q-190 0 -292 130q-101 130 -101 429
t101 429t305 130t302 -160v332h-276q-8 16 -8 49l8 49h276v158q23 10 70 10z" />
    <glyph glyph-name="Emacron" unicode="&#x112;" 
d="M197 1475h813q12 -29 12 -65t-12 -62h-662v-539h559q27 -61 0 -125h-559v-557h682q12 -29 12 -63t-12 -64h-833v1475zM891 1614h-582q-16 49 0 100h582q16 -45 0 -100z" />
    <glyph glyph-name="emacron" unicode="&#x113;" horiz-adv-x="1048" 
d="M795 738q1 96 -57 168t-183 71q-270 0 -287 -375h518q9 40 9 136zM586 111q70 0 132 16t89 33l29 18q49 -39 53 -108q-42 -35 -138 -63t-194 -27q-442 0 -442 565q0 281 117 417q118 136 312 136t298 -106q102 -106 102 -292q0 -123 -16 -184l-6 -24h-654
q10 -205 87 -293t231 -88zM815 1309h-510q-16 51 0 100h510q20 -57 0 -100z" />
    <glyph glyph-name="Ebreve" unicode="&#x114;" 
d="M197 1475h813q12 -29 12 -65t-12 -62h-662v-539h559q27 -61 0 -125h-559v-557h682q12 -29 12 -63t-12 -64h-833v1475zM597 1612q-89 0 -164 28t-105 58l-31 28q16 53 70 72q88 -74 231 -74q62 0 120 18t85 38l24 18q56 -17 68 -72q-12 -12 -34 -31q-23 -19 -99 -51
t-165 -32z" />
    <glyph glyph-name="ebreve" unicode="&#x115;" horiz-adv-x="1048" 
d="M795 738q1 96 -57 168t-183 71q-270 0 -287 -375h518q9 40 9 136zM586 111q70 0 132 16t89 33l29 18q49 -39 53 -108q-42 -35 -138 -63t-194 -27q-442 0 -442 565q0 281 117 417q118 136 312 136t298 -106q102 -106 102 -292q0 -123 -16 -184l-6 -24h-654
q10 -205 87 -293t231 -88zM536 1270q-70 0 -144 30q-73 30 -101 62l-31 31q18 55 68 73q86 -76 223 -75q61 0 117 19t82 38l24 18q52 -18 68 -73q-4 -3 -12 -13t-34 -30q-112 -80 -260 -80z" />
    <glyph glyph-name="Edotaccent" unicode="&#x116;" 
d="M197 1475h813q12 -29 12 -65t-12 -62h-662v-539h559q27 -61 0 -125h-559v-557h682q12 -29 12 -63t-12 -64h-833v1475zM686 1747v-139q-48 -17 -95 -12q-48 5 -54 10l-9 2v139q25 8 80 8z" />
    <glyph glyph-name="edotaccent" unicode="&#x117;" horiz-adv-x="1048" 
d="M795 738q1 96 -57 168t-183 71q-270 0 -287 -375h518q9 40 9 136zM586 111q70 0 132 16t89 33l29 18q49 -39 53 -108q-42 -35 -138 -63t-194 -27q-442 0 -442 565q0 281 117 417q118 136 312 136t298 -106q102 -106 102 -292q0 -123 -16 -184l-6 -24h-654
q10 -205 87 -293t231 -88zM631 1303q-27 -11 -77 -11t-79 11v139q25 10 78 10l78 -10v-139z" />
    <glyph glyph-name="Eogonek" unicode="&#x118;" 
d="M898 -293q44 0 79 17q27 -20 27 -66q-56 -37 -136 -37t-131 47t-51 127q0 143 137 205h-626v1475h813q12 -29 12 -65t-12 -62h-662v-539h559q27 -61 0 -125h-559v-557h682q12 -29 12 -63t-12 -64q-238 -31 -237 -188q1 -51 31 -78t74 -27z" />
    <glyph glyph-name="eogonek" unicode="&#x119;" horiz-adv-x="1048" 
d="M795 738q1 96 -57 168t-183 71q-270 0 -287 -375h518q9 40 9 136zM618 -373q-188 0 -188 152q0 129 105 201q-420 16 -420 565q0 281 117 417q118 136 312 136t298 -106q102 -106 102 -292q0 -123 -16 -184l-6 -24h-654q10 -205 87 -293t231 -88q70 0 132 16t89 33l29 18
q49 -39 53 -108q-57 -47 -168 -72q-82 -23 -132 -77q-50 -53 -50 -113t27 -76q65 -37 157 0q27 -20 27 -70q-55 -35 -132 -35z" />
    <glyph glyph-name="Ecaron" unicode="&#x11a;" 
d="M197 1475h813q12 -29 12 -65t-12 -62h-662v-539h559q27 -61 0 -125h-559v-557h682q12 -29 12 -63t-12 -64h-833v1475zM551 1563l-272 221q25 55 69 71l230 -161l225 159q45 -14 69 -69l-268 -221h-53z" />
    <glyph glyph-name="ecaron" unicode="&#x11b;" horiz-adv-x="1048" 
d="M795 738q1 96 -57 168t-183 71q-270 0 -287 -375h518q9 40 9 136zM586 111q70 0 132 16t89 33l29 18q49 -39 53 -108q-42 -35 -138 -63t-194 -27q-442 0 -442 565q0 281 117 417q118 136 312 136t298 -106q102 -106 102 -292q0 -123 -16 -184l-6 -24h-654
q10 -205 87 -293t231 -88zM524 1233l-258 211q20 53 68 67l217 -155l215 153q43 -12 65 -65l-256 -211h-51z" />
    <glyph glyph-name="Gcircumflex" unicode="&#x11c;" horiz-adv-x="1277" 
d="M639 737q0 42 12 60h482v-750q-152 -67 -402 -67q-291 0 -445 191t-155 565q0 374 154 567t446 192q105 0 201 -16t137 -33l41 -19q-4 -72 -47 -112q-141 49 -279 49t-218 -31q-183 -71 -241 -294q-34 -126 -34 -304q0 -356 125 -490t334 -132q125 0 237 26v531h-336
q-12 25 -12 67zM791 1855l270 -221q-25 -57 -70 -71l-229 161l-225 -161q-51 18 -70 71l270 221h54z" />
    <glyph glyph-name="gcircumflex" unicode="&#x11d;" horiz-adv-x="1075" 
d="M514 -401q152 0 250 59t98 156q0 116 -130 148q-60 15 -198 32t-190 35q-123 -86 -123 -222q0 -96 71 -152q70 -56 222 -56zM509 989q-111 0 -177 -63q-66 -62 -66 -186t66 -188t178 -65t176 63t64 188t-64 188t-177 63zM121 737q0 168 101 264t286 97q127 0 221 -49
l279 47q25 -61 0 -125l-185 -4q72 -88 72 -244t-100 -250t-287 -94q-70 0 -109 10q-57 -76 -55 -151q4 -57 74 -82t166 -34q96 -8 192 -28t163 -85t67 -179q0 -150 -136 -246t-361 -96q-226 0 -331 80q-104 80 -104 204t64 196t116 106q-47 47 -47 119q0 106 96 225
q-182 84 -182 319zM530 1520l265 -217q-27 -57 -68 -68l-223 156l-221 -158q-49 18 -68 70l264 217h51z" />
    <glyph glyph-name="Gbreve" unicode="&#x11e;" horiz-adv-x="1277" 
d="M639 737q0 42 12 60h482v-750q-152 -67 -402 -67q-291 0 -445 191t-155 565q0 374 154 567t446 192q105 0 201 -16t137 -33l41 -19q-4 -72 -47 -112q-141 49 -279 49t-218 -31q-183 -71 -241 -294q-34 -126 -34 -304q0 -356 125 -490t334 -132q125 0 237 26v531h-336
q-12 25 -12 67zM740 1599q-90 0 -164 29t-105 58l-31 28q16 53 70 72q90 -74 231 -74q63 0 121 18t84 37l25 19q55 -17 67 -72q-12 -12 -34 -32t-98 -51q-77 -32 -166 -32z" />
    <glyph glyph-name="gbreve" unicode="&#x11f;" horiz-adv-x="1075" 
d="M514 -401q152 0 250 59t98 156q0 116 -130 148q-60 15 -198 32t-190 35q-123 -86 -123 -222q0 -96 71 -152q70 -56 222 -56zM509 989q-111 0 -177 -63q-66 -62 -66 -186t66 -188t178 -65t176 63t64 188t-64 188t-177 63zM121 737q0 168 101 264t286 97q127 0 221 -49
l279 47q25 -61 0 -123l-185 -6q72 -88 72 -244t-100 -250t-287 -94q-70 0 -109 10q-57 -76 -55 -151q4 -57 74 -82t166 -34q96 -8 192 -28t163 -85t67 -179q0 -150 -136 -246t-361 -96q-226 0 -331 80q-104 80 -104 204t64 196t116 106q-47 47 -47 119q0 106 96 225
q-182 84 -182 319zM499 1270q-71 0 -144 30t-101 62l-31 31q18 55 68 73q86 -76 223 -75q60 0 116 19t83 38l24 18q52 -18 68 -73q-4 -3 -11 -13t-35 -30q-112 -80 -260 -80z" />
    <glyph glyph-name="Gdotaccent" unicode="&#x120;" horiz-adv-x="1277" 
d="M639 737q0 42 12 60h482v-750q-152 -67 -402 -67q-291 0 -445 191t-155 565q0 374 154 567t446 192q105 0 201 -16t137 -33l41 -19q-4 -72 -47 -112q-141 49 -279 49t-218 -31q-183 -71 -241 -294q-34 -126 -34 -304q0 -356 125 -490t334 -132q125 0 237 26v531h-336
q-12 25 -12 67zM813 1608q-27 -10 -72 -10t-84 10v139q25 8 78 8l78 -8v-139z" />
    <glyph glyph-name="gdotaccent" unicode="&#x121;" horiz-adv-x="1075" 
d="M514 -401q152 0 250 59t98 156q0 116 -130 148q-60 15 -198 32t-190 35q-123 -86 -123 -222q0 -96 71 -152q70 -56 222 -56zM509 989q-111 0 -177 -63q-66 -62 -66 -186t66 -188t178 -65t176 63t64 188t-64 188t-177 63zM121 737q0 168 101 264t286 97q127 0 221 -49
l279 47q25 -61 0 -125l-185 -4q72 -88 72 -244t-100 -250t-287 -94q-70 0 -109 10q-57 -76 -55 -151q4 -57 74 -82t166 -34q96 -8 192 -28t163 -85t67 -179q0 -150 -136 -246t-361 -96q-226 0 -331 80q-104 80 -104 204t64 196t116 106q-47 47 -47 119q0 106 96 225
q-182 84 -182 319zM522 1290q-44 0 -84 10v140q25 10 78 10l78 -10v-140q-28 -10 -72 -10z" />
    <glyph glyph-name="Gcommaaccent" unicode="&#x122;" horiz-adv-x="1277" 
d="M827 -190q1 -78 -33 -146t-69 -94l-33 -29l-61 37q68 61 78 178l-60 11v139q31 10 90 10l88 -10v-96zM639 737q0 42 12 60h482v-750q-152 -67 -402 -67q-291 0 -445 191t-155 565q0 374 154 567t446 192q105 0 201 -16t137 -33l41 -19q-4 -70 -47 -112q-141 49 -279 49
t-218 -31q-183 -71 -241 -294q-34 -126 -34 -304q0 -356 125 -490t334 -132q125 0 237 26v531h-336q-12 25 -12 67z" />
    <glyph glyph-name="gcommaaccent" unicode="&#x123;" horiz-adv-x="1075" 
d="M514 -401q152 0 250 59t98 156q0 116 -130 148q-60 15 -198 32t-190 35q-123 -86 -123 -222q0 -96 71 -152q70 -56 222 -56zM509 989q-111 0 -177 -63q-66 -62 -66 -186t66 -188t178 -65t176 63t64 188t-64 188t-177 63zM121 737q0 168 101 264t286 97q127 0 221 -49
l279 47q25 -61 0 -125l-185 -4q72 -88 72 -244t-100 -250t-287 -94q-70 0 -109 10q-57 -76 -55 -151q4 -57 74 -82t166 -34q96 -8 192 -28t163 -85t67 -179q0 -150 -136 -246t-361 -96q-226 0 -331 80q-104 80 -104 204t64 196t116 106q-47 47 -47 119q0 106 96 225
q-182 84 -182 319zM426 1335q0 73 32 137t62 91l33 26l59 -35q-63 -59 -73 -168l57 -10v-133q-29 -8 -84 -8l-86 8v92z" />
    <glyph glyph-name="Hcircumflex" unicode="&#x124;" horiz-adv-x="1388" 
d="M348 823h692v639q26 12 76 12t76 -12v-1450q-25 -12 -78 -12t-74 12v676h-692v-676q-27 -12 -80 -12t-71 12v1450q27 12 76 12t75 -12v-639zM735 1855l271 -221q-25 -57 -70 -71l-229 161l-226 -161q-51 18 -69 71l270 221h53z" />
    <glyph glyph-name="hcircumflex" unicode="&#x125;" horiz-adv-x="1124" 
d="M245 0q-41 0 -81 10v1516q23 10 74 10l73 -10v-588q127 160 340 160q147 0 231 -84t85 -223v-781q-27 -10 -67 -10t-81 10v752q0 213 -221 213q-86 0 -164 -50t-123 -137v-778q-25 -10 -66 -10zM274 1849l258 -215q-20 -53 -67 -67l-219 155l-215 -155q-49 18 -68 67
l260 215h51z" />
    <glyph glyph-name="Hbar" unicode="&#x126;" horiz-adv-x="1417" 
d="M365 1124v-301h692v301h-692zM1208 1225h154q16 -49 0 -101h-154v-1112q-25 -12 -79 -12t-72 12v676h-692v-676q-27 -12 -81 -12t-71 12v1112h-133q-16 53 0 101h133v237q27 12 75 12t77 -12v-237h692v237q27 12 76 12t75 -12v-237z" />
    <glyph glyph-name="hbar" unicode="&#x127;" horiz-adv-x="1124" 
d="M245 0q-41 0 -81 10v1258h-141q-18 55 0 100h141v158q23 10 74 10l73 -10v-158h365q20 -47 0 -100h-365v-330q127 160 340 160q147 0 231 -84t85 -223v-781q-27 -10 -67 -10t-81 10v752q0 213 -221 213q-86 0 -164 -50t-123 -137v-778q-25 -10 -66 -10z" />
    <glyph glyph-name="Itilde" unicode="&#x128;" horiz-adv-x="544" 
d="M271 0q-50 0 -74 12v1450q25 12 75 12t76 -12v-1450q-27 -12 -77 -12zM158 1628q-46 0 -80 -51q-47 23 -55 63q13 33 61 62q47 29 100 29q54 0 116 -34t107 -34t72 41l10 12q45 -18 56 -63q-3 -7 -19 -27t-55 -43t-90 -23t-115 34q-62 34 -108 34z" />
    <glyph glyph-name="itilde" unicode="&#x129;" horiz-adv-x="487" 
d="M246 0q-46 0 -76 10v1057q20 10 74 10l73 -10v-1057q-25 -10 -71 -10zM347 1380q38 0 69 58q45 -18 51 -68q-18 -41 -58 -67q-83 -53 -179 9q-52 34 -79 34t-44 -13t-33 -43q-49 27 -51 68q6 24 43 56t88 32t103 -33t90 -33z" />
    <glyph glyph-name="Imacron" unicode="&#x12a;" horiz-adv-x="544" 
d="M271 0q-50 0 -74 12v1450q25 12 75 12t76 -12v-1450q-27 -12 -77 -12zM565 1563h-579q-23 51 0 100h579q23 -47 0 -100z" />
    <glyph glyph-name="imacron" unicode="&#x12b;" horiz-adv-x="487" 
d="M246 0q-46 0 -76 10v1057q20 10 74 10l73 -10v-1057q-25 -10 -71 -10zM436 1327h-381q-14 51 0 96h381q14 -51 0 -96z" />
    <glyph glyph-name="Ibreve" unicode="&#x12c;" horiz-adv-x="544" 
d="M271 0q-50 0 -74 12v1450q25 12 75 12t76 -12v-1450q-27 -12 -77 -12zM268 1599q-88 0 -163 29t-105 58l-31 28q16 53 68 72q90 -74 231 -74q62 0 120 18t83 37l27 19q53 -15 69 -72q-11 -12 -33 -32t-100 -51q-78 -32 -166 -32z" />
    <glyph glyph-name="ibreve" unicode="&#x12d;" horiz-adv-x="487" 
d="M246 0q-46 0 -76 10v1057q20 10 74 10l73 -10v-1057q-25 -10 -71 -10zM250 1274q-94 0 -167 31t-103 61l-29 31q18 57 67 71q86 -74 224 -73q61 0 116 18t80 37l27 18q51 -14 67 -71q-4 -4 -16 -21t-92 -59q-80 -43 -174 -43z" />
    <glyph glyph-name="Iogonek" unicode="&#x12e;" horiz-adv-x="544" 
d="M133 -178q0 -51 31 -78t71 -27t82 17q27 -20 27 -66q-53 -37 -134 -37t-132 47t-51 127q0 154 170 218v1439q25 12 75 12t76 -12v-1452q-215 -55 -215 -188z" />
    <glyph glyph-name="iogonek" unicode="&#x12f;" horiz-adv-x="487" 
d="M256 -287q27 0 74 17q29 -23 24 -74q-53 -35 -135 -35t-137 43t-55 116t38 134t105 98v1055q20 10 74 10l73 -10v-1057q-82 -29 -127 -85t-45 -124q0 -88 111 -88zM250 1241q-50 0 -90 10v150q27 10 84 10l84 -10v-150q-28 -10 -78 -10z" />
    <glyph glyph-name="Idotaccent" unicode="&#x130;" horiz-adv-x="544" 
d="M271 0q-50 0 -74 12v1450q25 12 75 12t76 -12v-1450q-27 -12 -77 -12zM190 1737q27 10 82 10l84 -10v-150q-29 -10 -84 -10l-82 10v150z" />
    <glyph glyph-name="dotlessi" unicode="&#x131;" horiz-adv-x="487" 
d="M246 0q-46 0 -76 10v1057q20 10 74 10l73 -10v-1057q-25 -10 -71 -10z" />
    <glyph glyph-name="IJ" unicode="&#x132;" horiz-adv-x="1341" 
d="M1155 356q0 -377 -362 -376q-70 0 -143 15t-109 30l-37 16q-4 74 43 117q104 -43 221 -43q236 -1 236 241v1106q20 12 72 12t79 -12v-1106zM271 0q-50 0 -74 12v1450q25 12 75 12t76 -12v-1450q-27 -12 -77 -12z" />
    <glyph glyph-name="ij" unicode="&#x133;" horiz-adv-x="944" 
d="M627 -188v1255q20 10 73 10l74 -10v-1247q0 -166 -74 -249t-213 -83q-88 0 -127 18q-6 14 -6 50t17 61q33 -8 82 -8q174 0 174 203zM698 1303q-55 0 -82 12v149q27 10 84 11l82 -11v-149q-29 -12 -84 -12zM246 0q-46 0 -76 10v1057q20 10 74 10l73 -10v-1057
q-25 -10 -71 -10zM328 1311q-71 -24 -168 0v149q27 10 84 10l84 -10v-149z" />
    <glyph glyph-name="Jcircumflex" unicode="&#x134;" horiz-adv-x="884" 
d="M698 360q0 -381 -360 -380q-141 0 -252 45l-37 16q-4 72 41 117q104 -43 221 -43q236 -1 236 241v1106q20 12 76 12t75 -12v-1102zM649 1855l271 -221q-25 -57 -70 -71l-229 161l-226 -161q-51 18 -69 71l270 221h53z" />
    <glyph glyph-name="jcircumflex" unicode="&#x135;" horiz-adv-x="487" 
d="M170 -188v1255q20 10 74 10l73 -10v-1247q1 -166 -73 -249t-213 -83q-91 0 -127 18q-6 14 -6 50t16 61q33 -8 82 -8q174 0 174 203zM270 1481l265 -215q-27 -59 -70 -70l-223 158l-222 -160q-49 18 -67 72l264 215h53z" />
    <glyph glyph-name="Kcommaaccent" unicode="&#x136;" horiz-adv-x="1255" 
d="M739 -195q1 -85 -31 -157t-65 -103l-31 -28l-57 41q63 66 72 190l-54 10v150q29 10 82 10l84 -10v-103zM348 829h209l442 633q33 12 80 12t80 -12l-475 -680l535 -770q-29 -12 -87 -12t-92 12l-481 690h-211v-690q-23 -12 -75 -12t-76 12v1450q27 12 76 12t75 -12v-633z
" />
    <glyph glyph-name="kcommaaccent" unicode="&#x137;" horiz-adv-x="1019" 
d="M639 -197q0 -83 -31 -155t-63 -103l-31 -28l-57 41q61 66 71 188l-55 10v150q29 10 82 10l84 -10v-103zM987 12q-33 -12 -75 -12t-85 8l-8 4l-336 492h-172v-494q-27 -10 -71 -10l-76 10v1518q29 8 76 8l71 -8v-907h174l301 446q29 10 80 10l72 -10l-332 -494z" />
    <glyph glyph-name="kgreenlandic" unicode="&#x138;" horiz-adv-x="1038" 
d="M1006 16q-28 -16 -88 -16t-87 12l-354 496l-166 -193v-303q-31 -12 -73 -12t-74 12v1057q27 8 76 8t71 -8v-565l488 565q33 8 82 8t80 -10l-381 -440z" />
    <glyph glyph-name="Lacute" unicode="&#x139;" horiz-adv-x="1050" 
d="M348 133h641q10 -37 10 -65t-10 -68h-792v1462q27 12 76 12t75 -12v-1329zM502 1833l-256 -285q-63 6 -88 49l213 295q39 4 77 -13t54 -46z" />
    <glyph glyph-name="lacute" unicode="&#x13a;" horiz-adv-x="495" 
d="M250 0q-46 0 -76 10v1516q20 10 74 10l74 -10v-1516q-26 -10 -72 -10zM455 1876l-256 -285q-63 6 -88 49l213 295q39 4 77 -13t54 -46z" />
    <glyph glyph-name="Lcommaaccent" unicode="&#x13b;" horiz-adv-x="1050" 
d="M688 -195q0 -140 -80 -241q-19 -26 -45 -47l-57 41q63 66 72 190l-56 10v150q29 10 84 10l82 -10v-103zM348 133h641q10 -37 10 -65t-10 -68h-792v1462q27 12 76 12t75 -12v-1329z" />
    <glyph glyph-name="lcommaaccent" unicode="&#x13c;" horiz-adv-x="495" 
d="M332 -195q0 -140 -80 -241q-16 -22 -45 -47l-57 41q61 66 71 190l-55 10v150q29 10 82 10l84 -10v-103zM250 0q-46 0 -76 10v1516q20 10 74 10l74 -10v-1516q-26 -10 -72 -10z" />
    <glyph glyph-name="Lcaron" unicode="&#x13d;" horiz-adv-x="1048" 
d="M348 133h641q10 -37 10 -65t-10 -68h-792v1462q27 12 76 12t75 -12v-1329zM594 1198q-45 8 -66 45q125 109 131 291q86 6 129 -29q-12 -98 -65 -184t-129 -123z" />
    <glyph glyph-name="lcaron" unicode="&#x13e;" horiz-adv-x="512" 
d="M250 0q-46 0 -76 10v1516q20 10 74 10l74 -10v-1516q-26 -10 -72 -10zM492 1192q-49 6 -70 39q115 121 100 301q82 18 131 -14q-5 -100 -47 -190t-114 -136z" />
    <glyph glyph-name="Ldot" unicode="&#x13f;" horiz-adv-x="1067" 
d="M791 606q-50 0 -74 12v134q25 10 76 10l75 -10v-134q-27 -12 -77 -12zM348 133h641q10 -37 10 -65t-10 -68h-792v1462q27 12 76 12t75 -12v-1329z" />
    <glyph glyph-name="ldot" unicode="&#x140;" horiz-adv-x="690" 
d="M611 606q-50 0 -74 12v134q23 10 75 10l76 -10v-134q-27 -12 -77 -12zM250 0q-46 0 -76 10v1516q20 10 74 10l74 -10v-1516q-26 -10 -72 -10z" />
    <glyph glyph-name="Lslash" unicode="&#x141;" horiz-adv-x="1097" 
d="M397 133h641q18 -66 0 -133h-792v662l-168 -97q-41 31 -51 86l219 127v684q27 12 76 12t75 -12v-596l308 178q41 -33 51 -88l-359 -206v-617z" />
    <glyph glyph-name="lslash" unicode="&#x142;" horiz-adv-x="688" 
d="M344 0q-46 0 -76 10v711l-155 -88q-15 4 -33 36t-19 50l207 121v686q20 10 74 10l74 -10v-600l166 94q16 -8 32 -38t17 -50l-215 -125v-797q-26 -10 -72 -10z" />
    <glyph glyph-name="Nacute" unicode="&#x143;" horiz-adv-x="1425" 
d="M1229 12q-27 -12 -87 -12t-91 12l-607 1043q-61 101 -100 196l-10 29h-6q10 -111 10 -311v-957q-23 -12 -73 -12t-68 12v1450q61 24 138 9q27 -4 40 -9l602 -1030q62 -106 104 -205l13 -32h6q-12 131 -13 305v962q23 12 73 12t69 -12v-1450zM983 1833l-256 -285
q-63 6 -88 49l213 295q39 4 77 -13t54 -46z" />
    <glyph glyph-name="nacute" unicode="&#x144;" horiz-adv-x="1124" 
d="M245 0q-41 0 -81 10v1057q23 10 74 10l73 -10v-129q127 160 340 160q147 0 231 -84t85 -223v-781q-27 -10 -67 -10t-81 10v752q0 213 -221 213q-86 0 -164 -50t-123 -137v-778q-25 -10 -66 -10zM737 1528l-256 -285q-63 6 -88 49l213 295q39 4 77 -13t54 -46z" />
    <glyph glyph-name="Ncommaaccent" unicode="&#x145;" horiz-adv-x="1425" 
d="M811 -195q0 -85 -32 -157t-62 -103l-33 -28l-57 41q63 66 71 190l-53 10v150q29 10 82 10l84 -10v-103zM1229 12q-27 -12 -87 -12t-91 12l-607 1043q-61 101 -100 196l-10 29h-6q10 -111 10 -311v-957q-23 -12 -73 -12t-68 12v1450q61 24 138 9q27 -4 40 -9l602 -1030
q62 -106 104 -205l13 -32h6q-12 131 -13 305v962q23 12 73 12t69 -12v-1450z" />
    <glyph glyph-name="ncommaaccent" unicode="&#x146;" horiz-adv-x="1124" 
d="M657 -201q1 -83 -31 -155t-63 -103l-31 -28l-57 41q61 66 72 188l-55 10v152q29 10 83 10l82 -10v-105zM245 0q-41 0 -81 10v1057q23 10 74 10l73 -10v-129q127 160 340 160q147 0 231 -84t85 -223v-781q-27 -10 -67 -10t-81 10v752q0 213 -221 213q-86 0 -164 -50
t-123 -137v-778q-25 -10 -66 -10z" />
    <glyph glyph-name="Ncaron" unicode="&#x147;" horiz-adv-x="1425" 
d="M1229 12q-27 -12 -87 -12t-91 12l-607 1043q-61 101 -100 196l-10 29h-6q10 -111 10 -311v-957q-23 -12 -73 -12t-68 12v1450q61 24 138 9q27 -4 40 -9l602 -1030q62 -106 104 -205l13 -32h6q-12 131 -13 305v962q23 12 73 12t69 -12v-1450zM700 1563l-270 221
q20 53 70 71l229 -161l225 159q45 -14 70 -69l-270 -221h-54z" />
    <glyph glyph-name="ncaron" unicode="&#x148;" horiz-adv-x="1124" 
d="M245 0q-41 0 -81 10v1057q23 10 74 10l73 -10v-129q127 160 340 160q147 0 231 -84t85 -223v-781q-27 -10 -67 -10t-81 10v752q0 213 -221 213q-86 0 -164 -50t-123 -137v-778q-25 -10 -66 -10zM575 1364l207 147q41 -10 66 -65l-248 -203h-47l-250 203q20 53 64 67z" />
    <glyph glyph-name="napostrophe" unicode="&#x149;" horiz-adv-x="1124" 
d="M245 0q-41 0 -81 10v1057q23 10 74 10l73 -10v-129q127 160 340 160q147 0 231 -84t85 -223v-781q-27 -10 -67 -10t-81 10v752q0 213 -221 213q-86 0 -164 -50t-123 -137v-778q-25 -10 -66 -10zM219 1198q-45 8 -65 45q125 109 131 291q86 6 129 -29q-12 -98 -66 -184
t-129 -123z" />
    <glyph glyph-name="Eng" unicode="&#x14a;" horiz-adv-x="1425" 
d="M1229 -98q0 -152 -53 -239t-187 -130q-53 35 -47 111q76 29 108 85t31 171v104l-30 8l-607 1043q-61 101 -100 196l-10 29h-6q10 -111 10 -311v-957q-23 -12 -73 -12t-68 12v1450q61 24 138 9q27 -4 40 -9l602 -1030q62 -106 104 -205l13 -32h6q-12 131 -13 305v962
q23 12 73 12t69 -12v-1560z" />
    <glyph glyph-name="eng" unicode="&#x14b;" horiz-adv-x="1124" 
d="M245 0q-41 0 -81 10v1057q23 10 74 10l73 -10v-129q127 160 340 160q147 0 231 -84t85 -223v-889q1 -152 -53 -239t-187 -130q-53 37 -49 109q78 27 110 85t31 173v862q0 213 -221 213q-86 0 -164 -50t-123 -137v-778q-25 -10 -66 -10z" />
    <glyph glyph-name="Omacron" unicode="&#x14c;" horiz-adv-x="1388" 
d="M1098 737q0 339 -104 485t-300 146q-197 0 -300 -146t-103 -484t103 -485t300 -147q196 0 300 146t104 485zM131 737q1 385 147 571t416 187q270 0 416 -185t147 -573q0 -758 -563 -757q-563 -1 -563 757zM420 1720h563q16 -45 0 -100h-563q-16 51 0 100z" />
    <glyph glyph-name="omacron" unicode="&#x14d;" horiz-adv-x="1110" 
d="M842 539q0 244 -73 343t-214 99t-214 -99t-73 -343t73 -343q73 -100 214 -100t214 100t73 343zM117 539q0 295 111 427q112 132 327 132t327 -132t112 -427t-112 -427t-327 -132t-327 132q-111 132 -111 427zM305 1421h496q16 -49 0 -100h-496q-14 53 0 100z" />
    <glyph glyph-name="Obreve" unicode="&#x14e;" horiz-adv-x="1388" 
d="M1098 737q0 339 -104 485t-300 146q-197 0 -300 -146t-103 -484t103 -485t300 -147q196 0 300 146t104 485zM131 737q1 385 147 571t416 187q270 0 416 -185t147 -573q0 -758 -563 -757q-563 -1 -563 757zM698 1712q62 0 120 18t83 37l27 19q53 -14 69 -72
q-11 -12 -33 -32t-100 -51q-78 -32 -167 -32t-163 29t-104 58l-31 28q16 53 68 72q90 -74 231 -74z" />
    <glyph glyph-name="obreve" unicode="&#x14f;" horiz-adv-x="1110" 
d="M842 539q0 244 -73 343t-214 99t-214 -99t-73 -343t73 -343q73 -100 214 -100t214 100t73 343zM117 539q0 295 111 427q112 132 327 132t327 -132t112 -427t-112 -427t-327 -132t-327 132q-111 132 -111 427zM553 1401q61 0 117 18t80 39l26 19q51 -14 68 -74
q-10 -13 -32 -33t-98 -54t-161 -34q-86 0 -159 31t-103 59l-29 31q18 55 68 74q86 -76 223 -76z" />
    <glyph glyph-name="Ohungarumlaut" unicode="&#x150;" horiz-adv-x="1388" 
d="M1098 737q0 339 -104 485t-300 146q-197 0 -300 -146t-103 -484t103 -485t300 -147q196 0 300 146t104 485zM131 737q1 385 147 571t416 187q270 0 416 -185t147 -573q0 -758 -563 -757q-563 -1 -563 757zM762 1606l184 272q90 6 133 -57l-231 -262q-59 10 -86 47z
M453 1606l182 272q88 6 135 -57l-231 -262q-63 10 -86 47z" />
    <glyph glyph-name="ohungarumlaut" unicode="&#x151;" horiz-adv-x="1110" 
d="M842 539q0 244 -73 343t-214 99t-214 -99t-73 -343t73 -343q73 -100 214 -100t214 100t73 343zM117 539q0 295 111 427q112 132 327 132t327 -132t112 -427t-112 -427t-327 -132t-327 132q-111 132 -111 427zM643 1282l188 246q84 6 130 -49l-236 -240q-59 10 -82 43z
M344 1282l191 246q82 6 127 -49l-236 -240q-59 10 -82 43z" />
    <glyph glyph-name="OE" unicode="&#x152;" horiz-adv-x="1746" 
d="M711 1368q-203 0 -312 -146t-109 -484t110 -485q108 -146 311 -147q104 0 182 33v1196q-78 33 -182 33zM711 -20q-279 0 -429 186t-151 572q0 386 151 572t429 185q86 0 176 -20h733q12 -29 12 -65t-12 -62h-576v-539h474q12 -27 12 -61t-12 -64h-474v-557h596
q26 -67 0 -127h-755q-90 -20 -174 -20z" />
    <glyph glyph-name="oe" unicode="&#x153;" horiz-adv-x="1685" 
d="M1423 602l9 117q0 115 -54 187t-174 71q-236 0 -256 -375h475zM549 981q-137 0 -208 -99t-71 -343t71 -343q71 -100 207 -100t198 98t63 347q0 248 -61 344q-62 96 -199 96zM549 -20q-432 0 -432 559t432 559q246 0 332 -224q92 223 323 224q180 0 278 -106t99 -292
q0 -92 -16 -184l-6 -24h-611q10 -209 78 -298t207 -90q66 0 126 16t87 34l29 16q45 -29 51 -100q-12 -10 -35 -26t-106 -40q-83 -25 -179 -24q-240 0 -327 221q-90 -221 -330 -221z" />
    <glyph glyph-name="Racute" unicode="&#x154;" horiz-adv-x="1271" 
d="M348 1346v-582h342q131 0 205 77t74 214t-74 214t-205 77h-342zM272 0q-51 0 -75 12v1463h508q195 0 309 -115t114 -288q0 -172 -78 -280t-216 -141l354 -639q-32 -12 -80 -12t-88 8l-8 4l-344 623h-320v-623q-25 -12 -76 -12zM444 1597l213 295q39 4 77 -13t54 -46
l-256 -285q-63 6 -88 49z" />
    <glyph glyph-name="racute" unicode="&#x155;" horiz-adv-x="800" 
d="M229 1077q42 0 82 -10v-168q109 197 277 197q100 0 176 -49q-8 -78 -68 -125q-63 41 -136 41q-74 1 -138 -55t-111 -150v-748q-23 -10 -65 -10t-82 10v1057q23 10 65 10zM291 1292l213 295q39 4 77 -13t54 -46l-256 -285q-63 6 -88 49z" />
    <glyph glyph-name="Rcommaaccent" unicode="&#x156;" horiz-adv-x="1271" 
d="M739 -195q1 -85 -31 -157t-65 -103l-31 -28l-57 41q63 66 72 190l-54 10v150q29 10 82 10l84 -10v-103zM348 1346v-582h342q131 0 205 77t74 214t-74 214t-205 77h-342zM272 0q-51 0 -75 12v1463h508q195 0 309 -115t114 -288q0 -172 -78 -280t-216 -141l354 -639
q-32 -12 -80 -12t-88 8l-8 4l-344 623h-320v-623q-25 -12 -76 -12z" />
    <glyph glyph-name="rcommaaccent" unicode="&#x157;" horiz-adv-x="800" 
d="M322 -195q0 -127 -81 -241q-17 -25 -32 -35l-12 -12l-58 41q63 66 72 190l-55 10v150q29 10 84 10l82 -10v-103zM229 1077q42 0 82 -10v-168q121 197 277 197q100 0 176 -49q-8 -78 -68 -125q-63 41 -139 41q-127 0 -246 -205v-748q-23 -10 -65 -10t-82 10v1057
q23 10 65 10z" />
    <glyph glyph-name="Rcaron" unicode="&#x158;" horiz-adv-x="1271" 
d="M348 1346v-582h342q131 0 205 77t74 214t-74 214t-205 77h-342zM272 0q-51 0 -75 12v1463h508q195 0 309 -115t114 -288q0 -172 -78 -280t-216 -141l354 -639q-32 -12 -80 -12t-88 8l-8 4l-344 623h-320v-623q-25 -12 -76 -12zM596 1694l225 159q45 -14 70 -69l-270 -221
h-54l-270 221q20 53 70 71z" />
    <glyph glyph-name="rcaron" unicode="&#x159;" horiz-adv-x="800" 
d="M229 1077q42 0 82 -10v-168q121 197 277 197q100 0 176 -49q-8 -78 -68 -125q-63 41 -139 41q-127 0 -246 -205v-748q-23 -10 -65 -10t-82 10v1057q23 10 65 10zM416 1356l207 147q39 -14 63 -65l-248 -205h-47l-250 205q20 49 66 67z" />
    <glyph glyph-name="Sacute" unicode="&#x15a;" horiz-adv-x="1157" 
d="M630 1364q-177 0 -266 -70q-90 -70 -90 -196t105 -187q115 -66 283 -106q88 -27 146 -53t120 -73q124 -92 123 -288q0 -195 -130 -303t-370 -108q-115 0 -223 20t-156 41l-49 20q-4 78 39 121q186 -63 370 -63q364 0 363 272q0 130 -101 195q-79 50 -187 81
q-241 69 -325 122t-106 96q-53 103 -53 202q0 188 125 298t360 110q104 0 202 -14t140 -27l45 -14q0 -78 -41 -119q-147 43 -324 43zM825 1837l-252 -264q-63 10 -86 53l209 277q39 3 76 -17t53 -49z" />
    <glyph glyph-name="sacute" unicode="&#x15b;" horiz-adv-x="909" 
d="M113 786q0 144 94 228t276 84q82 0 151 -12t97 -25l29 -14q4 -70 -41 -109q-98 35 -219 35q-244 0 -244 -180q0 -53 39 -91t83 -55q44 -16 129 -40t134 -47t73 -45q24 -23 50 -53q48 -56 49 -167q0 -150 -95 -233t-280 -82q-90 0 -172 17t-119 36l-36 16q-4 72 41 111
q133 -51 260 -51q252 0 254 182q0 59 -39 100t-75 55q-56 22 -161 52q-106 30 -169 73q-62 45 -86 95t-23 120zM653 1528l-256 -285q-63 6 -88 49l213 295q39 4 77 -13t54 -46z" />
    <glyph glyph-name="Scircumflex" unicode="&#x15c;" horiz-adv-x="1155" 
d="M630 1364q-177 0 -266 -70q-90 -70 -90 -197t111 -190q111 -64 281 -104q163 -51 263 -125q122 -92 122 -287t-130 -303t-370 -108q-115 0 -223 20t-156 41l-49 20q-4 78 39 121q186 -63 370 -63q364 0 363 272q0 98 -54 154t-114 80q-61 24 -92 33q-141 41 -216 67
q-149 52 -210 120q-88 95 -86 242q0 188 125 298t360 110q104 0 202 -14t140 -27l45 -14q0 -76 -41 -119q-147 43 -324 43zM629 1868l268 -221q-20 -55 -68 -72l-229 162l-225 -162q-49 18 -72 72l272 221h54z" />
    <glyph glyph-name="scircumflex" unicode="&#x15d;" horiz-adv-x="909" 
d="M113 786q0 144 94 228t276 84q82 0 151 -12t97 -25l29 -14q4 -70 -41 -109q-98 35 -219 35q-244 0 -244 -180q0 -51 41 -91t77 -52q36 -14 81 -28t49 -16t42 -14q97 -29 170 -80q99 -69 98 -218t-96 -232t-280 -82q-90 0 -172 17t-119 36l-36 16q-4 72 41 111
q133 -51 260 -51q252 0 254 182q0 65 -41 109t-161 77t-163 51q-123 51 -164 137q-24 51 -24 121zM496 1505l264 -215q-25 -55 -68 -69l-223 157l-221 -157q-49 18 -68 69l264 215h52z" />
    <glyph glyph-name="Scedilla" unicode="&#x15e;" horiz-adv-x="1157" 
d="M807 -307q0 -203 -240 -203q-49 0 -95 11t-66 24l-23 12q0 47 35 72q66 -33 143 -33q141 0 141 119q0 106 -127 106h-71l-21 25l29 154q-106 4 -204 24t-140 39l-45 18q-4 78 39 121q186 -63 370 -63q364 0 363 272q0 151 -142 221q-57 29 -216 74q-298 84 -366 209
q-48 88 -48 192q0 188 125 298t360 110q104 0 202 -14t140 -27l45 -14q0 -78 -41 -119q-147 43 -324 43t-266 -70t-90 -198q0 -86 45 -134q19 -20 31 -32t42 -26t52 -28q22 -13 69 -26q47 -14 91 -28t96 -30q128 -38 228 -113q123 -93 123 -281q0 -189 -116 -297t-331 -121
l-18 -99q221 0 221 -188z" />
    <glyph glyph-name="scedilla" unicode="&#x15f;" horiz-adv-x="909" 
d="M113 786q0 144 94 228t276 84q82 0 151 -12t97 -25l29 -14q4 -70 -41 -109q-98 35 -219 35q-244 0 -244 -180q0 -83 79 -123q51 -28 145 -56t136 -46q132 -56 171 -142q26 -55 26 -131q0 -139 -83 -221t-245 -94l-18 -97q215 0 215 -180q0 -96 -60 -146q-60 -51 -167 -51
t-166 35l-21 13q0 43 35 67q66 -33 139 -33q139 0 140 117q0 102 -125 102h-70l-20 23l28 150q-79 4 -151 21t-103 32l-30 16q-4 72 41 111q133 -51 260 -51q252 0 254 182q0 109 -127 160q-31 11 -113 35t-126 42q-121 49 -163 137q-24 51 -24 121z" />
    <glyph glyph-name="Scaron" unicode="&#x160;" horiz-adv-x="1157" 
d="M630 1364q-177 0 -266 -70q-90 -70 -90 -206t145 -200q68 -31 139 -52t74 -22t29 -5t111 -42q86 -38 151 -84q128 -91 128 -289t-130 -306t-370 -108q-115 0 -223 20t-156 41l-49 20q0 72 39 121q186 -63 370 -63q364 0 363 272q0 151 -145 221q-76 37 -178 66
q-101 29 -144 43t-113 49q-69 35 -103 72t-61 100q-28 63 -28 145q0 188 125 298t360 110q104 0 202 -14t140 -27l45 -14q0 -76 -41 -119q-147 43 -324 43zM588 1585l-273 215q25 57 72 72l227 -162l226 160q47 -12 69 -70l-268 -215h-53z" />
    <glyph glyph-name="scaron" unicode="&#x161;" horiz-adv-x="909" 
d="M113 786q0 144 94 228t276 84q82 0 151 -12t97 -25l29 -14q4 -70 -41 -109q-98 35 -219 35q-244 0 -244 -180q0 -82 76 -122q55 -31 139 -55t117 -35t82 -38q143 -79 143 -238q0 -160 -95 -243t-280 -82q-90 0 -172 17t-119 36l-36 16q-4 72 41 111q133 -51 260 -51
q252 0 254 182q0 59 -40 101t-75 55q-40 15 -169 53q-192 56 -245 165q-24 51 -24 121zM451 1241l-246 201q20 49 65 63l205 -145l205 145q41 -14 61 -63l-241 -201h-49z" />
    <glyph glyph-name="Tcommaaccent" unicode="&#x162;" horiz-adv-x="1103" 
d="M649 -219q0 -84 -32 -156t-62 -100l-31 -31l-57 41q63 66 72 189l-56 10v149q29 10 84 11l82 -11v-102zM552 0q-54 0 -71 12v1329h-409q-20 45 -13 81q6 36 11 44l2 9h960q12 -25 12 -66t-12 -68h-399v-1329q-27 -12 -81 -12z" />
    <glyph glyph-name="Tcommaaccent" unicode="&#x21a;" horiz-adv-x="1103" 
d="M649 -219q0 -84 -32 -156t-62 -100l-31 -31l-57 41q63 66 72 189l-56 10v149q29 10 84 11l82 -11v-102zM552 0q-54 0 -71 12v1329h-409q-20 45 -13 81q6 36 11 44l2 9h960q12 -25 12 -66t-12 -68h-399v-1329q-27 -12 -81 -12z" />
    <glyph glyph-name="tcommaaccent" unicode="&#x163;" horiz-adv-x="753" 
d="M575 -248q1 -84 -31 -156t-63 -100l-30 -31l-58 39q63 66 72 191l-55 10v150q29 10 84 10l81 -10v-103zM375 961v-588q0 -147 48 -209t169 -62l100 11q12 -25 13 -62l-9 -55q-55 -16 -143 -16q-176 0 -251 96t-75 291v594h-159q-17 33 -12 69q5 35 10 41l2 6h159v195
q57 39 148 33v-228h293q10 -20 10 -57l-10 -59h-293z" />
    <glyph glyph-name="tcommaaccent" unicode="&#x21b;" horiz-adv-x="753" 
d="M575 -248q1 -84 -31 -156t-63 -100l-30 -31l-58 39q63 66 72 191l-55 10v150q29 10 84 10l81 -10v-103zM375 961v-588q0 -147 48 -209t169 -62l100 11q12 -25 13 -62l-9 -55q-55 -16 -143 -16q-176 0 -251 96t-75 291v594h-159q-17 33 -12 69q5 35 10 41l2 6h159v195
q57 39 148 33v-228h293q10 -20 10 -57l-10 -59h-293z" />
    <glyph glyph-name="Tcaron" unicode="&#x164;" horiz-adv-x="1103" 
d="M552 0q-54 0 -71 12v1329h-409q-20 45 -13 81q6 36 11 44l2 9h960q12 -25 12 -66t-12 -68h-399v-1329q-27 -12 -81 -12zM532 1563l-270 221q20 53 70 71l229 -161l225 159q45 -14 70 -69l-270 -221h-54z" />
    <glyph glyph-name="tcaron" unicode="&#x165;" horiz-adv-x="753" 
d="M375 961v-588q0 -147 48 -209t169 -62l100 11q12 -25 13 -62l-9 -55q-55 -16 -143 -16q-176 0 -251 96t-75 291v594h-159q-17 33 -12 69q5 35 10 41l2 6h159v195q57 39 148 33v-228h293q10 -20 10 -57l-10 -59h-293zM614 1198q-45 8 -65 45q125 109 131 291q86 6 129 -29
q-11 -98 -65 -184t-130 -123z" />
    <glyph glyph-name="Tbar" unicode="&#x166;" horiz-adv-x="1134" 
d="M1059 1422q0 -28 -12 -81h-400v-587h268q14 -43 0 -101h-268v-641q-27 -12 -77 -12t-74 12v641h-275q-12 53 0 101h275v587h-410q-12 27 -12 67t12 67h961q12 -25 12 -53z" />
    <glyph glyph-name="tbar" unicode="&#x167;" horiz-adv-x="759" 
d="M557 -20q-176 0 -251 96t-75 291v165h-137q-12 51 0 99h137v330h-159q-17 33 -12 69q5 35 10 41l2 6h159v195q57 39 148 33v-228h293q10 -20 10 -57l-10 -59h-293v-330h276q14 -43 0 -99h-276v-159q0 -147 48 -209t169 -62l100 11q12 -25 13 -62l-9 -55q-55 -16 -143 -16
z" />
    <glyph glyph-name="Utilde" unicode="&#x168;" horiz-adv-x="1368" 
d="M1184 481q0 -237 -136 -369t-364 -132t-362 133q-135 133 -136 368v981q27 12 80 12t72 -12v-1003q0 -166 92 -258t257 -92t256 92t91 258v1003q24 12 74 12t76 -12v-981zM601 1741q55 0 119 -35t108 -35t83 55q47 -18 62 -67q-7 -11 -17 -25t-53 -39t-96 -25t-118 36
q-65 34 -97 34t-56 -14t-32 -29l-10 -14q-49 20 -62 66q6 10 18 25t54 41q43 26 97 26z" />
    <glyph glyph-name="utilde" unicode="&#x169;" horiz-adv-x="1122" 
d="M223 1077q40 0 80 -10v-752q0 -213 223 -213q84 0 161 50t124 137v778q25 10 66 10t81 -10v-1057q-23 -10 -73 -10l-74 10v129q-127 -160 -340 -159q-147 0 -231 84t-84 223v780q27 10 67 10zM434 1360q-47 0 -84 -62q-53 25 -61 70q6 10 17 26t55 44q93 57 219 -8
q66 -35 102 -35q58 0 92 59q49 -16 64 -70q-6 -10 -18 -25t-55 -42q-44 -27 -99 -27t-120 35t-112 35z" />
    <glyph glyph-name="Umacron" unicode="&#x16a;" horiz-adv-x="1368" 
d="M1184 481q0 -237 -136 -369t-364 -132t-362 133q-135 133 -136 368v981q27 12 80 12t72 -12v-1003q0 -166 92 -258t257 -92t256 92t91 258v1003q24 12 74 12t76 -12v-981zM979 1618h-580q-18 51 0 100h580q16 -49 0 -100z" />
    <glyph glyph-name="umacron" unicode="&#x16b;" horiz-adv-x="1122" 
d="M223 1077q40 0 80 -10v-752q0 -213 223 -213q84 0 161 50t124 137v778q25 10 66 10t81 -10v-1057q-23 -10 -73 -10l-74 10v129q-127 -160 -340 -159q-147 0 -231 84t-84 223v780q27 10 67 10zM326 1432h473q18 -39 0 -95h-473q-16 52 0 95z" />
    <glyph glyph-name="Ubreve" unicode="&#x16c;" horiz-adv-x="1368" 
d="M1184 481q0 -237 -136 -369t-364 -132t-362 133q-135 133 -136 368v981q27 12 80 12t72 -12v-1003q0 -166 92 -258t257 -92t256 92t91 258v1003q24 12 74 12t76 -12v-981zM685 1599q-89 0 -164 29t-105 58l-31 28q16 53 70 72q90 -74 231 -74q62 0 120 18t83 37l26 19
q56 -17 68 -72q-12 -12 -34 -32q-23 -20 -99 -51q-76 -32 -165 -32z" />
    <glyph glyph-name="ubreve" unicode="&#x16d;" horiz-adv-x="1122" 
d="M223 1077q40 0 80 -10v-752q0 -213 223 -213q84 0 161 50t124 137v778q25 10 66 10t81 -10v-1057q-23 -10 -73 -10l-74 10v129q-127 -160 -340 -159q-147 0 -231 84t-84 223v780q27 10 67 10zM557 1397q61 0 117 18t80 37l26 18q55 -16 68 -71q-4 -4 -17 -21t-66 -46
q-103 -56 -199 -56q-95 0 -168 31t-103 61l-29 31q18 55 68 71q86 -73 223 -73z" />
    <glyph glyph-name="Uring" unicode="&#x16e;" horiz-adv-x="1368" 
d="M1184 481q0 -237 -136 -369t-364 -132t-362 133q-135 133 -136 368v981q27 12 80 12t72 -12v-1003q0 -166 92 -258t257 -92t256 92t91 258v1003q24 12 74 12t76 -12v-981zM834 1793q0 56 -38 95t-107 39t-105 -40t-37 -96q0 -56 37 -96q38 -40 106 -40t106 41t38 97z
M688 1567q-104 0 -171 60q-67 61 -67 165t71 162q71 57 169 57t170 -57q72 -58 72 -162t-70 -164t-174 -61z" />
    <glyph glyph-name="uring" unicode="&#x16f;" horiz-adv-x="1122" 
d="M223 1077q40 0 80 -10v-752q0 -213 223 -213q84 0 161 50t124 137v778q25 10 66 10t81 -10v-1057q-23 -10 -73 -10l-74 10v129q-127 -160 -340 -159q-147 0 -231 84t-84 223v780q27 10 67 10zM702 1437q0 56 -37 95q-38 39 -107 39q-70 0 -106 -40t-36 -96q0 -57 37 -97
t105 -40t107 41q37 42 37 98zM319 1436q0 104 71 161t169 57t170 -56q72 -58 72 -162t-70 -164t-174 -62q-104 0 -171 61t-67 165z" />
    <glyph glyph-name="Uhungarumlaut" unicode="&#x170;" horiz-adv-x="1368" 
d="M1184 481q0 -237 -136 -369t-364 -132t-362 133q-135 133 -136 368v981q27 12 80 12t72 -12v-1003q0 -166 92 -258t257 -92t256 92t91 258v1003q24 12 74 12t76 -12v-981zM1087 1825l-239 -269q-61 6 -86 48l190 278q92 6 135 -57zM774 1825l-239 -269q-61 6 -86 48
l190 278q92 6 135 -57z" />
    <glyph glyph-name="uhungarumlaut" unicode="&#x171;" horiz-adv-x="1122" 
d="M877 1077q41 0 81 -10v-1057q-23 -10 -73 -10l-74 10v129q-127 -160 -340 -159q-147 0 -231 84t-84 223v780q27 10 67 10t80 -10v-752q0 -213 223 -213q84 0 161 50t124 137v778q25 10 66 10zM940 1503l-235 -262q-57 6 -84 45l190 270q84 6 129 -53zM641 1503l-238 -262
q-55 6 -81 45l190 270q86 6 129 -53z" />
    <glyph glyph-name="Uogonek" unicode="&#x172;" horiz-adv-x="1366" 
d="M1182 481q0 -197 -96 -323t-261 -162q-201 -57 -200 -186q1 -51 31 -78t72 -27t81 16q27 -20 27 -65q-53 -37 -134 -37t-133 47q-51 47 -51 127q0 119 109 189q-205 16 -324 147t-119 352v981q26 12 76 12t76 -12v-1003q0 -166 92 -258t257 -92t256 92t91 258v1003
q24 12 74 12t76 -12v-981z" />
    <glyph glyph-name="uogonek" unicode="&#x173;" horiz-adv-x="1124" 
d="M230 1077q45 0 75 -10v-752q0 -213 223 -213q84 0 161 50t124 137v778q25 10 69 10t79 -10v-1057q-81 -25 -133 -82t-52 -131q0 -80 109 -80q39 0 65 13l8 2q27 -20 27 -72q-53 -35 -134 -35t-132 42t-51 115t40 134t107 96l-2 127q-127 -160 -340 -159q-151 0 -233 84
t-82 223v780q27 10 72 10z" />
    <glyph glyph-name="Wcircumflex" unicode="&#x174;" horiz-adv-x="1959" 
d="M562 0q-52 0 -85 12l-420 1450q53 25 148 4l6 -4l305 -1046l53 -238h6q12 111 46 236l292 1048q50 26 148 4l6 -4l291 -1046q31 -127 39 -207l4 -31h6q12 102 51 236l297 1048q51 24 133 4l8 -4l-409 -1450q-31 -12 -85 -12t-83 12l-285 1037q-32 127 -43 221l-2 26h-6
q-6 -86 -45 -247l-287 -1037q-37 -12 -89 -12zM1020 1855l270 -221q-25 -57 -69 -71l-230 161l-225 -161q-51 18 -70 71l271 221h53z" />
    <glyph glyph-name="wcircumflex" unicode="&#x175;" horiz-adv-x="1626" 
d="M469 0q-31 0 -82 10l-328 1057q25 10 73 10t69 -10l225 -717q25 -86 41 -186h6q14 92 45 186l225 717q33 10 78 10l74 -10l221 -713q23 -74 41 -190h6q10 70 47 188l224 715q25 10 64 10t69 -10l-328 -1057q-55 -10 -80 -10t-80 10l-198 629q-57 190 -62 272h-6
q-10 -100 -68 -272l-198 -629q-47 -10 -78 -10zM848 1520l264 -217q-23 -57 -68 -68l-223 156l-221 -158q-45 16 -68 70l265 217h51z" />
    <glyph glyph-name="Ycircumflex" unicode="&#x176;" horiz-adv-x="1286" 
d="M640 0q-52 0 -75 12v604l-516 846q61 24 138 9q27 -4 40 -9l422 -686l432 686q49 24 126 9q27 -4 40 -9l-530 -841v-609q-25 -12 -77 -12zM686 1855l270 -221q-20 -57 -69 -71l-228 161l-225 -161q-49 18 -72 71l271 221h53z" />
    <glyph glyph-name="ycircumflex" unicode="&#x177;" horiz-adv-x="1073" 
d="M266 -512q-56 0 -104 16q-12 25 -12 65t14 54q38 -10 98 -10t102 44t85 173l61 172q-23 0 -49 10l-410 1055q27 10 78 10l78 -10l276 -702l74 -220h6q23 90 66 220l241 702q23 10 74 10l74 -10l-434 -1266q-55 -165 -122 -239t-196 -74zM561 1520l264 -217
q-23 -57 -67 -68l-223 156l-222 -158q-49 18 -67 70l264 217h51z" />
    <glyph glyph-name="Ydieresis" unicode="&#x178;" horiz-adv-x="1286" 
d="M640 0q-52 0 -75 12v604l-516 846q61 24 138 9q27 -4 40 -9l422 -686l432 686q49 24 126 9q27 -4 40 -9l-530 -841v-609q-25 -12 -77 -12zM812 1585q-48 0 -77 10v134q25 10 76 10l76 -10v-134q-27 -10 -75 -10zM489 1585q-47 0 -77 10v134q25 10 75 10l76 -10v-134
q-27 -10 -74 -10z" />
    <glyph glyph-name="Zacute" unicode="&#x179;" horiz-adv-x="1198" 
d="M1083 1409q0 -41 -12 -70l-811 -1204h838q10 -31 10 -69t-10 -66h-1008q-10 41 -10 71t10 64l807 1204h-750q-10 41 -10 73t10 63h924q12 -25 12 -66zM489 1610l203 282q39 4 77 -13t54 -46l-243 -272q-64 10 -91 49z" />
    <glyph glyph-name="zacute" unicode="&#x17a;" horiz-adv-x="944" 
d="M846 76q0 -28 -12 -76h-740q-10 25 -10 65t10 60l580 827h-539q-10 23 -10 64l10 61h696q19 -60 0 -125l-579 -827h582q12 -21 12 -49zM715 1528l-256 -285q-63 6 -88 49l211 295q39 4 77 -13t56 -46z" />
    <glyph glyph-name="Zdotaccent" unicode="&#x17b;" horiz-adv-x="1198" 
d="M1083 1409q0 -41 -12 -70l-811 -1204h838q10 -31 10 -69t-10 -66h-1008q-10 41 -10 71t10 64l807 1204h-750q-10 41 -10 73t10 63h924q12 -25 12 -66zM524 1747q25 8 78 8l78 -8v-139q-46 -17 -93 -12q-48 5 -55 10l-8 2v139z" />
    <glyph glyph-name="zdotaccent" unicode="&#x17c;" horiz-adv-x="944" 
d="M846 76q0 -28 -12 -76h-740q-10 25 -10 65t10 60l580 827h-539q-10 23 -10 64l10 61h696q19 -60 0 -125l-579 -827h582q12 -21 12 -49zM495 1305q-49 0 -79 10v139q25 8 78 8l77 -8v-139q-27 -10 -76 -10z" />
    <glyph glyph-name="Zcaron" unicode="&#x17d;" horiz-adv-x="1198" 
d="M1083 1409q0 -41 -12 -70l-811 -1204h838q10 -31 10 -69t-10 -66h-1008q-10 41 -10 71t10 64l807 1204h-750q-10 41 -10 73t10 63h924q12 -25 12 -66zM610 1694l226 159q45 -14 69 -69l-270 -221h-53l-271 221q20 53 70 71z" />
    <glyph glyph-name="zcaron" unicode="&#x17e;" horiz-adv-x="944" 
d="M846 76q0 -28 -12 -76h-740q-10 37 -10 66t10 59l580 827h-539q-10 23 -10 64l10 61h696q19 -60 0 -125l-579 -827h582q12 -21 12 -49zM467 1233l-246 201q23 47 64 65l207 -147l204 145q35 -10 62 -63l-244 -201h-47z" />
    <glyph glyph-name="longs" unicode="&#x17f;" horiz-adv-x="569" 
d="M300 0q-42 0 -83 10v951h-145q-12 61 0 116h145v123q0 162 74 249t250 87q115 0 184 -25l25 -10q0 -68 -39 -108q-63 23 -165 23t-142 -50q-39 -50 -39 -156v-1200q-23 -10 -65 -10z" />
    <glyph glyph-name="florin" unicode="&#x192;" horiz-adv-x="913" 
d="M117 -289q-98 0 -170 33l-23 10q0 61 39 99q66 -23 146 -23q79 0 121 43t53 147l79 814h-182q-10 20 -10 57l10 53h193l16 156q16 162 86 238t217 77q101 0 172 -26l23 -11q0 -57 -37 -100q-68 22 -149 22t-121 -44t-50 -152l-14 -160h191q10 -20 10 -55l-10 -55h-203
l-78 -807q-16 -162 -89 -239t-220 -77z" />
    <glyph glyph-name="Aringacute" unicode="&#x1fa;" horiz-adv-x="1327" 
d="M940 530l-238 627l-40 141h-7q-12 -61 -41 -141l-237 -627h563zM805 1620q0 55 -39 94t-108 39q-70 0 -106 -39t-36 -95t37 -96t105 -40t108 41q39 41 39 96zM563 1419q-143 39 -143 213q0 90 70 149q71 58 168 58t170 -58t73 -161q0 -150 -139 -197l528 -1411
q-27 -12 -73 -12t-78 8l-6 4l-148 391h-653l-150 -391q-25 -12 -73 -12t-72 12zM913 2111l-239 -213q-61 10 -82 37l199 222q81 5 122 -46z" />
    <glyph glyph-name="aringacute" unicode="&#x1fb;" horiz-adv-x="1054" 
d="M502 520q-254 0 -254 -211t211 -211q133 0 212 91t79 233v82q-188 16 -248 16zM534 1098q202 0 283 -100q80 -100 80 -314v-674q-18 -10 -59 -10l-60 10l-22 154q-88 -184 -344 -184q-145 0 -232 85q-86 85 -86 242q0 319 387 320q131 0 269 -17v115q0 131 -58 188
t-185 57q-128 0 -249 -36l-37 -14q-45 22 -45 108q156 70 358 70zM666 1390q0 50 -36 86t-100 36t-98 -36q-35 -36 -35 -86t35 -87q34 -37 98 -37t100 37t36 87zM297 1390q0 99 69 153q70 54 164 54t165 -55t71 -152q0 -96 -69 -154t-170 -58t-166 56q-64 57 -64 156z
M403 1686l199 221q82 6 123 -45l-240 -213q-62 10 -82 37z" />
    <glyph glyph-name="AEacute" unicode="&#x1fc;" horiz-adv-x="1757" 
d="M920 516v727l-437 -727h437zM97 0q-52 0 -79 12l887 1463h725q29 -66 0 -127h-567v-539h465q25 -68 0 -127h-465v-555h588q25 -63 0 -127h-731v389h-514l-226 -377q-31 -12 -83 -12zM1462 1833l-256 -285q-63 6 -88 49l211 295q39 4 77 -13t56 -46z" />
    <glyph glyph-name="aeacute" unicode="&#x1fd;" horiz-adv-x="1587" 
d="M713 508h-226q-127 0 -184 -48t-57 -152t50 -157q50 -52 140 -53q127 0 202 86t75 232v92zM1335 719q0 258 -217 258q-244 0 -260 -359h469q8 35 8 101zM1485 700q0 -112 -17 -168l-6 -24h-604q20 -403 287 -404q66 0 124 16t83 34l26 16q45 -31 52 -100
q-34 -34 -124 -63q-90 -28 -182 -27q-137 0 -225 68t-121 175q-31 -104 -125 -174q-93 -69 -243 -69t-233 85t-83 242q0 311 373 311h246v113q1 129 -53 184t-178 55t-228 -36l-35 -14q-43 39 -43 108q145 70 330 70q237 -1 303 -189q96 188 309 189q176 0 272 -104t95 -294
zM993 1528l-256 -285q-63 6 -90 49l213 295q39 4 77 -13t56 -46z" />
    <glyph glyph-name="Oslashacute" unicode="&#x1fe;" horiz-adv-x="1388" 
d="M436 203q96 -96 258 -97q197 0 300 146q104 146 104 476q0 328 -103 478zM694 1368q-403 0 -403 -598q0 -306 78 -451l546 984q-90 65 -221 65zM1257 737q0 -758 -563 -757q-197 0 -327 100l-93 -166q-25 -10 -67 -10l-66 10l140 248q-150 190 -150 575q1 385 147 571
t416 187q172 0 287 -74l76 138q23 12 61 12t74 -12l-117 -209q182 -188 182 -613zM961 1855l-256 -284q-63 6 -89 49l211 295q39 5 77 -13t57 -47z" />
    <glyph glyph-name="oslashacute" unicode="&#x1ff;" horiz-adv-x="1110" 
d="M555 96q287 0 287 414q0 215 -54 317l-393 -686q63 -45 160 -45zM555 981q-141 0 -214 -99q-73 -98 -73 -322t64 -320l395 688q-68 53 -172 53zM995 541q-1 -295 -113 -428t-327 -133q-133 0 -227 51l-72 -123q-55 2 -92 47l80 139q-127 138 -127 438t112 433
q113 133 326 133q144 -1 238 -60l75 131q53 -6 95 -47l-89 -147q121 -139 121 -434zM733 1528l-256 -285q-63 6 -88 49l213 295q39 4 77 -13t54 -46z" />
    <glyph glyph-name="Scommaaccent" unicode="&#x218;" horiz-adv-x="1157" 
d="M664 -219q0 -135 -80 -240q-22 -31 -45 -47l-58 41q63 66 72 189l-55 10v149q29 10 84 11l82 -11v-102zM630 1364q-177 0 -266 -70t-90 -198q0 -82 54 -140t104 -76q49 -19 127 -43q78 -23 129 -39q266 -81 331 -234q32 -73 32 -171q0 -197 -130 -305t-370 -108
q-115 0 -223 20t-156 41l-49 20q-4 78 39 121q186 -63 370 -63q364 0 363 272q0 135 -109 200q-57 34 -104 51t-131 42t-129 40t-112 49q-66 34 -100 72t-60 100q-27 62 -27 142q0 188 125 298t360 110q104 0 202 -14t140 -27l45 -14q0 -78 -41 -119q-147 43 -324 43z" />
    <glyph glyph-name="scommaaccent" unicode="&#x219;" horiz-adv-x="909" 
d="M539 -248q0 -84 -31 -156t-62 -100l-32 -31l-58 39q63 66 72 191l-55 10v150q29 10 84 10l82 -10v-103zM113 786q0 144 94 228t276 84q82 0 151 -12t97 -25l29 -14q4 -70 -41 -109q-98 35 -219 35q-244 0 -244 -180q0 -64 41 -99t98 -54q57 -18 119 -36q224 -64 274 -178
q25 -55 25 -131q0 -150 -95 -233t-280 -82q-90 0 -172 17t-119 36l-36 16q-4 72 41 111q133 -51 260 -51q252 0 254 182q0 89 -73 132q-52 32 -148 60t-143 46q-124 50 -165 136q-24 51 -24 121z" />
    <glyph glyph-name="dotlessj" unicode="&#x237;" horiz-adv-x="487" 
d="M170 -188v1255q20 10 74 10l73 -10v-1247q1 -166 -73 -249t-213 -83q-91 0 -127 18q-6 14 -6 50t16 61q33 -8 82 -8q174 0 174 203z" />
    <glyph glyph-name="circumflex" unicode="&#x2c6;" horiz-adv-x="811" 
d="M432 1442l270 -221q-25 -57 -69 -70l-230 160l-225 -162q-49 18 -69 72l270 221h53z" />
    <glyph glyph-name="caron" unicode="&#x2c7;" horiz-adv-x="827" 
d="M379 1126l-270 222q20 55 69 71l230 -162l225 160q45 -12 69 -69l-270 -222h-53z" />
    <glyph glyph-name="breve" unicode="&#x2d8;" horiz-adv-x="663" 
d="M328 1378q61 0 116 20t80 38l27 18q51 -19 67 -74q-4 -4 -17 -21t-89 -59q-75 -41 -172 -42q-98 -1 -171 30t-103 62l-29 30q18 55 67 74q86 -76 224 -76z" />
    <glyph glyph-name="dotaccent" unicode="&#x2d9;" horiz-adv-x="360" 
d="M179 1235q-50 0 -79 10v139q25 10 78 11l78 -11v-139q-27 -10 -77 -10z" />
    <glyph glyph-name="ring" unicode="&#x2da;" horiz-adv-x="704" 
d="M349 1395q-69 0 -105 -40t-37 -96q0 -57 37 -97q38 -40 106 -40t106 42t38 97q0 56 -38 95t-107 39zM348 1034q-104 0 -171 60t-67 166q0 104 71 161t169 57t170 -56q72 -58 72 -162t-70 -165t-174 -61z" />
    <glyph glyph-name="ogonek" unicode="&#x2db;" horiz-adv-x="579" 
d="M156 -254q0 -51 30 -78q30 -26 76 -26t78 16q27 -20 27 -66q-55 -36 -135 -36t-132 47q-51 47 -51 140t85 159t226 75l11 -43q-215 -55 -215 -188z" />
    <glyph glyph-name="tilde" unicode="&#x2dc;" horiz-adv-x="669" 
d="M222 1335q-46 0 -85 -61q-53 25 -61 69q6 11 17 27t55 43t98 27t120 -35t110 -35t85 60q51 -20 62 -70q-5 -10 -17 -26t-55 -44q-43 -26 -98 -26t-120 36t-111 35z" />
    <glyph glyph-name="hungarumlaut" unicode="&#x2dd;" horiz-adv-x="790" 
d="M713 1595l-256 -284q-63 6 -88 49l204 295q95 6 140 -60zM389 1595l-256 -284q-63 6 -90 49l205 295q96 6 141 -60z" />
    <glyph glyph-name="pi" unicode="&#x3c0;" horiz-adv-x="1245" 
d="M290 0q-54 0 -71 12v934l-141 -22q-10 32 -10 68t10 57q101 28 330 28h757q21 -65 0 -125h-147v-467q0 -147 16 -260t33 -151l16 -39q-31 -35 -84 -35t-69 8q-6 12 -17 41q-10 29 -27 151t-18 283v469h-501v-940q-23 -12 -77 -12z" />
    <glyph glyph-name="uni0401" unicode="&#x401;" 
d="M197 1475h813q12 -37 12 -69t-12 -58h-662v-539h559q23 -70 0 -125h-559v-557h682q12 -37 12 -67t-12 -60h-833v1475zM784 1628q-47 0 -77 10v134q25 10 75 10l76 -10v-134q-27 -10 -74 -10zM461 1628q-47 0 -78 10v134q25 10 76 10l76 -10v-134q-27 -10 -74 -10z" />
    <glyph glyph-name="uni0410" unicode="&#x410;" horiz-adv-x="1327" 
d="M662 1298h-7q-12 -61 -41 -141l-237 -627h563l-238 627zM1290 12q-27 -12 -73 -12t-78 8l-6 4l-148 391h-653l-150 -391q-25 -12 -73 -12t-72 12l543 1450q84 31 168 0z" />
    <glyph glyph-name="uni0411" unicode="&#x411;" horiz-adv-x="1259" 
d="M348 725v-604h363q141 0 217 82t76 222t-76 220t-217 80h-363zM1022 1422q0 -28 -12 -81h-662v-495h389q193 0 309 -115t116 -307t-116 -308t-309 -116h-540v1475h813q12 -25 12 -53z" />
    <glyph glyph-name="uni0412" unicode="&#x412;" horiz-adv-x="1284" 
d="M348 123h350q162 0 234 72q72 73 72 213t-74 209t-232 69h-350v-563zM348 805h336q274 0 274 273t-276 274h-334v-547zM197 1475h520q201 0 299 -111t98 -285q0 -219 -176 -325q108 -49 166 -133q57 -84 57 -215q-1 -188 -111 -297t-325 -109h-528v1475z" />
    <glyph glyph-name="uni0413" unicode="&#x413;" horiz-adv-x="1024" 
d="M271 0q-50 0 -74 12v1463h766q12 -25 12 -66l-12 -68h-615v-1329q-27 -12 -77 -12z" />
    <glyph glyph-name="uni0414" unicode="&#x414;" horiz-adv-x="1402" 
d="M1001 127v1229h-483l-45 -617q-33 -434 -139 -612h667zM1153 127h160v-410q-29 -12 -68 -12t-71 12v283h-994v-283q-34 -12 -70 -12t-69 12v410h121q129 143 166 625l55 723h770v-1348z" />
    <glyph glyph-name="uni0415" unicode="&#x415;" 
d="M197 1475h813q12 -29 12 -65t-12 -62h-662v-537h559q26 -63 0 -125h-559v-559h682q12 -29 12 -63t-12 -64h-833v1475z" />
    <glyph glyph-name="uni0416" unicode="&#x416;" horiz-adv-x="1918" 
d="M1036 827h215l410 635q29 12 77 12t81 -12l-439 -678l502 -772q-30 -12 -90 -12t-90 12l-449 690h-217v-690q-23 -12 -75 -12t-76 12v690h-226l-446 -690q-31 -12 -87 -12t-87 12l498 770l-437 680q33 12 81 12t77 -12l410 -635h217v635q27 12 76 12t75 -12v-635z" />
    <glyph glyph-name="uni0417" unicode="&#x417;" horiz-adv-x="1124" 
d="M484 1495q228 0 350 -102t120 -285q0 -150 -66 -232t-145 -116v-4q78 -24 167 -111t88 -266q-1 -180 -130 -290t-405 -109q-109 0 -203 16t-135 33l-41 16q-4 76 43 115q143 -45 315 -45q399 0 400 280q0 176 -118 239q-101 54 -263 54h-125q-27 68 0 129h125
q340 0 340 279q0 128 -87 198t-247 70q-80 0 -159 -12t-115 -25l-39 -14q-54 34 -50 112q152 70 380 70z" />
    <glyph glyph-name="uni0418" unicode="&#x418;" horiz-adv-x="1409" 
d="M1133 0q-54 0 -72 12v850q0 227 8 367l4 37h-6q-31 -90 -149 -314l-541 -940h-4q-24 -12 -88 -12t-88 12v1450q25 12 75 12t76 -12v-858q0 -170 -8 -358l-4 -49h6q29 98 160 335l534 930q26 12 88 12t88 -12v-1450q-25 -12 -79 -12z" />
    <glyph glyph-name="uni0419" unicode="&#x419;" horiz-adv-x="1409" 
d="M1133 0q-54 0 -72 12v850q0 227 8 367l4 37h-6q-31 -90 -149 -314l-541 -940h-4q-24 -12 -88 -12t-88 12v1450q25 12 75 12t76 -12v-858q0 -170 -8 -358l-4 -49h6q29 98 160 335l534 930q26 12 88 12t88 -12v-1450q-25 -12 -79 -12zM721 1794q63 0 125 18t92 39l29 19
q53 -16 71 -78q-12 -14 -37 -34t-107 -56q-82 -35 -173 -35q-90 0 -169 31t-114 63l-35 31q23 61 72 78q105 -76 246 -76z" />
    <glyph glyph-name="uni041A" unicode="&#x41a;" horiz-adv-x="1255" 
d="M348 829h209l442 633q33 12 80 12t80 -12l-475 -680l535 -770q-29 -12 -87 -12t-92 12l-481 690h-211v-690q-23 -12 -75 -12t-76 12v1450q27 12 76 12t75 -12v-633z" />
    <glyph glyph-name="uni041B" unicode="&#x41b;" horiz-adv-x="1359" 
d="M1081 0q-55 0 -67 12h-2v1340h-469l-41 -543q-44 -585 -200 -748q-48 -49 -86 -61t-84 -12t-81 14q-12 26 -12 56t12 59h58q29 2 51 11t54 51q104 138 142 634l52 662h755v-1463q-27 -12 -82 -12z" />
    <glyph glyph-name="uni041C" unicode="&#x41c;" horiz-adv-x="1714" 
d="M1442 0q-50 0 -74 12v869q0 319 10 409h-6q-27 -86 -139 -301l-342 -606q-20 -8 -51 -8l-47 8q-102 185 -356 655q-89 164 -113 252h-7q16 -80 17 -399v-879q-23 -12 -72 -12t-67 12v1450q35 12 92 13l92 -13l356 -651q84 -162 107 -231h8q12 47 108 221t363 661
q107 28 199 0v-1450q-28 -12 -78 -12z" />
    <glyph glyph-name="uni041D" unicode="&#x41d;" horiz-adv-x="1388" 
d="M348 823h692v639q26 12 76 12t76 -12v-1450q-25 -12 -78 -12t-74 12v676h-692v-676q-27 -12 -80 -12t-71 12v1450q27 12 76 12t75 -12v-639z" />
    <glyph glyph-name="uni041E" unicode="&#x41e;" horiz-adv-x="1388" 
d="M1098 737q0 339 -104 485t-300 146q-197 0 -300 -146t-103 -484t103 -485t300 -147q196 0 300 146t104 485zM131 737q1 385 147 571t416 187q270 0 416 -185t147 -573q0 -758 -563 -757q-563 -1 -563 757z" />
    <glyph glyph-name="uni041F" unicode="&#x41f;" horiz-adv-x="1363" 
d="M271 0q-50 0 -74 12v1463h970v-1463q-27 -12 -77 -12t-74 12v1329h-668v-1329q-27 -12 -77 -12z" />
    <glyph glyph-name="uni0420" unicode="&#x420;" horiz-adv-x="1232" 
d="M348 729h352q133 0 206 81t73 226q0 146 -73 228t-206 82h-352v-617zM272 0q-51 0 -75 12v1463h518q195 0 309 -120t115 -318q0 -199 -115 -319t-309 -120h-367v-586q-25 -12 -76 -12z" />
    <glyph glyph-name="uni0421" unicode="&#x421;" horiz-adv-x="1146" 
d="M133 737q0 758 574 758q98 0 184 -16t123 -33l37 -19q2 -66 -47 -114q-117 51 -281 51q-209 0 -320 -141t-111 -487t112 -484q110 -137 319 -137q166 0 268 37l35 14q43 -41 47 -117q-127 -70 -366 -69q-574 -1 -574 757z" />
    <glyph glyph-name="uni0422" unicode="&#x422;" horiz-adv-x="1103" 
d="M552 0q-54 0 -71 12v1329h-409q-20 45 -13 81q6 36 11 44l2 9h960q12 -25 12 -66t-12 -68h-399v-1329q-27 -12 -81 -12z" />
    <glyph glyph-name="uni0423" unicode="&#x423;" horiz-adv-x="1247" 
d="M240 85q0 38 8 54q50 -6 114 -6t126 41t122 176h-35l-532 1112q59 26 160 4l8 -4l399 -833q39 -84 56 -144h6q2 4 20 60t33 90l324 827q48 23 114 9q18 -3 29 -5l8 -4l-414 -1067q-47 -125 -99 -207q-119 -188 -305 -188q-84 0 -132 16q-10 31 -10 69z" />
    <glyph glyph-name="uni0424" unicode="&#x424;" horiz-adv-x="1632" 
d="M891 1214v-890q231 0 358 98t127 348t-126 347t-359 97zM739 324v890q-233 0 -359 -97t-126 -348t126 -348t359 -97zM810 0q-52 0 -71 12v191q-289 0 -453 119q-186 132 -186 443q0 312 170 441t469 129v152q25 12 77 12t75 -12v-152q299 0 470 -129t171 -436
q0 -567 -641 -567v-191q-29 -12 -81 -12z" />
    <glyph glyph-name="uni0425" unicode="&#x425;" horiz-adv-x="1251" 
d="M1200 14q-32 -14 -80 -14t-88 8l-8 4l-406 639l-403 -641q-35 -10 -78 -10t-90 10l475 752l-442 700q60 23 136 9q27 -4 40 -9l373 -585l379 585q33 12 83 12t83 -12l-451 -694z" />
    <glyph glyph-name="uni0426" unicode="&#x426;" horiz-adv-x="1431" 
d="M1180 133h157v-416q-31 -12 -67 -12t-72 12v283h-1001v1462q23 12 74 12t77 -12v-1329h680v1329q23 12 73 12t79 -12v-1329z" />
    <glyph glyph-name="uni0427" unicode="&#x427;" horiz-adv-x="1300" 
d="M1024 0q-54 0 -72 12v652q-152 -70 -374 -70t-339 106q-118 106 -118 365v397q27 12 76 12t75 -12v-397q0 -188 79 -263t269 -75t332 72v663q26 12 76 12t76 -12v-1450q-26 -12 -80 -12z" />
    <glyph glyph-name="uni0428" unicode="&#x428;" horiz-adv-x="1953" 
d="M1757 0h-1560v1462q23 12 74 12t77 -12v-1329h553v1329q18 12 70 12t82 -12v-1329h553v1329q20 12 72 12t79 -12v-1462z" />
    <glyph glyph-name="uni0429" unicode="&#x429;" horiz-adv-x="2009" 
d="M1757 133h158v-416q-25 -12 -65 -12t-74 12v283h-1579v1462q23 12 74 12t77 -12v-1329h553v1329q23 12 73 12t79 -12v-1329h553v1329q23 12 74 12t77 -12v-1329z" />
    <glyph glyph-name="uni042A" unicode="&#x42a;" horiz-adv-x="1441" 
d="M532 721v-592h367q137 0 213 79t76 217t-75 217t-214 79h-367zM532 1475v-625h388q196 0 312 -116t116 -308t-117 -310q-117 -116 -311 -116h-539v1341h-315q-12 25 -12 68t12 66h466z" />
    <glyph glyph-name="uni042B" unicode="&#x42b;" horiz-adv-x="1771" 
d="M348 721v-592h367q137 0 213 79t76 217t-75 217t-214 79h-367zM1497 0q-53 0 -74 12v1450q25 12 79 12t73 -12v-1450q-25 -12 -78 -12zM348 850h387q195 0 312 -116t117 -308t-118 -310q-116 -116 -311 -116h-538v1462q23 12 74 12t77 -12v-612z" />
    <glyph glyph-name="uni042C" unicode="&#x42c;" horiz-adv-x="1257" 
d="M348 129h367q137 0 213 79t76 217t-75 217t-214 79h-367v-592zM348 850h387q195 0 312 -116t117 -308t-118 -310q-116 -116 -311 -116h-538v1462q23 12 74 12t77 -12v-612z" />
    <glyph glyph-name="uni042D" unicode="&#x42d;" horiz-adv-x="1191" 
d="M330 744q0 33 12 69h557q-12 301 -129 426t-319 125q-160 0 -265 -37l-36 -12q-48 40 -48 112q131 68 367 68q293 0 443 -191t149 -567q0 -758 -592 -757q-111 0 -208 17t-138 36l-43 16q4 74 47 115q133 -51 334 -51t317 128t123 445h-559q-12 25 -12 58z" />
    <glyph glyph-name="uni042E" unicode="&#x42e;" horiz-adv-x="1943" 
d="M1248 1368q-198 0 -301 -145t-103 -485t103 -486t301 -146t300 146t103 485q-1 339 -103 485t-300 146zM348 801h338q25 694 561 694q563 0 563 -758t-563 -757q-539 0 -561 694h-338v-662q-29 -12 -78 -12t-73 12v1450q25 12 75 12t76 -12v-661z" />
    <glyph glyph-name="uni042F" unicode="&#x42f;" horiz-adv-x="1275" 
d="M928 1346h-353q-131 0 -205 -79t-73 -220q0 -141 74 -221t204 -78h353v598zM1002 0q-56 0 -74 12v604h-330l-330 -604q-34 -12 -80 -12t-86 8l-8 4l342 621q-141 35 -219 145t-78 286q0 178 115 294t309 117h516v-1463q-21 -12 -77 -12z" />
    <glyph glyph-name="uni0430" unicode="&#x430;" horiz-adv-x="1054" 
d="M502 520q-254 0 -254 -211t211 -211q133 0 212 91t79 233v82q-188 16 -248 16zM534 1098q202 0 283 -100q80 -100 80 -314v-674q-18 -10 -59 -10l-60 10l-22 154q-88 -184 -344 -184q-145 0 -232 85q-86 85 -86 242q0 319 387 320q131 0 269 -17v115q0 129 -58 187
t-185 58q-128 0 -249 -36l-37 -14q-45 22 -45 108q156 70 358 70z" />
    <glyph glyph-name="uni0431" unicode="&#x431;" horiz-adv-x="1167" 
d="M606 936q-139 0 -215 -92t-76 -326t76 -328t215 -94t215 93t76 327t-76 326q-76 94 -215 94zM229 194q-86 179 -86 554q0 209 30 308t54 150q42 86 157 157q92 57 378 111q76 14 100 27q23 12 45 49q72 -6 101 -53q-18 -69 -60 -101t-130 -48q-257 -46 -348 -90
t-128 -102q-54 -86 -68 -162t-18 -150h8q88 209 359 209q428 0 428 -537t-445 -536q-86 0 -152 17q-148 38 -225 197z" />
    <glyph glyph-name="uni0432" unicode="&#x432;" horiz-adv-x="1054" 
d="M311 113h279q201 0 201 184q0 193 -201 192h-279v-376zM311 600h260q90 0 139 49q48 49 48 135q0 180 -187 181h-260v-365zM606 1077q137 1 217 -73t80 -207q0 -174 -133 -242q174 -63 174 -260q0 -141 -85 -218t-241 -77h-454v1077h442z" />
    <glyph glyph-name="uni0433" unicode="&#x433;" horiz-adv-x="825" 
d="M246 0q-42 0 -82 10v1067h600q12 -25 12 -57t-12 -68h-453v-942q-23 -10 -65 -10z" />
    <glyph glyph-name="uni0434" unicode="&#x434;" horiz-adv-x="1175" 
d="M815 115v843h-391l-29 -376q-25 -319 -96 -467h516zM53 115h84q94 94 123 475l39 487h664v-962h129v-367q-31 -10 -64 -10t-74 10v252h-766v-252q-30 -10 -70 -10t-65 10v367z" />
    <glyph glyph-name="uni0435" unicode="&#x435;" horiz-adv-x="1048" 
d="M795 738q1 96 -57 168t-183 71q-270 0 -287 -375h518q9 40 9 136zM586 111q70 0 133 16t92 33l29 18q45 -37 49 -108q-42 -35 -138 -63t-194 -27q-442 0 -442 565q0 281 117 417q118 136 312 136t298 -106q102 -106 102 -292q0 -123 -16 -184l-6 -24h-654
q10 -205 87 -293t231 -88z" />
    <glyph glyph-name="uni0436" unicode="&#x436;" horiz-adv-x="1568" 
d="M1530 12q-26 -12 -82 -12t-86 12l-311 492h-191v-494q-27 -10 -74 -10l-73 10v494h-193l-311 -492q-31 -12 -77 -12q-47 0 -83 8l-8 4l354 561l-305 494q29 10 78 10l78 -10l274 -446h193v446q25 10 73 10l74 -10v-446h193l274 446q29 10 80 10l74 -10l-303 -494z" />
    <glyph glyph-name="uni0437" unicode="&#x437;" horiz-adv-x="935" 
d="M383 102q287 0 287 199q0 188 -267 188h-129q-10 25 -10 60l10 55h129q238 0 238 187q0 98 -61 143t-194 45t-214 -25l-29 -10q-39 33 -39 105q100 49 314 49q375 0 375 -297q0 -190 -150 -250v-4q178 -57 178 -254q0 -313 -432 -313q-90 0 -168 14t-110 31l-35 14
q0 66 43 104q100 -41 264 -41z" />
    <glyph glyph-name="uni0438" unicode="&#x438;" horiz-adv-x="1181" 
d="M868 594q0 276 9 285h-7q4 -2 -39 -79t-98 -165l-414 -625q-29 -10 -79 -10l-76 10v1057q27 10 74 10l73 -10v-592q0 -268 -8 -276h4q35 76 92 163l463 705q27 10 78 10l78 -10v-1057q-27 -10 -74 -10l-76 10v584z" />
    <glyph glyph-name="uni0439" unicode="&#x439;" horiz-adv-x="1181" 
d="M868 594q0 268 9 285h-7q-37 -82 -94 -172l-457 -697q-29 -10 -79 -10l-76 10v1057q27 10 74 10l73 -10v-592q0 -276 -8 -276h4q35 76 92 163l463 705q27 10 78 10l78 -10v-1057q-27 -10 -74 -10l-76 10v584zM592 1391q60 0 116 19t83 38l24 18q51 -18 68 -73
q-4 -4 -18 -22t-66 -46q-102 -55 -198 -55q-95 0 -168 30t-101 62l-31 31q18 55 68 73q86 -75 223 -75z" />
    <glyph glyph-name="uni043A" unicode="&#x43a;" horiz-adv-x="1021" 
d="M985 12q-29 -12 -77 -12t-83 8l-8 4l-336 492h-170v-494q-27 -10 -71 -10l-76 10v1057q27 10 76 10l71 -10v-446h172l301 446q31 10 80 10l74 -10l-332 -494z" />
    <glyph glyph-name="uni043B" unicode="&#x43b;" horiz-adv-x="1130" 
d="M967 1077v-1067q-31 -10 -72 -10l-76 10v948h-373l-28 -364q-32 -383 -113 -504q-41 -62 -81 -82t-97 -20l-76 12q-10 18 -10 51l10 55l62 -2q131 10 170 498l36 475h648z" />
    <glyph glyph-name="uni043C" unicode="&#x43c;" horiz-adv-x="1370" 
d="M1063 635q0 121 12 244h-6q-45 -100 -78 -160l-276 -471q-14 -8 -39 -8l-39 8l-262 461q-49 90 -82 170h-6q14 -72 14 -246v-623q-27 -10 -70 -10l-67 10v1057q33 10 82 10l80 -10l286 -512q33 -61 64 -131h6q39 86 63 131l297 512q33 10 84 10l80 -10v-1057
q-23 -10 -69 -10l-74 10v625z" />
    <glyph glyph-name="uni043D" unicode="&#x43d;" horiz-adv-x="1146" 
d="M311 494v-484q-25 -10 -73 -10l-74 10v1057q25 10 74 10l73 -10v-451h525v451q27 10 73 10l74 -10v-1057q-25 -10 -76 -10l-71 10v484h-525z" />
    <glyph glyph-name="uni043E" unicode="&#x43e;" horiz-adv-x="1110" 
d="M842 539q0 244 -73 343t-214 99t-214 -99t-73 -343t73 -343q73 -100 214 -100t214 100t73 343zM117 539q0 295 111 427q112 132 327 132t327 -132t112 -427t-112 -427t-327 -132t-327 132q-111 132 -111 427z" />
    <glyph glyph-name="uni043F" unicode="&#x43f;" horiz-adv-x="1124" 
d="M311 952v-942q-27 -10 -73 -10l-74 10v1067h797v-1067q-25 -10 -74 -10l-74 10v942h-502z" />
    <glyph glyph-name="uni0440" unicode="&#x440;" 
d="M866 539q0 237 -68 335t-205 98q-138 0 -209 -87q-71 -88 -73 -211v-264q0 -123 72 -214t195 -92q154 0 221 98t67 337zM229 1077q42 0 82 -10v-129q94 160 316 160q189 0 291 -130t102 -429t-101 -429t-292 -130q-221 0 -316 159v-618q-23 -10 -65 -10t-82 10v1546
q23 10 65 10z" />
    <glyph glyph-name="uni0441" unicode="&#x441;" horiz-adv-x="913" 
d="M582 973q-162 -1 -238 -107t-76 -326t78 -324t244 -105q88 0 176 28l22 11q43 -35 48 -109q-94 -61 -295 -61t-314 143t-113 415t113 416q113 143 328 144q81 0 145 -12t88 -25l25 -12q0 -72 -45 -111q-71 35 -186 35z" />
    <glyph glyph-name="uni0442" unicode="&#x442;" horiz-adv-x="911" 
d="M459 0q-46 0 -76 10v940h-320q-14 23 -14 62t12 57l2 8h787q12 -23 12 -51t-12 -76h-320v-940q-25 -10 -71 -10z" />
    <glyph glyph-name="uni0443" unicode="&#x443;" horiz-adv-x="1071" 
d="M266 -512q-56 0 -104 16q-12 25 -12 65t14 54q38 -10 98 -10t102 44t85 173l61 172q-23 0 -49 10l-410 1055q27 10 78 10l78 -10l276 -702l74 -220h6q23 90 66 220l241 702q23 10 74 10l74 -10l-434 -1266q-55 -165 -122 -239t-196 -74z" />
    <glyph glyph-name="uni0444" unicode="&#x444;" horiz-adv-x="1591" 
d="M1325 539q0 231 -58 335q-57 104 -185 104t-218 -44v-780q86 -54 215 -54t188 104q58 104 58 335zM520 979q-135 -1 -193 -105q-59 -104 -59 -335t58 -335t194 -104q104 0 182 39l25 15v780l-36 15q-73 30 -171 30zM799 -512q-46 0 -76 10v531q-88 -49 -227 -49
q-199 0 -288 139t-89 420t89 419t288 140q120 0 200 -33l27 -10v471q20 10 74 10l73 -10v-471l30 12q20 8 78 19t118 12q200 -2 288 -140t88 -420t-88 -420t-288 -138q-124 0 -199 36l-27 13v-531q-25 -10 -71 -10z" />
    <glyph glyph-name="uni0445" unicode="&#x445;" horiz-adv-x="1011" 
d="M418 549l-355 518q29 10 82 10l84 -10l285 -410l281 410q23 10 73 10l80 -10l-356 -514l373 -543q-27 -10 -82 -10l-84 10l-301 434l-297 -434q-25 -10 -78 -10l-76 10z" />
    <glyph glyph-name="uni0446" unicode="&#x446;" horiz-adv-x="1175" 
d="M230 1077q41 0 81 -10v-942h504v942q27 10 74 10l74 -10v-942h129v-377q-31 -10 -68 -10t-68 10v252h-792v1067q25 10 66 10z" />
    <glyph glyph-name="uni0447" unicode="&#x447;" horiz-adv-x="1069" 
d="M823 1077q42 0 82 -10v-1057q-25 -10 -66 -10t-81 10v451q-106 -57 -275 -58q-377 0 -377 336v328q25 10 74 10l74 -10v-330q0 -111 58 -162t199 -51t247 64v479q23 10 65 10z" />
    <glyph glyph-name="uni0448" unicode="&#x448;" horiz-adv-x="1589" 
d="M784 1077q44 0 84 -10v-942h410v942q20 10 74 10l73 -10v-1067h-1261v1067q20 10 64 10t83 -10v-942h410v942q19 10 63 10z" />
    <glyph glyph-name="uni0449" unicode="&#x449;" horiz-adv-x="1638" 
d="M784 1077q44 0 84 -10v-942h410v942q20 10 74 10l73 -10v-942h129v-377q-32 -10 -68 -10t-67 10v252h-1255v1067q20 10 64 10t83 -10v-942h410v942q19 10 63 10z" />
    <glyph glyph-name="uni044A" unicode="&#x44a;" horiz-adv-x="1173" 
d="M453 113h286q96 0 146 52q49 52 49 148q0 95 -50 149t-145 54h-286v-403zM453 629h313q150 0 234 -86q84 -87 85 -229q0 -142 -85 -228t-234 -86h-461v950h-239q-14 25 -15 66q0 41 15 61h387v-448z" />
    <glyph glyph-name="uni044B" unicode="&#x44b;" horiz-adv-x="1468" 
d="M311 516v-403h287q96 0 145 52t50 148q-1 95 -51 149t-144 54h-287zM1234 1077q36 0 71 -10v-1057q-35 -10 -71 -10t-77 10v1057q41 10 77 10zM240 1077q35 0 71 -10v-438h314q151 0 235 -86q84 -87 84 -229t-85 -228t-234 -86h-461v1067q41 10 76 10z" />
    <glyph glyph-name="uni044C" unicode="&#x44c;" horiz-adv-x="1032" 
d="M311 113h287q96 0 145 52t50 148q-1 95 -51 149t-144 54h-287v-403zM311 629h314q151 0 235 -86q84 -87 84 -229t-85 -228t-234 -86h-461v1067q41 10 76 10t71 -10v-438z" />
    <glyph glyph-name="uni044D" unicode="&#x44d;" horiz-adv-x="931" 
d="M238 544q0 28 10 58h414q-18 377 -318 377q-109 0 -178 -25l-25 -8q-41 37 -41 103q92 49 273 49q217 0 331 -144t113 -415q0 -271 -116 -415t-330 -144q-82 0 -156 15t-104 30l-33 16q4 68 45 102q92 -39 213 -39q314 0 328 381h-416q-10 31 -10 59z" />
    <glyph glyph-name="uni044E" unicode="&#x44e;" horiz-adv-x="1595" 
d="M1325 539q0 244 -74 343t-216 99t-217 -99t-75 -343t75 -343q75 -100 217 -100t216 100t74 343zM1034 1098q217 0 331 -132t114 -426t-114 -427t-331 -133q-416 0 -440 487h-283v-457q-37 -10 -71 -10t-76 10v1057q41 10 76 10t71 -10v-473h283q20 504 440 504z" />
    <glyph glyph-name="uni044F" unicode="&#x44f;" horiz-adv-x="1067" 
d="M498 965q-106 1 -160 -55t-55 -154q0 -98 54 -154t161 -57h258v420h-258zM334 455q-203 68 -203 317q0 129 90 217t250 88h432v-1067q-41 -10 -77 -10t-70 10v422h-273l-231 -422q-41 -10 -84 -10t-84 10z" />
    <glyph glyph-name="uni0451" unicode="&#x451;" horiz-adv-x="1046" 
d="M795 738q1 96 -57 168t-183 71q-270 0 -287 -375h518q9 40 9 136zM115 545q0 281 117 417q118 136 312 136t298 -106q102 -106 102 -292q0 -123 -16 -184l-6 -24h-654q10 -207 88 -297t230 -91q70 0 133 18t92 34l29 16q43 -33 49 -102q-42 -35 -138 -63t-194 -27
q-442 0 -442 565zM637 1436q25 10 76 10l75 -10v-136q-27 -8 -75 -8l-76 8v136zM313 1436q25 10 76 10l76 -10v-136q-27 -8 -76 -8l-76 8v136z" />
    <glyph glyph-name="Wgrave" unicode="&#x1e80;" horiz-adv-x="1959" 
d="M562 0q-52 0 -85 12l-420 1450q53 25 148 4l6 -4l305 -1046l53 -238h6q12 111 46 236l292 1048q50 26 148 4l6 -4l291 -1046q31 -127 39 -207l4 -31h6q12 102 51 236l297 1048q51 24 133 4l8 -4l-409 -1450q-31 -12 -85 -12t-83 12l-285 1037q-32 127 -43 221l-2 26h-6
q-6 -86 -45 -247l-287 -1037q-37 -12 -89 -12zM991 1554l-246 275q15 27 55 44t77 15l202 -284q-25 -44 -88 -50z" />
    <glyph glyph-name="wgrave" unicode="&#x1e81;" horiz-adv-x="1626" 
d="M469 0q-31 0 -82 10l-328 1057q25 10 73 10t69 -10l225 -717q25 -86 41 -186h6q14 92 45 186l225 717q33 10 78 10l74 -10l221 -713q23 -74 41 -190h6q10 70 47 188l224 715q25 10 64 10t69 -10l-328 -1057q-55 -10 -80 -10t-80 10l-198 629q-57 190 -62 272h-6
q-10 -100 -68 -272l-198 -629q-47 -10 -78 -10zM807 1243l-256 285q16 27 55 44t76 15l213 -295q-27 -43 -88 -49z" />
    <glyph glyph-name="Wacute" unicode="&#x1e82;" horiz-adv-x="1959" 
d="M562 0q-52 0 -85 12l-420 1450q53 25 148 4l6 -4l305 -1046l53 -238h6q12 111 46 236l292 1048q50 26 148 4l6 -4l291 -1046q31 -127 39 -207l4 -31h6q12 102 51 236l297 1048q51 24 133 4l8 -4l-409 -1450q-31 -12 -85 -12t-83 12l-285 1037q-32 127 -43 221l-2 26h-6
q-6 -86 -45 -247l-287 -1037q-37 -12 -89 -12zM1169 1833l-247 -277q-63 10 -88 50l204 286q39 4 77 -13t54 -46z" />
    <glyph glyph-name="wacute" unicode="&#x1e83;" horiz-adv-x="1626" 
d="M469 0q-31 0 -82 10l-328 1057q25 10 73 10t69 -10l225 -717q25 -86 41 -186h6q14 92 45 186l225 717q33 10 78 10l74 -10l221 -713q23 -74 41 -190h6q10 70 47 188l224 715q25 10 64 10t69 -10l-328 -1057q-55 -10 -80 -10t-80 10l-198 629q-57 190 -62 272h-6
q-10 -100 -68 -272l-198 -629q-47 -10 -78 -10zM987 1528l-256 -285q-63 6 -88 49l213 295q39 4 77 -13t54 -46z" />
    <glyph glyph-name="Wdieresis" unicode="&#x1e84;" horiz-adv-x="1959" 
d="M562 0q-52 0 -85 12l-420 1450q53 25 148 4l6 -4l305 -1046l53 -238h6q12 111 46 236l292 1048q50 26 148 4l6 -4l291 -1046q31 -127 39 -207l4 -31h6q12 102 51 236l297 1048q51 24 133 4l8 -4l-409 -1450q-31 -12 -85 -12t-83 12l-285 1037q-32 127 -43 221l-2 26h-6
q-6 -86 -45 -247l-287 -1037q-37 -12 -89 -12zM1225 1745v-135q-25 -8 -74 -8l-76 8v135q25 8 76 8zM901 1745v-135q-25 -8 -74 -8l-75 8v135q25 8 75 8z" />
    <glyph glyph-name="wdieresis" unicode="&#x1e85;" horiz-adv-x="1626" 
d="M469 0q-31 0 -82 10l-328 1057q25 10 73 10t69 -10l225 -717q25 -86 41 -186h6q14 92 45 186l225 717q33 10 78 10l74 -10l221 -713q23 -74 41 -190h6q10 70 47 188l224 715q25 10 64 10t69 -10l-328 -1057q-55 -10 -80 -10t-80 10l-198 629q-57 190 -62 272h-6
q-10 -100 -68 -272l-198 -629q-47 -10 -78 -10zM1059 1436v-136q-27 -8 -76 -8l-76 8v136q25 10 76 10zM735 1436v-136q-27 -8 -76 -8l-75 8v136q25 10 75 10z" />
    <glyph glyph-name="Ygrave" unicode="&#x1ef2;" horiz-adv-x="1286" 
d="M640 0q-52 0 -75 12v604l-516 846q61 24 138 9q27 -4 40 -9l422 -686l432 686q49 24 126 9q27 -4 40 -9l-530 -841v-609q-25 -12 -77 -12zM537 1888l213 -295q-27 -43 -88 -49l-256 285q16 27 55 44t76 15z" />
    <glyph glyph-name="ygrave" unicode="&#x1ef3;" horiz-adv-x="1071" 
d="M266 -512q-56 0 -104 16q-12 25 -12 65t14 54q38 -10 98 -10t102 44t85 173l61 172q-23 0 -49 10l-410 1055q27 10 78 10l78 -10l276 -702l74 -220h6q23 90 66 220l241 702q23 10 74 10l74 -10l-434 -1266q-55 -165 -122 -239t-196 -74zM516 1243l-256 285q16 27 55 44
t76 15l213 -295q-27 -43 -88 -49z" />
    <glyph glyph-name="endash" unicode="&#x2013;" horiz-adv-x="1196" 
d="M1004 537h-814q-10 20 -10 57l10 57h814q8 -20 8 -57z" />
    <glyph glyph-name="emdash" unicode="&#x2014;" horiz-adv-x="1708" 
d="M1516 537h-1326q-10 20 -10 57l10 57h1326q8 -20 8 -57z" />
    <glyph glyph-name="quoteleft" unicode="&#x2018;" horiz-adv-x="446" 
d="M216 1073q-58 0 -81 12v103q0 138 80 239q14 19 45 48l57 -41q-63 -66 -73 -191l57 -8v-150q-27 -12 -85 -12z" />
    <glyph glyph-name="quoteright" unicode="&#x2019;" horiz-adv-x="428" 
d="M309 1362q0 -130 -81 -242q-12 -17 -44 -47l-57 41q61 66 72 191l-56 10v149q27 10 82 11l84 -11v-102z" />
    <glyph glyph-name="quotesinglbase" unicode="&#x201a;" horiz-adv-x="460" 
d="M313 57q1 -83 -31 -155t-65 -103l-31 -28l-57 39q63 68 72 190l-54 10v150q25 10 82 10l84 -10v-103z" />
    <glyph glyph-name="quotedblleft" unicode="&#x201c;" horiz-adv-x="669" 
d="M127 1186q0 140 80 241q14 19 45 48l57 -41q-61 -66 -71 -191l55 -10v-150q-27 -10 -84 -10l-82 10v103zM383 1186q0 84 32 156t64 104l31 29l57 -41q-63 -66 -73 -191l55 -10v-150q-25 -10 -82 -10l-84 10v103z" />
    <glyph glyph-name="quotedblright" unicode="&#x201d;" horiz-adv-x="688" 
d="M569 1362q0 -137 -80 -242q-19 -26 -45 -47l-57 41q61 66 72 191l-56 10v149q27 10 84 11l82 -11v-102zM313 1362q1 -84 -31 -157t-65 -103l-31 -29l-57 41q63 66 74 191l-56 10v149q25 10 82 11l84 -11v-102z" />
    <glyph glyph-name="quotedblbase" unicode="&#x201e;" horiz-adv-x="720" 
d="M573 57q-1 -83 -31 -155t-63 -103l-30 -28l-58 39q63 68 72 190l-55 10v150q27 10 84 10l81 -10v-103zM313 57q-1 -83 -31 -155t-61 -103l-33 -28l-57 39q61 68 72 190l-56 10v150q27 10 84 10l82 -10v-103z" />
    <glyph glyph-name="dagger" unicode="&#x2020;" horiz-adv-x="1167" 
d="M590 -260l-66 41l15 1100l-469 -15q-8 25 -9 62l9 59l469 -12l-15 452q27 8 66 9l63 -9l-14 -452l461 12q8 -23 8 -59l-8 -62l-461 15l14 -1100z" />
    <glyph glyph-name="daggerdbl" unicode="&#x2021;" horiz-adv-x="1284" 
d="M692 305l469 14q8 -23 8 -61l-8 -59l-469 14l15 -455q-25 -8 -66 -8l-63 8l14 455l-467 -14q-8 23 -8 59l8 61l467 -14l-14 287l14 289l-469 -15q-8 23 -8 62l8 59l469 -12l-14 452q25 8 65 9l64 -9l-15 -452l467 12q8 -23 8 -59l-8 -62l-467 15l15 -289z" />
    <glyph glyph-name="bullet" unicode="&#x2022;" horiz-adv-x="651" 
d="M453 579q0 -55 -36 -91t-91 -36t-92 35q-36 35 -36 91t36 92q36 35 92 35t91 -35q36 -35 36 -91z" />
    <glyph glyph-name="ellipsis" unicode="&#x2026;" horiz-adv-x="1204" 
d="M980 0q-48 0 -89 10v150q25 10 82 10l84 -10v-150q-29 -10 -77 -10zM608 0q-48 0 -88 10v150q27 10 84 10l82 -10v-150q-30 -10 -78 -10zM239 0q-47 0 -92 10v150q27 10 84 10l84 -10v-150q-29 -10 -76 -10z" />
    <glyph glyph-name="perthousand" unicode="&#x2030;" horiz-adv-x="2203" 
d="M1991 334q0 144 -39 200q-39 58 -114 58t-113 -57q-37 -57 -37 -201t37 -200q38 -56 114 -56t114 56t38 200zM1176 78q76 0 114 56t37 200t-39 200q-38 58 -113 58t-114 -57t-39 -201t39 -200t115 -56zM1569 334q0 354 272 354t272 -354t-272 -354t-272 354zM1176 -20
q-272 0 -273 354q1 354 273 354t272 -354t-272 -354zM215 1062q0 -144 38 -200t115 -57q76 0 114 56q38 55 38 199t-38 202t-115 57q-76 0 -114 -57q-38 -56 -38 -200zM369 707q-272 0 -273 354q0 354 272 354t273 -354q0 -354 -272 -354zM1237 1427l-793 -1437
q-23 -10 -65 -10l-64 10l795 1437q31 17 72 12t55 -12z" />
    <glyph glyph-name="guilsinglleft" unicode="&#x2039;" horiz-adv-x="696" 
d="M113 614l417 428q41 -29 52 -92l-353 -397l353 -399q-10 -63 -52 -93l-417 426q-20 39 -14 76q7 37 12 43z" />
    <glyph glyph-name="guilsinglright" unicode="&#x203a;" horiz-adv-x="696" 
d="M584 614q12 -25 12 -64t-10 -54l-2 -9l-418 -426q-41 29 -51 93l352 399l-352 397q10 63 51 92z" />
    <glyph glyph-name="fraction" unicode="&#x2044;" horiz-adv-x="268" 
d="M-326 -10l793 1437q20 10 61 11l62 -11l-795 -1437q-23 -10 -61 -10z" />
    <glyph glyph-name="zeroinferior" unicode="&#x2080;" horiz-adv-x="702" 
d="M350 430q-86 0 -125 -62t-39 -213t38 -212t125 -61t126 60q39 62 39 212t-39 212q-39 64 -125 64zM350 -207q-135 0 -202 88t-66 275q0 360 269 360t269 -362t-270 -361z" />
    <glyph glyph-name="oneinferior" unicode="&#x2081;" horiz-adv-x="497" 
d="M326 506q30 0 49 -6v-690q-18 -6 -50 -6t-53 6v483q0 59 2 84q-84 -70 -196 -94q-31 31 -25 82q133 35 223 135q20 6 50 6z" />
    <glyph glyph-name="twoinferior" unicode="&#x2082;" horiz-adv-x="612" 
d="M66 -98q0 62 37 118q39 55 93 86t107 58q53 28 91 64t38 87t-39 83t-123 32t-135 -20q-31 37 -24 77q77 29 189 29t173 -52t61 -131t-35 -128q-36 -49 -87 -78q-50 -29 -104 -57q-129 -66 -140 -176h350q10 -26 10 -46t-10 -45h-444q-8 37 -8 99z" />
    <glyph glyph-name="threeinferior" unicode="&#x2083;" horiz-adv-x="612" 
d="M532 -4q0 -203 -278 -203q-101 0 -164 27l-22 8q0 49 28 72q68 -20 154 -21q178 0 178 125t-147 125h-93q-16 41 0 84h93q125 0 125 106q0 111 -142 111q-79 0 -133 -12l-20 -6q-29 29 -25 73q74 31 186 31t175 -48t63 -148t-92 -146q114 -47 114 -178z" />
    <glyph glyph-name="fourinferior" unicode="&#x2084;" horiz-adv-x="663" 
d="M420 66v311l-246 -311h246zM510 66h82q8 -20 8 -42t-8 -38h-82v-176q-37 -6 -48 -6t-42 6v176h-361q-6 24 -6 32t6 33l353 447q20 8 49 8t49 -8v-432z" />
    <glyph glyph-name="fiveinferior" unicode="&#x2085;" horiz-adv-x="604" 
d="M215 416v-180q158 0 238 -52t79 -172q0 -219 -278 -219q-101 0 -164 27l-22 8q-4 47 26 74q68 -23 150 -23q184 0 184 131q0 78 -52 108t-173 29h-86v359h377q18 -43 0 -90h-279z" />
    <glyph glyph-name="sixinferior" unicode="&#x2086;" horiz-adv-x="632" 
d="M328 -125q61 1 98 37t37 98t-35 100q-36 36 -106 36t-138 -42q0 -229 144 -229zM328 -207q-248 1 -248 315q0 164 103 275t304 129q20 -37 0 -82q-252 -31 -290 -235q75 35 161 35t148 -57q62 -56 61 -162q1 -106 -67 -162t-172 -56z" />
    <glyph glyph-name="seveninferior" unicode="&#x2087;" horiz-adv-x="565" 
d="M510 424q0 -54 -29 -115t-69 -108t-81 -97q-98 -124 -93 -294q-49 -12 -103 0q4 187 84 303q35 49 72 91q91 103 112 210h-340q-20 45 0 92h441q6 -28 6 -82z" />
    <glyph glyph-name="eightinferior" unicode="&#x2088;" horiz-adv-x="659" 
d="M479 -30q0 39 -10 59t-47 44t-83 43t-58 25q-102 -59 -103 -151q0 -115 156 -115q63 0 104 28t41 67zM459 336q0 102 -131 102q-59 0 -94 -25q-34 -26 -34 -65q0 -38 26 -66t76 -51t73 -30q84 55 84 135zM100 329q0 91 60 139t166 48q108 0 168 -46t61 -128
q0 -111 -104 -176q129 -66 129 -168t-66 -154t-182 -51q-116 0 -185 49q-68 49 -67 142q0 121 125 192q-105 62 -105 153z" />
    <glyph glyph-name="nineinferior" unicode="&#x2089;" horiz-adv-x="630" 
d="M303 434q-61 0 -97 -37t-36 -100t35 -98t101 -35t143 41q-4 229 -146 229zM66 297q0 104 66 162q66 57 178 57t176 -75t65 -239q0 -164 -102 -276q-102 -111 -302 -129q-27 37 -4 82q252 31 293 236q-66 -33 -158 -33t-152 55q-60 56 -60 160z" />
    <glyph glyph-name="Euro" unicode="&#x20ac;" horiz-adv-x="1204" 
d="M776 1393q90 -1 166 -17t107 -33l30 -14q-4 -70 -45 -104q-98 45 -244 45t-239 -84q-92 -84 -121 -285h528q10 -55 -18 -100h-524q-2 -37 -2 -115t2 -111h458q10 -55 -18 -100h-428q29 -205 121 -288t240 -83t235 35l31 11q41 -33 45 -105q-109 -66 -324 -65
q-430 0 -497 495h-173q-8 55 19 100h143q-4 71 -4 129t4 97h-162q-8 57 19 100h154q72 492 497 492z" />
    <glyph glyph-name="uni2113" unicode="&#x2113;" horiz-adv-x="944" 
d="M721 1229q0 199 -150 198q-92 0 -136 -62t-44 -220v-465q330 287 330 549zM244 1085q0 227 71 339q72 112 252 112q145 0 220 -82t75 -223q0 -185 -127 -369t-344 -338v-229q-1 -187 143 -189q68 0 128 29t92 58l32 26q61 -14 72 -74q-6 -6 -15 -17t-43 -40
q-127 -108 -303 -108q-130 0 -192 86q-61 86 -61 288v80q-47 -27 -140 -74q-45 37 -43 103q74 33 183 104v518z" />
    <glyph glyph-name="uni2117" unicode="&#x2117;" horiz-adv-x="1646" 
d="M715 977v-336h174q76 0 120 43t44 124t-44 125t-120 44h-174zM606 1071h293q121 0 194 -73q73 -74 73 -192t-74 -190q-72 -72 -193 -71h-184v-250q-55 -29 -109 0v776zM1417 696q0 246 -173 420t-420 174t-422 -174t-175 -420t175 -421t421 -175t420 175t174 421z
M125 696q0 291 204 495q205 204 495 204t494 -204t204 -495q0 -290 -204 -494t-495 -204t-495 204t-203 494z" />
    <glyph glyph-name="trademark" unicode="&#x2122;" horiz-adv-x="1284" 
d="M1051 1145q0 162 2 233q-51 -109 -62 -127l-104 -202q-10 -6 -31 -7l-31 7l-100 200q-26 52 -61 129q4 -61 4 -233v-254q-12 -6 -31 -6l-31 6v577q22 11 80 0l102 -200q41 -82 70 -154q16 45 70 146l104 208q20 6 43 7l43 -7v-577q-12 -6 -33 -6l-34 6v254zM510 1446
q0 -16 -6 -31h-172v-524q-10 -6 -35 -6l-33 6v524h-176q-6 25 -6 35t6 25h416q6 -13 6 -29z" />
    <glyph glyph-name="Omega" unicode="&#x2126;" horiz-adv-x="1474" 
d="M158 778q0 365 153 541q154 176 427 176t426 -176q153 -177 153 -527t-264 -647q-8 -8 -13 -12h303q25 -71 0 -133h-481q-33 70 0 137q96 80 185 220q49 79 79 189q31 110 31 232q0 590 -420 590t-420 -590q0 -315 204 -551q44 -51 91 -90q29 -66 0 -137h-481
q-14 37 -14 71t14 62h301q-121 137 -176 246q-98 190 -98 399z" />
    <glyph glyph-name="estimated" unicode="&#x212e;" horiz-adv-x="1654" 
d="M847 1333q-216 0 -396 -137v-455h786v453q-174 139 -390 139zM853 -20q-308 0 -519 210t-211 510q0 299 211 510t510 211t510 -211t211 -510v-49h-1114v-446q184 -137 390 -137t386 127h137q-203 -215 -511 -215z" />
    <glyph glyph-name="uni2153" unicode="&#x2153;" horiz-adv-x="1464" 
d="M1110 713q112 0 173 -48q63 -48 63 -148t-93 -146q115 -47 115 -178q0 -203 -276 -203q-109 0 -166 26l-21 9q-4 47 27 71q70 -20 155 -20q178 0 179 125q0 125 -148 125h-94q-16 43 0 84h94q125 0 125 106q0 111 -141 111q-88 0 -135 -13l-21 -6q-28 29 -24 74
q76 31 188 31zM338 1411q26 0 55 -8v-688q-23 -6 -53 -6t-49 6v483q0 57 2 82q-84 -70 -197 -94q-33 29 -24 84q135 35 223 133q17 8 43 8zM1022 1427q27 17 63 12q37 -5 41 -9l7 -3l-793 -1439q-20 -8 -57 -8l-56 8z" />
    <glyph glyph-name="uni2154" unicode="&#x2154;" horiz-adv-x="1593" 
d="M1231 627q-96 0 -156 -19q-29 29 -24 74q75 31 187 31t174 -48t62 -148t-92 -146q115 -47 115 -178q0 -203 -276 -203q-112 0 -164 26l-23 9q-4 47 27 71q70 -20 156 -20q178 0 178 125t-148 125h-94q-16 43 0 84h94q125 0 125 106q0 111 -141 111zM96 808q0 62 38 118
q38 55 91 86q53 32 107 58t93 63q38 37 38 88t-38 82t-118 31t-141 -19q-29 35 -25 78q78 29 190 29t174 -53q62 -52 62 -131t-36 -128t-88 -78q-52 -28 -105 -56q-128 -67 -139 -177h352q8 -18 8 -45t-8 -45h-447q-8 37 -8 99zM356 -12l795 1439q27 17 63 12t48 -12
l-793 -1439q-20 -8 -57 -8z" />
    <glyph glyph-name="oneeighth" unicode="&#x215b;" horiz-adv-x="1462" 
d="M1227 99q41 28 41 80t-37 76q-60 40 -105 58t-57 25q-102 -59 -102 -152q0 -115 155 -114q63 0 105 27zM1247 532q0 102 -131 103q-59 0 -93 -26q-34 -27 -34 -65t26 -66q43 -46 148 -81q84 55 84 135zM889 526q0 91 59 139q58 48 166 48t168 -46t61 -128
q0 -111 -104 -177q129 -66 129 -168t-66 -153t-182 -51t-184 49t-68 141q0 121 125 193q-104 62 -104 153zM338 1411q26 0 55 -8v-688q-23 -6 -53 -6t-49 6v483q0 57 2 82q-84 -70 -197 -94q-33 29 -24 84q135 35 223 133q17 8 43 8zM1022 1427q27 17 63 12q37 -5 41 -9
l7 -3l-793 -1439q-20 -8 -57 -8l-56 8z" />
    <glyph glyph-name="threeeighths" unicode="&#x215c;" horiz-adv-x="1556" 
d="M1362 166q0 39 -10 59t-50 46t-83 43q-44 17 -56 24q-102 -59 -102 -152q0 -115 156 -114q63 0 104 28t41 66zM1341 532q0 102 -131 103q-59 0 -93 -26q-34 -27 -34 -65t26 -66q43 -46 148 -81q84 55 84 135zM983 526q0 91 59 139q58 48 166 48t168 -46t62 -128
q0 -111 -105 -177q129 -66 129 -168t-66 -153t-182 -51t-184 49t-67 141q0 121 124 193q-104 62 -104 153zM291 698q-93 0 -164 27l-23 8q-4 47 27 72q70 -20 156 -21q178 0 178 125t-148 125h-94q-16 43 0 84h94q125 0 125 109t-141 108q-99 0 -156 -18q-28 29 -24 74
q75 31 187 31t174 -49q62 -47 62 -147t-91 -147q115 -47 114 -178q0 -203 -276 -203zM1116 1427q27 17 61 12t50 -12l-793 -1439q-20 -8 -57 -8l-55 8z" />
    <glyph glyph-name="fiveeighths" unicode="&#x215d;" horiz-adv-x="1548" 
d="M1313 99q41 28 41 80t-37 76q-60 40 -105 58t-57 25q-102 -59 -102 -152q0 -115 155 -114q63 0 105 27zM1333 532q0 102 -131 103q-59 0 -93 -26q-34 -27 -34 -65t26 -66q43 -46 148 -81q84 55 84 135zM975 526q0 91 59 139q58 48 166 48t168 -46t62 -128
q0 -111 -105 -177q129 -66 129 -168t-66 -153t-182 -51t-184 49t-68 141q0 121 125 193q-104 62 -104 153zM147 1411h379q16 -47 0 -90h-280v-180q160 0 240 -51t79 -172q0 -219 -278 -220q-96 0 -164 27l-23 8q-4 45 25 74q70 -23 149 -23q184 0 185 131q0 78 -51 108
t-172 30h-89v358zM1108 1427q27 17 63 12q37 -5 41 -9l7 -3l-793 -1439q-20 -8 -57 -8l-56 8z" />
    <glyph glyph-name="seveneighths" unicode="&#x215e;" horiz-adv-x="1378" 
d="M1184 166q0 39 -10 59t-50 46t-83 43q-44 17 -56 24q-102 -59 -102 -152q0 -115 155 -114q63 0 105 27q41 28 41 67zM1163 532q0 102 -131 103q-59 0 -93 -26q-34 -27 -34 -65t26 -66q43 -46 148 -81q84 55 84 135zM805 526q0 91 59 139q58 48 166 48t168 -46t62 -128
q0 -111 -105 -177q129 -66 129 -168t-66 -153t-182 -51t-184 49t-68 141q0 121 125 193q-104 62 -104 153zM555 1331q0 -53 -28 -115q-29 -62 -67 -110q-38 -47 -77 -96q-96 -120 -94 -295q-51 -12 -101 0q2 121 37 212t77 137q120 132 144 255h-340q-16 45 0 92h443
q6 -27 6 -80zM938 1427q27 17 63 12t48 -12l-793 -1439q-20 -8 -57 -8l-56 8z" />
    <glyph glyph-name="arrowleft" unicode="&#x2190;" horiz-adv-x="1273" 
d="M84 717l440 440q49 -18 68 -67l-320 -320h895q9 -20 9 -53t-9 -53h-895l320 -320q-20 -53 -68 -68z" />
    <glyph glyph-name="arrowup" unicode="&#x2191;" horiz-adv-x="1017" 
d="M514 170q-29 0 -59 10v893l-318 -319q-53 18 -67 69l438 439l440 -439q-12 -49 -65 -69l-320 319v-893q-20 -10 -49 -10z" />
    <glyph glyph-name="arrowright" unicode="&#x2192;" horiz-adv-x="1273" 
d="M1190 717l-438 -441q-49 12 -70 68l319 320h-892q-11 26 -11 58t11 48h892l-319 320q18 51 70 67z" />
    <glyph glyph-name="arrowdown" unicode="&#x2193;" horiz-adv-x="1017" 
d="M455 1253q58 19 108 0v-895l320 320q51 -20 65 -68l-440 -440l-438 440q14 49 67 68l318 -320v895z" />
    <glyph glyph-name="uni2196" unicode="&#x2196;" horiz-adv-x="1050" 
d="M152 1102h622q10 -26 10 -48t-10 -48h-450l632 -631q-18 -51 -77 -78l-633 635l2 -453q-18 -8 -48 -8t-48 8v623z" />
    <glyph glyph-name="uni2197" unicode="&#x2197;" horiz-adv-x="1050" 
d="M899 1102v-623q-18 -8 -48 -8t-48 8v451l-631 -633q-59 25 -78 78l633 631h-451q-10 28 -10 50t10 46h623z" />
    <glyph glyph-name="uni2198" unicode="&#x2198;" horiz-adv-x="1042" 
d="M836 913q30 0 49 -8v-622h-623q-10 25 -10 47t10 49h451l-633 631q18 53 78 77l630 -632v450q18 8 48 8z" />
    <glyph glyph-name="uni2199" unicode="&#x2199;" horiz-adv-x="1042" 
d="M158 285v620q18 10 48 10t48 -10v-450l631 632q59 -25 78 -77l-633 -631h450q22 -54 0 -94h-622z" />
    <glyph glyph-name="partialdiff" unicode="&#x2202;" horiz-adv-x="1140" 
d="M551 934q-139 0 -210 -92t-71 -324t75 -328q75 -94 214 -94q297 0 297 420q0 176 -6 260q-43 76 -124 117t-175 41zM1010 664q0 -383 -114 -534t-337 -150q-442 0 -442 536t424 537q178 0 288 -121q-47 192 -182 316t-362 161q-16 78 20 127q705 -93 705 -872z" />
    <glyph glyph-name="Delta" unicode="&#x2206;" horiz-adv-x="1310" 
d="M657 1282h-6q-14 -72 -63 -205l-367 -950h862l-362 952q-29 74 -64 203zM584 1464q82 20 155 0l518 -1382q-12 -49 -51 -82h-1102q-41 33 -51 80z" />
    <glyph glyph-name="product" unicode="&#x220f;" horiz-adv-x="1452" 
d="M288 -424q-36 0 -83 12v1831h1042v-1831q-23 -12 -63 -12t-76 12v1700h-764v-1700q-20 -12 -56 -12z" />
    <glyph glyph-name="summation" unicode="&#x2211;" horiz-adv-x="1196" 
d="M109 1421h981q10 -23 10 -63l-10 -64h-793l399 -762l-432 -827h838q10 -23 10 -65l-10 -64h-1028v78l465 881l-430 819v67z" />
    <glyph glyph-name="minus" unicode="&#x2212;" horiz-adv-x="950" 
d="M780 616h-608q-10 20 -10 60l10 59h608q8 -20 8 -59z" />
    <glyph glyph-name="uni2215" unicode="&#x2215;" horiz-adv-x="972" 
d="M27 -10l792 1437q20 10 62 11l61 -11l-795 -1437q-23 -10 -61 -10z" />
    <glyph glyph-name="uni2219" unicode="&#x2219;" horiz-adv-x="487" 
d="M244 598q-37 0 -64 24q-26 24 -26 66t26 67q27 23 64 23q38 0 64 -24t26 -66t-26 -66t-64 -24z" />
    <glyph glyph-name="radical" unicode="&#x221a;" horiz-adv-x="1300" 
d="M639 -31l-320 762l-217 -94q-51 39 -41 102l328 144l305 -731l453 1343q72 10 108 -29l-501 -1497h-115z" />
    <glyph glyph-name="infinity" unicode="&#x221e;" horiz-adv-x="1671" 
d="M1196 891q-55 0 -105 -24t-100 -77t-69 -102l-9 -22q5 -8 11 -24t32 -54q55 -84 135 -123q50 -25 105 -25q117 0 174 67t57 159t-57 158t-174 67zM716 586q24 33 34 57l8 23q-4 8 -10 23t-32 54q-99 148 -241 148q-117 0 -174 -67q-57 -66 -57 -158t57 -159t185 -67
t230 146zM1192 324q-70 0 -132 26t-102 61q-85 79 -110 130l-12 26q-10 -24 -48 -75q-40 -52 -76 -84t-100 -58q-64 -27 -133 -26q-172 0 -264 101t-92 241t92 240q92 101 264 102q70 0 132 -26t102 -61q85 -78 110 -135l13 -24q9 22 49 75q41 52 79 85q38 34 100 60t128 26
q172 0 264 -102t92 -240t-92 -240t-264 -102z" />
    <glyph glyph-name="integral" unicode="&#x222b;" horiz-adv-x="1019" 
d="M442 -61v1206q0 158 75 245t208 87t264 -80q-10 -61 -53 -90q-104 63 -205 57q-168 -6 -168 -217v-1208q0 -330 -293 -330q-104 0 -239 80q6 59 53 90q100 -68 201 -62q157 13 157 222z" />
    <glyph glyph-name="approxequal" unicode="&#x2248;" horiz-adv-x="1095" 
d="M694 301q-58 1 -152 53q-96 52 -149 52t-91 -18t-54 -40l-17 -18q-61 18 -71 78q8 12 23 32t73 54t130 32q71 0 166 -52q94 -52 148 -52t92 18t54 37l16 19q61 -16 74 -76q-8 -16 -33 -41q-79 -78 -209 -78zM694 645q-58 1 -152 53q-96 52 -149 52t-91 -18t-54 -40
l-17 -18q-61 14 -71 78q8 12 23 31t73 53t130 32q71 0 166 -52q94 -52 148 -52t92 19t54 38l16 19q61 -18 74 -76q-8 -16 -33 -41q-79 -78 -209 -78z" />
    <glyph glyph-name="notequal" unicode="&#x2260;" horiz-adv-x="991" 
d="M248 158q-26 0 -53 10l104 188h-160q-10 37 -10 62t10 55h223l134 242h-357q-10 31 -10 59t10 55h420l96 172q63 20 111 0l-96 -172h178q10 -27 10 -55t-10 -59h-242l-133 -242h375q10 -31 10 -55t-10 -62h-440l-103 -188q-31 -10 -57 -10z" />
    <glyph glyph-name="lessequal" unicode="&#x2264;" horiz-adv-x="958" 
d="M784 221h-618q-10 20 -10 60l10 57h618q10 -20 11 -57zM784 455l-618 235q-10 29 -10 68l10 65l618 238q10 -18 11 -60l-11 -61l-483 -184l483 -181q10 -20 11 -61z" />
    <glyph glyph-name="greaterequal" unicode="&#x2265;" horiz-adv-x="958" 
d="M793 221h-619q-10 20 -10 60l10 57h619q10 -20 10 -57zM174 940q-10 20 -10 56t10 65l619 -238q10 -25 10 -65l-10 -68l-619 -235q-10 20 -10 59l10 61l483 181z" />
    <glyph glyph-name="lozenge" unicode="&#x25ca;" horiz-adv-x="1124" 
d="M889 719l-328 536l-319 -536l319 -537zM528 14l-434 707l434 704h66l438 -704l-438 -707h-66z" />
    <glyph glyph-name="commaaccentcomb" unicode="&#xf6c3;" horiz-adv-x="0" 
d="M268 57q0 -83 -32 -155t-64 -103l-31 -28l-57 39q63 68 72 190l-54 10v150q25 10 82 10l84 -10v-103z" />
    <glyph glyph-name="CR" horiz-adv-x="659" 
 />
    <glyph glyph-name="_0020" horiz-adv-x="0" 
 />
    <glyph glyph-name="_375" horiz-adv-x="1323" 
d="M664 1282h-7q-14 -72 -63 -205l-367 -950h863l-363 952q-28 74 -63 203zM590 1464q82 20 155 0l519 -1382q-12 -49 -52 -82h-1101q-41 33 -52 80z" />
    <glyph glyph-name="_376" horiz-adv-x="1433" 
d="M1135 778q0 590 -420 590t-420 -590q0 -315 204 -551q44 -51 91 -90q29 -66 0 -137h-481q-29 78 0 133h301q-121 137 -177 246q-98 190 -98 399q0 365 154 541t427 176t426 -176q152 -177 152 -527t-264 -647l-12 -12h303q14 -39 14 -67t-14 -66h-481q-33 70 0 137
q98 81 165 190q130 209 130 451z" />
    <glyph glyph-name="commaaccentcomb.alt" horiz-adv-x="0" 
d="M164 1073q-58 0 -82 12v103q0 138 80 239q13 19 45 48l57 -41q-63 -66 -74 -191l58 -8v-150q-26 -12 -84 -12z" />
    <glyph glyph-name="eight.denom" horiz-adv-x="659" 
d="M479 166q0 39 -10 59q-10 19 -37 37t-43 28t-56 25q-40 16 -52 23q-102 -59 -103 -152q0 -115 156 -114q63 0 104 28t41 66zM459 532q0 102 -131 103q-60 0 -94 -26q-34 -27 -34 -65t26 -66t76 -51t73 -30q84 55 84 135zM100 526q0 91 60 139t166 48q108 0 168 -46
t61 -128q0 -111 -104 -177q129 -66 129 -168t-66 -153t-182 -51t-185 49q-68 49 -67 141q0 121 125 193q-105 62 -105 153z" />
    <glyph glyph-name="eight.num" horiz-adv-x="659" 
d="M479 875q0 39 -10 59t-47 44t-83 43t-58 26q-102 -59 -103 -152q0 -115 156 -115q63 0 104 28t41 67zM459 1241q0 102 -131 102q-59 0 -94 -25q-34 -26 -34 -65t26 -67t76 -50q50 -23 73 -30q84 55 84 135zM100 1234q0 91 60 139t166 48q108 0 168 -46t61 -128
q0 -111 -104 -176q129 -66 129 -168t-66 -153q-66 -52 -182 -52t-185 50q-68 50 -67 141q0 121 125 192q-105 62 -105 153z" />
    <glyph glyph-name="five.denom" horiz-adv-x="604" 
d="M215 612v-180q158 0 238 -51t79 -172q0 -219 -278 -219q-109 0 -164 26l-22 9q-4 47 26 73q68 -23 150 -22q184 0 184 131q0 77 -52 107t-173 30h-86v358h377q18 -43 0 -90h-279z" />
    <glyph glyph-name="five.num" horiz-adv-x="606" 
d="M215 1321v-180q158 0 238 -51t79 -172q0 -219 -278 -220q-93 0 -164 27l-22 8q-4 47 26 74q68 -23 150 -23q184 0 184 131q0 78 -52 108t-173 30h-86v358h377q18 -43 0 -90h-279z" />
    <glyph glyph-name="four.denom" horiz-adv-x="663" 
d="M420 262v311l-246 -311h246zM510 262h82q8 -20 8 -42t-8 -38h-82v-176q-37 -6 -48 -6t-42 6v176h-361q-6 25 -6 33t6 33l353 446q20 8 49 8t49 -8v-432z" />
    <glyph glyph-name="four.num" horiz-adv-x="661" 
d="M420 971v311l-246 -311h246zM510 971h82q8 -20 8 -42t-8 -38h-82v-176q-37 -6 -48 -6t-42 6v176h-361q-6 25 -6 33t6 32l353 447q20 8 49 8t49 -8v-432z" />
    <glyph glyph-name="g.alt" horiz-adv-x="1138" 
d="M272 539q0 -238 69 -336q69 -99 208 -99t207 92t71 203v275q-2 113 -69 206q-68 93 -208 93t-210 -98q-68 -98 -68 -336zM892 1077q42 0 83 -10v-1014q-1 -297 -103 -431t-360 -134q-84 0 -160 16t-108 33l-33 14q0 68 43 105q113 -43 244 -43q178 0 254 91q75 91 75 349
v86q-101 -159 -303 -159t-304 130q-101 130 -101 429t101 429t304 130t303 -162v131q23 10 65 10z" />
    <glyph glyph-name="gbreve.alt" 
d="M270 539q0 -238 69 -336q69 -99 208 -99t207 92t71 203v275q-2 113 -69 206q-68 93 -208 93t-210 -98q-68 -98 -68 -336zM895 1077q47 0 78 -10v-1014q-1 -297 -103 -431t-360 -134q-84 0 -160 16t-108 33l-33 14q0 68 43 105q113 -43 244 -43q178 0 254 91q75 91 75 349
v86q-101 -159 -303 -159t-304 130q-101 130 -101 429t101 429t304 130t303 -162v131q23 10 70 10zM594 1270q-94 0 -167 30t-103 62l-29 31q18 55 67 73q86 -76 224 -75q61 0 116 19t80 38l27 18q52 -18 68 -73q-4 -4 -17 -21t-93 -59q-79 -43 -173 -43z" />
    <glyph glyph-name="gcircumflex.alt" 
d="M270 539q0 -238 69 -336q69 -99 208 -99t207 92t71 203v275q-2 113 -69 206q-68 93 -208 93t-210 -98q-68 -98 -68 -336zM895 1077q47 0 78 -10v-1014q-1 -297 -103 -431t-360 -134q-84 0 -160 16t-108 33l-33 14q0 68 43 105q113 -43 244 -43q178 0 254 91q75 91 75 349
v86q-101 -159 -303 -159t-304 130q-101 130 -101 429t101 429t304 130t303 -162v131q23 10 70 10zM584 1532l266 -217q-25 -55 -70 -70l-221 158l-221 -158q-47 16 -70 70l264 217h52z" />
    <glyph glyph-name="gcommaaccent.alt" 
d="M270 539q0 -238 69 -336q69 -99 208 -99t207 92t71 203v275q-2 113 -69 206q-68 93 -208 93t-210 -98q-68 -98 -68 -336zM895 1077q47 0 78 -10v-1014q-1 -297 -103 -431t-360 -134q-84 0 -160 16t-108 33l-33 14q0 68 43 105q113 -43 244 -43q178 0 254 91q75 91 75 349
v86q-101 -159 -303 -159t-304 130q-101 130 -101 429t101 429t304 130t303 -162v131q23 10 70 10zM473 1333q0 78 32 146t64 94l31 29l55 -39q-61 -61 -71 -177l55 -10v-137q-29 -8 -82 -8l-84 8v94z" />
    <glyph glyph-name="gdotaccent.alt" 
d="M270 539q0 -238 69 -336q69 -99 208 -99t207 92t71 203v275q-2 113 -69 206q-68 93 -208 93t-210 -98q-68 -98 -68 -336zM895 1077q47 0 78 -10v-1014q-1 -297 -103 -431t-360 -134q-84 0 -160 16t-108 33l-33 14q0 68 43 105q113 -43 244 -43q178 0 254 91q75 91 75 349
v86q-101 -159 -303 -159t-304 130q-101 130 -101 429t101 429t304 130t303 -162v131q23 10 70 10zM584 1303q-44 0 -84 10v139q25 8 78 8l77 -8v-139q-27 -10 -71 -10z" />
    <glyph glyph-name="nine.denom" horiz-adv-x="630" 
d="M170 494q0 -62 35 -98t101 -36t143 41q-4 229 -146 230q-61 0 -97 -37t-36 -100zM66 494q0 104 66 161t178 57t176 -74q64 -76 65 -240q0 -164 -102 -275t-302 -129q-27 37 -4 82q250 27 293 235q-66 -33 -158 -33t-152 56t-60 160z" />
    <glyph glyph-name="nine.num" horiz-adv-x="630" 
d="M303 1339q-61 -1 -97 -37t-36 -100t35 -98q35 -35 101 -35t143 41q-4 229 -146 229zM66 1202q0 104 66 162q66 57 178 57q112 -1 176 -75t65 -239q0 -165 -102 -276t-302 -129q-27 37 -4 82q250 27 293 236q-66 -33 -158 -33t-152 55q-60 56 -60 160z" />
    <glyph glyph-name="_300" horiz-adv-x="0" 
 />
    <glyph glyph-name="one.denom" horiz-adv-x="497" 
d="M326 702q30 0 49 -6v-690q-18 -6 -47 -6t-54 6v483q0 59 2 84q-88 -72 -198 -94q-31 31 -25 82q133 35 223 135q20 6 50 6z" />
    <glyph glyph-name="one.num" horiz-adv-x="528" 
d="M326 1411q30 0 49 -6v-690q-18 -6 -50 -6t-51 6v483q0 59 2 84q-88 -72 -198 -94q-31 31 -25 82q133 35 223 135q20 6 50 6z" />
    <glyph glyph-name="seven.denom" horiz-adv-x="563" 
d="M55 654q0 24 8 48h441q6 -27 6 -80t-28 -115q-28 -61 -66 -109t-77 -97q-95 -122 -93 -295q-26 -6 -54 -6t-47 6q0 121 35 212t78 137q121 130 145 255h-340q-8 20 -8 44z" />
    <glyph glyph-name="seven.num" horiz-adv-x="567" 
d="M510 1332q0 -54 -28 -116t-66 -110q-38 -47 -77 -96q-95 -122 -93 -295q-49 -12 -101 0q0 121 35 212t78 137q121 129 145 255h-340q-20 45 0 92h441q6 -25 6 -79z" />
    <glyph glyph-name="six.denom" horiz-adv-x="632" 
d="M328 72q61 0 98 36t37 100q0 62 -35 98q-36 36 -106 36t-138 -41q0 -229 144 -229zM328 -10q-248 0 -248 314q0 164 103 276q103 111 304 129q20 -39 0 -82q-252 -31 -290 -236q75 35 161 35t148 -56t61 -162q1 -106 -67 -162t-172 -56z" />
    <glyph glyph-name="six.num" horiz-adv-x="632" 
d="M463 920q0 64 -35 98q-36 35 -106 35t-138 -41q0 -229 144 -230q61 0 98 37t37 101zM80 1014q0 164 103 276q103 111 304 129q20 -39 0 -82q-252 -31 -290 -235q75 35 161 35q86 -1 148 -57t61 -160q0 -104 -67 -162q-68 -57 -172 -58q-248 0 -248 314z" />
    <glyph glyph-name="three.denom" horiz-adv-x="612" 
d="M532 193q0 -203 -278 -203q-109 0 -164 26l-22 9q0 49 28 71q68 -20 154 -20q178 0 178 125t-147 125h-93q-16 43 0 84h93q125 0 125 106q0 111 -142 111q-86 0 -133 -13l-20 -6q-29 29 -25 74q74 31 186 31t175 -48t63 -148t-92 -146q114 -47 114 -178z" />
    <glyph glyph-name="three.num" horiz-adv-x="614" 
d="M512 1226q0 -100 -92 -147q115 -47 115 -178q0 -203 -279 -203q-88 0 -166 27l-20 8q0 49 28 72q68 -20 154 -21q178 0 178 125t-147 125h-93q-16 43 0 84h93q125 0 125 109t-142 108q-99 0 -153 -18q-29 29 -25 74q74 31 186 31t176 -49q62 -47 62 -147z" />
    <glyph glyph-name="two.denom" horiz-adv-x="612" 
d="M66 100q0 62 37 117q39 55 93 86t107 57q129 64 129 152q0 113 -153 115q-92 0 -144 -21q-31 37 -24 78q77 29 189 29q112 -1 173 -53t61 -131q1 -137 -122 -205q-50 -29 -104 -57q-129 -67 -140 -177h350q10 -25 10 -45t-10 -45h-444q-8 38 -8 100z" />
    <glyph glyph-name="two.num" horiz-adv-x="612" 
d="M66 808q0 62 37 118q39 55 93 86q54 32 107 58t91 63t38 88t-38 83t-118 32t-141 -21q-31 37 -24 78q77 29 189 29t173 -53q61 -52 61 -131t-35 -128q-36 -49 -87 -78q-50 -28 -104 -56q-129 -66 -140 -177h350q10 -25 10 -45t-10 -45h-444q-8 37 -8 99z" />
    <glyph glyph-name="zero.denom" horiz-adv-x="704" 
d="M350 627q-86 -1 -125 -63t-39 -212t38 -212t125 -62t126 62t39 210t-39 213q-39 64 -125 64zM622 352q0 -362 -271 -362t-270 361t269 362q272 1 272 -361z" />
    <glyph glyph-name="zero.num" horiz-adv-x="704" 
d="M350 1335q-86 0 -125 -62t-39 -212t38 -212q38 -63 125 -63t126 62t39 212q0 148 -39 212t-125 63zM350 698q-135 0 -202 88t-66 275q0 360 270 360q270 1 270 -361t-272 -362z" />
    </font>
</defs>
</svg>
