
<svg xmlns="http://www.w3.org/2000/svg" version="1.1" xmlns:xlink="http://www.w3.org/1999/xlink" preserveAspectRatio="none" x="0px" y="0px" width="120px" height="190px" viewBox="0 0 120 190">
<defs>
<g id="Tween_1_0_Layer0_0_FILL">
<path fill="#FFFFFF" stroke="none" d="
M 22.35 128.05
Q 26.8 118.1 18.7 108.7 10.6 99.35 3 94.85 -4.6 90.3 -12.1 98.25 -8.8 94.95 -4.5 99.35
L 10.8 118.05
Q 14 121.85 13.85 126.3
L 7.75 142.45 9.5 142.45 7.7 150.45
Q 7.2 152.35 5.65 155 11.5 158.1 21.7 165.75 24.65 162.6 27.15 163.45 27.45 160.1 24.75 157.65
L 14.7 151.05 22.35 128.05 Z"/>

<path fill="#CCCCCC" stroke="none" d="
M 4.65 125.85
Q 0.05 138.35 2.75 140.3 -5.9 161 3.9 163.05 13.6 165 18 169.1 27.1 170.1 27.15 163.45 24.65 162.6 21.7 165.75 11.5 158.1 5.65 155 7.2 152.35 7.7 150.45
L 9.5 142.45 7.75 142.45 13.85 126.3
Q 14 121.85 10.8 118.05
L -4.5 99.35
Q -8.8 94.95 -12.1 98.25 -25.1 109 4.65 125.85 Z"/>
</g>

<g id="Tween_2b_0_Layer0_0_FILL">
<path fill="#CCCCCC" stroke="none" d="
M -23.35 -11.65
Q -23.694921875 -11 -21.7 -4.4 -19.7154296875 2.2 -17.65 7.35 -18.3716796875 14.4583984375 -12.35 15.2 -6.284375 15.9896484375 -1.3 16.3 3.6953125 16.611328125 7.55 16.25 11.4 15.935546875 19.1 15.05 19.3 14.6 19.5 14.15
L 24.35 18.8 32.05 17.3 36.25 11.75 25.8 13.15 23.2 11.15 21.6 4.2
Q 22.25 7.6 21.1 10.4 6.55 10.95 4.95 10.9 -3.55 10.75 -12.1 8.55
L -16.5 -9.95
Q -19.3845703125 -18.483984375 -13.05 -18.9 -19.00546875 -20.817578125 -20.6 -17.35 -22.1525390625 -13.833203125 -23.35 -11.65 Z"/>

<path fill="#FFFFFF" stroke="none" d="
M 36.25 11.75
L 34.2 7.9 27.55 8.3 25.95 6.55 30.3 4.3 27.05 2.15 21.6 4.2 23.2 11.15 25.8 13.15 36.25 11.75
M -13.05 -18.9
Q -19.3845703125 -18.483984375 -16.5 -9.95
L -12.1 8.55
Q -3.55 10.75 4.95 10.9 6.55 10.95 21.1 10.4 22.25 7.6 21.6 4.2 16.85 2.55 10.2 2.05 1.35 1.65 -5.25 1.05
L -9.65 -15.3
Q -10.0880859375 -19.458984375 -13.05 -18.9 Z"/>
</g>

<g id="astronaut_0_Layer2_0_FILL">
<path fill="#CCCCCC" stroke="none" d="
M 10 113.05
Q 21.6759765625 113.4560546875 23.75 103.3 0.6447265625 107.8828125 -7.6 98.45 -10.228125 95.4203125 -11.35 90.9 -11.5603515625 90.1875 -11.8 89.4 -14.6728515625 80.266796875 -18 62.3 -18.7419921875 54.2794921875 -11 53.8 22.3212890625 54.60546875 18.3 41.95 4.255859375 54.629296875 -16.8 43.55 -17.35625 43.8880859375 -17.9 44.25 -26.980859375 50.325390625 -26.65 60.3 -26.3 70.15 -24.6 79.85 -23.153515625 87.9470703125 -21.95 94.55 -20.68984375 101.2083984375 -18.6 105.45 -16.4640625 109.6837890625 -13.3 111.2 -10.13515625 112.7259765625 -2.75 113.05
L 10 113.05 Z"/>

<path fill="#FFFFFF" stroke="none" d="
M 26 47.55
L 18.3 41.95
Q 22.3212890625 54.60546875 -11 53.8 -18.7419921875 54.2794921875 -18 62.3 -14.6728515625 80.266796875 -11.8 89.4 -11.5603515625 90.1875 -11.35 90.9 -10.228125 95.4203125 -7.6 98.45 0.6447265625 107.8828125 23.75 103.3
L 26 47.55 Z"/>
</g>

<g id="Tween_2_0_Layer0_0_FILL">
<path fill="#FFFFFF" stroke="none" d="
M 30.7 81.75
Q 31.8939453125 78.9375 31.25 75.55 19.687109375 71.514453125 0 69.8
L -12 56.05
Q -14.8431640625 52.7720703125 -18 52.55 -23.52421875 56.5578125 -17.3 65.8
L -6.85 77.3
Q 12.8080078125 82.418359375 30.7 81.75
M 32.85 82.5
L 35.45 84.5 45.9 83.1 43.85 79.25 37.2 79.65 35.6 77.9 39.95 75.65 36.7 73.5 31.25 75.55 32.85 82.5 Z"/>

<path fill="#CCCCCC" stroke="none" d="
M 29.1 85.5
L 34 90.15 41.7 88.65 45.9 83.1 35.45 84.5 32.85 82.5 31.25 75.55
Q 31.8939453125 78.9375 30.7 81.75 12.8080078125 82.418359375 -6.85 77.3
L -17.3 65.8
Q -23.52421875 56.5578125 -18 52.55 -20.7775390625 52.3609375 -23.8 54.55 -29.9861328125 58.9701171875 -22.15 70.35 -14.317578125 81.7896484375 -3.7 84.2 6.96640625 86.6080078125 13.7 86.75 20.429296875 86.9341796875 28.75 86.4 28.9453125 85.9427734375 29.1 85.5 Z"/>
</g>
</defs>

<g transform="matrix( 0.9920654296875, 0.1255950927734375, -0.1255950927734375, 0.9920654296875, 39.6,6.4) ">
<g transform="matrix( 0.9983367919921875, -0.05755615234375, 0.05755615234375, 0.9983367919921875, 29.05,127.85) ">
<g transform="matrix( 1, 0, 0, 1, -5.55,-131.2) ">
<use xlink:href="#Tween_1_0_Layer0_0_FILL"/>
</g>
</g>

<g transform="matrix( 0.90283203125, -0.42999267578125, 0.42999267578125, 0.90283203125, 41.8,58.45) ">
<g transform="matrix( 1, 0, 0, 1, 0,0) ">
<use xlink:href="#Tween_2b_0_Layer0_0_FILL"/>
</g>
</g>

<g transform="matrix( 1, 0, 0, 1, 0,0) ">
<use xlink:href="#astronaut_0_Layer2_0_FILL"/>
</g>

<g transform="matrix( 1, 0, 0, 1, 5.55,131.2) ">
<g transform="matrix( 1, 0, 0, 1, -5.55,-131.2) ">
<use xlink:href="#Tween_1_0_Layer0_0_FILL"/>
</g>
</g>

<g transform="matrix( 1, 0, 0, 1, 9.65,71.35) ">
<g transform="matrix( 1, 0, 0, 1, -9.65,-71.35) ">
<use xlink:href="#Tween_2_0_Layer0_0_FILL"/>
</g>
</g>
</g>
</svg>
