<?xml version="1.0" encoding="utf-8"?>
<!-- Generator: Adobe Illustrator 16.0.0, SVG Export Plug-In . SVG Version: 6.00 Build 0)  -->
<!DOCTYPE svg PUBLIC "-//W3C//DTD SVG 1.1//EN" "http://www.w3.org/Graphics/SVG/1.1/DTD/svg11.dtd">
<svg version="1.1" id="Layer_1" xmlns="http://www.w3.org/2000/svg" xmlns:xlink="http://www.w3.org/1999/xlink" x="0px" y="0px"
	 width="220px" height="220px" viewBox="0 0 220 220" enable-background="new 0 0 220 220" xml:space="preserve">
<g transform="matrix( 1.123077392578125, 0, 0, 1.123077392578125, -169.85,-52.55) ">
	<g>
		<g id="Layer0_0_MEMBER_0_FILL">
			<path fill="#0099FF" d="M266.984,98.221l-11.834,6.865V91.393l11.91-6.979V72.504l-11.91,6.941v-8.914l-5.955,3.452l-5.955-3.452
				v8.914l-11.948-6.941v11.911l11.948,6.979v13.655l-11.873-6.828l-0.076-13.807l-10.317-5.918l0.076,13.769l-7.775-4.476
				l0.038,6.865l-5.993,3.49l7.738,4.438l-11.948,6.828l10.318,5.993l11.948-6.865l11.872,6.865l-11.872,6.865l-11.948-6.865
				l-10.318,5.993l11.948,6.789l-11.948,6.942v13.769l10.621-6.145c23.568-11.859,47.135-11.898,70.703-0.113l10.81,6.259v-13.769
				l-4.249-2.428l0.038-0.038l-7.737-4.438l11.948-6.827l-10.279-5.993l-11.987,6.865l-11.872-6.865l11.872-6.865l11.987,6.865
				l10.279-5.993l-11.948-6.828l7.737-4.438l-5.993-3.452l0.038-6.904l-7.738,4.476l0.037-13.769l-10.317,5.918L266.984,98.221z"/>
		</g>
	</g>
</g>
<g transform="matrix( 1.123077392578125, 0, 0, 1.123077392578125, -169.85,-52.55) ">
	<g>
		<g id="Layer0_0_MEMBER_1_MEMBER_0_MEMBER_0_FILL">
			<path fill="#0099FF" d="M255.074,156.331c-2.858,0-5.298,0.999-7.321,2.996c-2.049,2.049-3.073,4.463-3.073,7.245
				c0,2.807,1.024,5.209,3.073,7.207c2.023,1.998,4.462,2.996,7.321,2.996c2.857,0,5.31-0.998,7.359-2.996
				c2.023-1.997,3.034-4.4,3.034-7.207c0-2.857-1.011-5.273-3.034-7.245C260.408,157.33,257.956,156.331,255.074,156.331
				 M255.074,160.845c1.516-0.025,2.819,0.518,3.907,1.631c1.113,1.138,1.669,2.503,1.669,4.096c0,1.618-0.556,2.996-1.669,4.135
				c-1.037,1.088-2.339,1.631-3.907,1.631c-1.517,0-2.82-0.557-3.907-1.669c-1.088-1.163-1.631-2.529-1.631-4.097
				c0-1.593,0.543-2.958,1.631-4.096C252.254,161.363,253.556,160.819,255.074,160.845 M272.559,166.231l-2.807-9.901l-4.817,0.569
				l6.714,19.876h0.229l5.689-11.683l5.235,11.683h0.152l7.055-19.876l-4.703-0.569l-2.958,10.052l-4.855-10.052L272.559,166.231
				 M242.594,156.331l-4.817,0.417v10.545c-4.324-3.641-8.623-7.27-12.897-10.886v20.141l4.855-0.417v-10.545l12.858,11.341V156.331
				 M211.263,170.783l-2.921,3.717c1.896,1.517,4.147,2.276,6.752,2.276c2.301,0,4.134-0.569,5.5-1.706
				c1.366-1.189,2.061-2.782,2.086-4.78c-0.025-1.366-0.417-2.541-1.176-3.528c-0.759-0.961-1.871-1.681-3.338-2.162
				c-1.821-0.531-2.984-0.986-3.489-1.366c-0.481-0.379-0.708-0.809-0.683-1.29c0-0.43,0.215-0.783,0.645-1.062
				c0.354-0.278,0.873-0.417,1.555-0.417c0.683,0,1.34,0.163,1.973,0.492c0.607,0.33,1.062,0.658,1.365,0.986l2.656-3.337
				c-0.961-0.709-1.96-1.277-2.997-1.708c-1.062-0.378-2.136-0.569-3.224-0.569c-2.023,0-3.73,0.569-5.121,1.708
				c-1.391,1.188-2.086,2.604-2.086,4.248c0,1.593,0.392,2.806,1.176,3.642c0.708,0.859,1.947,1.605,3.717,2.237
				c1.214,0.354,2.136,0.683,2.769,0.987c0.759,0.48,1.138,0.999,1.138,1.555c-0.025,0.43-0.291,0.822-0.797,1.177
				c-0.48,0.303-1.075,0.455-1.783,0.455c-0.809,0-1.543-0.14-2.2-0.417C212.123,171.591,211.617,171.213,211.263,170.783z"/>
		</g>
	</g>
</g>
<g transform="matrix( 1.123077392578125, 0, 0, 1.123077392578125, -169.85,-52.55) ">
	<g>
		<g id="Layer0_0_MEMBER_1_MEMBER_0_MEMBER_1_FILL">
			<path fill="#0099FF" d="M290.5,179.848l-4.475,0.417v9.785c-4.022-3.388-8.016-6.763-11.987-10.127v18.738l4.514-0.417v-9.786
				l11.948,10.507V179.848 M270.929,180.341h-10.241v18.093h10.469l1.176-3.83h-7.131v-3.489h4.703v-3.831h-4.703v-3.11h6.524
				L270.929,180.341 M257.5,180.341H247.26v18.093h10.468l1.176-3.83h-7.131v-3.489h4.703v-3.831h-4.703v-3.11h6.524L257.5,180.341
				 M224.312,182.655c-1.872-1.871-4.147-2.807-6.828-2.807c-2.655,0-4.918,0.936-6.789,2.807c-1.897,1.87-2.845,4.109-2.845,6.714
				c0,2.604,0.948,4.842,2.845,6.714c1.871,1.846,4.135,2.769,6.789,2.769c1.796,0,3.363-0.379,4.704-1.137l2.048,2.048l3.982-1.631
				l-3.072-2.92c1.34-1.644,2.01-3.591,2.01-5.842C227.131,186.739,226.183,184.501,224.312,182.655 M222.643,189.369
				c0,1.112-0.24,2.049-0.721,2.807l-1.859-1.745l-3.452,1.745l2.389,2.351c-0.43,0.127-0.935,0.203-1.517,0.228
				c-1.416,0-2.63-0.531-3.641-1.593c-1.011-1.062-1.517-2.327-1.517-3.793c0-1.492,0.506-2.769,1.517-3.831
				c1.012-1.012,2.226-1.517,3.641-1.517c1.416,0,2.63,0.505,3.642,1.517C222.137,186.6,222.643,187.877,222.643,189.369
				 M234.059,179.848l-4.551,0.417v12.289c0,1.972,0.62,3.515,1.858,4.628c1.29,1.113,3.06,1.669,5.311,1.669
				c2.326,0,4.223-0.594,5.689-1.783c1.441-1.239,2.162-2.858,2.162-4.856v-12.365l-4.476,0.417v10.658
				c-0.025,2.554-1.087,3.831-3.186,3.831c-1.896,0-2.832-1.125-2.807-3.376V179.848z"/>
		</g>
	</g>
</g>
<g transform="matrix( 1.123077392578125, 0, 0, 1.123077392578125, -169.85,-52.55) ">
	<g>
		<g id="Layer0_0_MEMBER_1_MEMBER_0_MEMBER_2_FILL">
			<path fill="#0099FF" d="M216.384,205.451l-1.1-3.906h-11.721l-1.024,3.906h4.362v13.504l4.249-0.456v-13.048H216.384
				 M222.718,201.545h-5.462v17.41l4.21-0.456l0.076-7.51l5.007,8.08l4.324-1.328l-4.627-6.525c0.885-0.404,1.568-0.998,2.048-1.782
				c0.455-0.809,0.683-1.745,0.683-2.807c0-1.568-0.569-2.795-1.707-3.68C226.132,202.012,224.615,201.545,222.718,201.545
				 M222.112,209.928h-0.645v-4.78h0.835c1.643,0,2.465,0.783,2.465,2.352c0,0.784-0.265,1.403-0.797,1.858
				C223.464,209.738,222.845,209.928,222.112,209.928 M246.842,216.49c1.821-1.77,2.731-3.908,2.731-6.41
				c0-2.454-0.885-4.565-2.655-6.335c-1.821-1.745-3.97-2.618-6.449-2.618c-2.503,0-4.666,0.873-6.486,2.618
				c-1.77,1.77-2.655,3.881-2.655,6.335c0,2.503,0.885,4.64,2.655,6.41c1.821,1.719,3.983,2.579,6.486,2.579
				C242.948,219.069,245.072,218.209,246.842,216.49 M237.018,213.721c-0.936-1.012-1.403-2.225-1.403-3.641
				c0-1.366,0.468-2.568,1.403-3.604c0.91-0.986,2.061-1.479,3.452-1.479c1.315,0,2.466,0.518,3.452,1.556
				c0.91,0.986,1.378,2.162,1.403,3.528c-0.025,1.416-0.493,2.629-1.403,3.641c-0.986,1.011-2.136,1.517-3.452,1.517
				C239.079,215.238,237.929,214.732,237.018,213.721 M256.211,201.545h-4.703v17.41l4.249-0.456v-5.993h1.555
				c1.822,0,3.338-0.506,4.552-1.517c1.188-1.088,1.783-2.389,1.783-3.907c0-1.922-0.607-3.325-1.821-4.21
				C260.535,201.987,258.665,201.545,256.211,201.545 M259.359,207.083c0,0.531-0.203,0.974-0.607,1.328
				c-0.43,0.278-1.011,0.417-1.745,0.417h-1.251v-3.68h1.251C258.576,205.148,259.359,205.793,259.359,207.083 M279.463,201.127
				l-4.21,0.38v6.258h-5.501v-6.638l-4.286,0.38v17.448l4.286-0.456v-6.789h5.501v7.245l4.21-0.456V201.127 M295.812,202.455
				l-4.059-1.328l-2.807,6.98l-4.324-6.98l-3.983,1.593l6.258,9.901l-2.807,6.335l4.286-0.456L295.812,202.455z"/>
		</g>
	</g>
</g>
</svg>
