<?xml version="1.0" encoding="utf-8"?>
<!-- Generator: Adobe Illustrator 16.0.0, SVG Export Plug-In . SVG Version: 6.00 Build 0)  -->
<!DOCTYPE svg PUBLIC "-//W3C//DTD SVG 1.1//EN" "http://www.w3.org/Graphics/SVG/1.1/DTD/svg11.dtd">
<svg version="1.1" id="Layer_1" xmlns="http://www.w3.org/2000/svg" xmlns:xlink="http://www.w3.org/1999/xlink" x="0px" y="0px"
	 width="1024px" height="768px" viewBox="0 0 1024 768" enable-background="new 0 0 1024 768" xml:space="preserve">
<g>
	<path id="a" fill="#2B3333" d="M162.2,462.3c0-1.1-0.4-2.1-1.2-2.8c-0.8-0.8-1.7-1.2-2.8-1.2h-34.3c-1.1,0-2.1,0.4-2.8,1.2
		c-0.8,0.8-1.2,1.7-1.2,2.8c0,1.101,0.4,2,1.2,2.8c0.8,0.801,1.7,1.2,2.8,1.2h34.3c1.1,0,2-0.399,2.8-1.2
		C161.8,464.4,162.2,463.4,162.2,462.3 M154.2,290.1L154.2,290.1c-1.5-5-4.9-9.5-10.2-13.6c-7.2-5.6-16.4-8.4-27.6-8.4
		c-16.1,0-29,5.7-38.9,17.1c-8.8,10.2-13.2,22.5-13.2,36.7c0,12.6,4.4,24.399,13.3,35.5l0,0c5.7,7.1,15.4,15.8,29.2,26.3l0,0
		c16.1,12.2,24.2,18.399,24.4,18.5l0,0c8.8,7,16,13.7,21.4,19.899c13.9,16,20.8,34.801,20.8,56.2c0,11-2,21-6.2,30.2l0,0
		c-4,8.9-9.7,16.6-17.2,23.1c-15.6,13.5-35.9,20.301-60.8,20.301l0,0C67.3,552,50,546.4,37.3,535c-11.9-10.6-17.7-24.5-17.5-41.5
		c0.1-15.9,5.3-29,15.4-39.3C39.8,449.6,45,446.1,50.9,443.6l0,0c5.9-2.5,12-3.699,18.3-3.699c10.7,0,19.3,2.6,25.8,7.8
		c5.7,4.7,8.6,10.6,8.6,17.7l0,0c0,5.899-1.6,10.8-4.8,14.6c-3.1,3.7-7.2,5.6-12.4,5.5c-4,0-7.4-1.1-10-3.2
		c-2.1-1.7-3.2-3.899-3.2-6.3c0-3.1,0.9-5.4,2.7-7l0,0c2.6-1.8,6.7-2.7,12.3-2.7c1.1,0,2.1-0.399,2.8-1.2c0.8-0.8,1.2-1.699,1.2-2.8
		c0-1.1-0.4-2-1.2-2.8s-1.7-1.2-2.8-1.2c-8,0-13.8,1.5-17.3,4.5c-3.8,2.9-5.8,7.3-5.8,13.3c0,4.9,2,9.101,6.1,12.5l0,0
		c3.9,3.4,9,5.101,15.2,5.101c7.7,0,13.8-2.8,18.5-8.4c4.4-5.1,6.6-11.7,6.7-19.7c0-9.6-3.8-17.6-11.6-23.899
		c-7.8-6.4-18-9.7-30.9-9.601c-7.4,0-14.6,1.5-21.5,4.4s-13,7-18.3,12.4c-11.6,11.699-17.5,26.6-17.7,44.8
		c-0.2,19.5,6.5,35.3,20.1,47.5c14,12.7,33.1,19.1,57.2,19c27.1,0,49.2-7.5,66.1-22.3c8.4-7.301,14.8-15.9,19.3-25.9
		c4.6-10.2,6.9-21.4,6.9-33.5c0-23.5-7.6-44-22.7-61.5c-5.7-6.5-13.2-13.5-22.4-20.9h0.1c-0.2-0.1-8.4-6.399-24.7-18.699
		c-13.1-9.9-22.3-18.2-27.8-24.9c-7.7-9.5-11.5-19.6-11.6-30.4c0-12.199,3.7-22.7,11.3-31.5c8.3-9.6,19.2-14.3,32.8-14.3
		c9.2,0,16.7,2.2,22.7,6.7c3.8,2.9,6.3,6.2,7.4,9.7l0,0c3.7,12.5-2.6,33.5-18.8,63.1c-0.5,1-0.6,2-0.3,3c0.3,1.101,1,1.8,1.9,2.4
		c1,0.5,2,0.7,3,0.399c1.1-0.3,1.8-1,2.4-1.899C152.5,327.2,159,304,154.2,290.1 M204.5,277.8h15v46.5h-28.1c-1.1,0-2.1,0.4-2.8,1.2
		c-0.8,0.8-1.2,1.7-1.2,2.8c0,1.101,0.4,2,1.2,2.8c0.8,0.801,1.7,1.2,2.8,1.2h28.1v104.2c0,1.1,0.4,2,1.2,2.8
		c0.8,0.8,1.7,1.2,2.8,1.2s2-0.4,2.8-1.2c0.8-0.8,1.2-1.7,1.2-2.8V277.8h25.3v158.8c0,1.101,0.4,2,1.2,2.801
		c0.8,0.8,1.7,1.199,2.8,1.199c1.1,0,2-0.399,2.8-1.199c0.8-0.801,1.2-1.7,1.2-2.801V283.5l51.3,51.3v101.8c0,1.101,0.4,2,1.2,2.801
		c0.8,0.8,1.7,1.199,2.8,1.199s2-0.399,2.8-1.199c0.8-0.801,1.2-1.7,1.2-2.801V277.8h27.7c8.5,0.1,17.1,3.6,25.6,10.7
		c8.1,6.7,15.6,15.9,22.5,27.5c6.5,10.9,11.7,22.6,15.6,35.1c3.8,12.301,5.8,23.301,5.8,33c0,15.801-4.8,28.2-14.5,37.101
		c-8.4,7.6-18.6,11.399-30.6,11.399h-20.5V294.3c0-1.1-0.4-2.1-1.2-2.8c-0.8-0.8-1.7-1.2-2.8-1.2c-1.1,0-2.1,0.4-2.8,1.2
		c-0.8,0.8-1.2,1.7-1.2,2.8v138.3h-6.4c-1.1,0-2.1,0.4-2.8,1.2c-0.8,0.8-1.2,1.7-1.2,2.8c0,1.101,0.4,2,1.2,2.801
		c0.8,0.8,1.7,1.199,2.8,1.199h34.9c14.1,0,26.1-4.5,36-13.5c11.399-10.3,17.2-24.6,17.1-43c0-10.5-2-22.3-6.1-35.399
		c-4.101-13.101-9.5-25.4-16.4-36.9c-7.4-12.5-15.6-22.4-24.3-29.6c-10.2-8.4-20.4-12.6-30.7-12.5h-42.1c-1.1,0-2.1,0.4-2.8,1.2
		c-0.8,0.8-1.2,1.7-1.2,2.8c0,1.1,0.4,2,1.2,2.8c0.8,0.8,1.7,1.2,2.8,1.2h6.4v45.7L259.6,271c-0.8-0.8-1.7-1.2-2.8-1.2h-71
		c-1.1,0-2.1,0.4-2.8,1.2c-0.8,0.8-1.2,1.7-1.2,2.8c0,1.1,0.4,2,1.2,2.8c0.8,0.8,1.7,1.2,2.8,1.2h9.9l-43.5,99.5c-0.4,1-0.4,2,0,3
		c0.4,1,1.1,1.8,2.1,2.2c1,0.5,2,0.5,3,0.1c1-0.399,1.8-1.1,2.2-2.1L204.5,277.8 M836.5,459.5c-0.8-0.8-1.7-1.2-2.8-1.2H194.8
		c-1.1,0-2.1,0.4-2.8,1.2c-0.8,0.8-1.2,1.7-1.2,2.8c0,1.101,0.4,2,1.2,2.8c0.8,0.801,1.7,1.2,2.8,1.2h638.9c1.1,0,2-0.399,2.8-1.2
		c0.8-0.8,1.2-1.699,1.2-2.8C837.7,461.3,837.3,460.3,836.5,459.5 M879.9,277.8h6.399c1.101,0,2-0.4,2.8-1.2
		c0.801-0.8,1.2-1.7,1.2-2.8c0-1.1-0.399-2.1-1.2-2.8c-0.8-0.8-1.699-1.2-2.8-1.2H865.4c-1.101,0-2.101,0.4-2.801,1.2
		c-0.8,0.8-1.199,1.7-1.199,2.8c0,1.1,0.399,2,1.199,2.8c0.801,0.8,1.7,1.2,2.801,1.2h6.399v45.7L819.3,271
		c-0.8-0.8-1.7-1.2-2.8-1.2h-10.4c-1.1,0-2.1,0.4-2.8,1.2c-0.8,0.8-1.2,1.7-1.2,2.8c0,1.1,0.4,2,1.2,2.8c0.8,0.8,1.7,1.2,2.8,1.2
		h6.4v158.8c0,1.101,0.4,2,1.2,2.801c0.8,0.8,1.7,1.199,2.8,1.199s2-0.399,2.8-1.199c0.8-0.801,1.2-1.7,1.2-2.801V283.5l51.3,51.3
		v79.8c0,1.101,0.4,2,1.2,2.801c0.8,0.8,1.7,1.199,2.8,1.199c1.101,0,2-0.399,2.8-1.199c0.801-0.801,1.2-1.7,1.2-2.801V277.8
		 M607.1,291.4c-0.8,0.8-1.199,1.7-1.199,2.8v138.3h-6.4c-1.1,0-2.1,0.4-2.8,1.2c-0.8,0.8-1.2,1.7-1.2,2.8s0.4,2,1.2,2.8
		s1.7,1.2,2.8,1.2h20.9c1.1,0,2-0.4,2.8-1.2s1.2-1.7,1.2-2.8s-0.4-2.1-1.2-2.8c-0.8-0.8-1.7-1.2-2.8-1.2H614V294.3
		c0-1.1-0.4-2.1-1.2-2.8c-0.8-0.8-1.7-1.2-2.8-1.2C608.8,290.3,607.9,290.6,607.1,291.4 M723.8,302.2
		c-3.7,9.3-6.7,19.6-8.899,30.899c-2.2,11.601-3.4,23.2-3.5,34.601c-0.2,20.1,2.699,36.5,8.699,48.899
		c7.601,16.101,19.301,24,34.9,23.9c15.1,0.1,26.6-7.8,34.5-23.9c6.4-12.899,9.5-29.199,9.3-49c-0.1-11.5-1.3-23-3.5-34.6
		c-2.2-11.4-5.2-21.7-8.899-31c-4-9.7-8.4-17.3-13.301-22.7l0,0c-5.8-6.6-11.8-9.8-17.899-9.6c-6.2-0.2-12.2,3-18.101,9.6
		C732.2,284.9,727.8,292.5,723.8,302.2 M722.8,334.6c2.101-10.8,4.9-20.6,8.4-29.399c3.6-8.7,7.5-15.6,11.8-20.5
		c4-4.5,8-6.8,12.1-6.9l0,0c4,0.2,8,2.5,12,6.9c4.4,4.9,8.301,11.8,11.9,20.5l0,0c3.6,8.8,6.4,18.7,8.5,29.5
		c2.1,11.1,3.3,22.1,3.4,33.1c0.199,18.3-2.7,33.4-8.5,45.4C776.1,426,767,432.5,755.1,432.6c-12.3-0.1-21.5-6.6-27.6-19.399
		c-5.4-11.601-8.1-26.7-7.9-45.4C719.6,356.8,720.7,345.8,722.8,334.6 M702.2,273.8c0-1.1-0.4-2.1-1.2-2.8c-0.8-0.8-1.7-1.2-2.8-1.2
		c-1.101,0-2.101,0.4-2.8,1.2c-0.801,0.8-1.2,1.7-1.2,2.8v2.3c-0.9-0.8-1.9-1.5-2.8-2.1c-4.301-2.9-8.801-4.3-13.7-4.3
		c-5.8-0.2-11.9,3.2-18.101,10.1l0,0c-5.1,5.8-9.899,13.7-14.399,23.7l0,0c-4.3,9.8-7.7,20.5-10.3,32c-2.7,12.1-4.101,23.9-4.2,35.2
		c-0.2,18.899,3,34.7,9.6,47.399c7.7,15,18.2,22.4,31.5,22.301c7.601,0,14.4-1.7,20.5-5.101l0,0c5.5-3,10.2-7.2,14.101-12.7
		c0.699-0.899,0.899-1.899,0.699-3c-0.199-1.1-0.699-1.899-1.6-2.6c-0.9-0.6-1.9-0.9-3-0.7s-1.9,0.7-2.6,1.601
		c-3.101,4.399-6.9,7.8-11.4,10.3c-5,2.7-10.5,4.1-16.7,4.1c-10.2-0.2-18.3-6.1-24.399-17.899c-6-11.7-8.9-26.301-8.7-43.7
		c0.1-10.8,1.399-22,4-33.601c2.5-10.899,5.7-21.1,9.8-30.5c4.1-9.1,8.4-16.399,13-21.7l0,0c4.3-4.8,8.3-7.2,12.1-7.5
		c3.301,0,6.301,1,9.2,2.9c2.3,1.6,4.7,3.9,7.3,6.9V327.1c0,1.101,0.4,2,1.2,2.801c0.8,0.8,1.7,1.199,2.8,1.199
		c1.101,0,2-0.399,2.801-1.199c0.8-0.801,1.199-1.7,1.199-2.801v-40.6c0-0.2,0-0.4,0-0.6L702.2,273.8 M621.6,210
		c-1,0.4-1.699,1.1-2.199,2.1L526,425.8L511.3,392l27.101-62c0.5-1,0.5-2,0.1-3.1c-0.4-1-1.1-1.7-2.1-2.2c-1-0.4-2-0.4-3.101,0
		c-1,0.399-1.7,1.1-2.2,2.1L507,382l-24.1-55.2c-0.4-1-1.2-1.7-2.2-2.1c-1-0.4-2-0.4-3,0c-1,0.5-1.7,1.2-2.101,2.2
		c-0.399,1-0.399,2.1,0,3.1l27.101,62l-14.8,33.9L394.3,212.1c-0.4-1-1.2-1.7-2.2-2.1s-2-0.4-3,0c-1,0.5-1.7,1.2-2.1,2.2
		s-0.4,2.1,0,3.1L484,437.4c0.4,1,1.2,1.699,2.2,2.1s2,0.4,3,0s1.7-1.1,2.2-2.1l15.5-35.5l15.5,35.5c0.399,1,1.199,1.699,2.199,2.1
		s2,0.4,3,0s1.7-1.1,2.2-2.1L626.9,215.3c0.5-1,0.5-2,0.1-3.1c-0.4-1-1.1-1.7-2.1-2.2C623.7,209.6,622.7,209.5,621.6,210
		 M1004.9,511.8c4.6-10.2,6.899-21.399,6.899-33.5c0-23.5-7.6-44-22.7-61.5C983.4,410.3,975.9,403.3,966.7,395.9h0.1
		c-0.2-0.101-8.399-6.4-24.7-18.7c-13.1-9.9-22.3-18.2-27.8-24.9c-7.7-9.5-11.5-19.6-11.6-30.399c0-12.601,3.399-23.101,10.3-31.601
		c8-9.5,19.2-14.3,33.7-14.2c5.7,0,11.2,0.9,16.6,2.6c3.2,1,5.7,2.1,7.7,3.2V327c0,1.1,0.4,2,1.2,2.8s1.7,1.2,2.8,1.2s2-0.4,2.8-1.2
		s1.2-1.7,1.2-2.8v-47c0-0.1,0-0.3,0-0.4V272c0-1.1-0.4-2.1-1.2-2.8c-0.8-0.8-1.7-1.2-2.8-1.2s-2.1,0.4-2.8,1.2
		c-0.8,0.8-1.2,1.7-1.2,2.8v1c-1.5-0.7-3.3-1.3-5.2-1.9l0,0c-6.2-2-12.6-3-19.1-3c-17.2,0-30.5,5.7-39.9,17.2
		c-8.1,9.8-12.2,22-12.2,36.7c0,12.6,4.4,24.4,13.301,35.5l0,0c5.699,7.1,15.399,15.8,29.199,26.3l0,0
		c16.101,12.2,24.2,18.4,24.4,18.5l0,0c8.8,7,16,13.7,21.4,19.9c13.899,16,20.8,34.8,20.8,56.2c0,11-2,21-6.2,30.199l0,0
		c-4,8.9-9.7,16.601-17.2,23.101C964.7,545.2,944.4,552,919.5,552l0,0c-21.8,0.1-39.1-5.6-51.8-16.9c-11.9-10.6-17.7-24.5-17.5-41.5
		c0.1-15.699,4.899-28.8,14.2-39.5c4-4.5,8.5-8.1,13.5-10.6l0,0c4.8-2.4,9.5-3.6,14.199-3.6c3.801,0,7.2,1.1,10.2,3.199
		c2.4,1.7,3.7,3.5,3.9,5.5l0,0c0.1,3.101-1,5.5-3.3,7c-3,1.9-7.5,2.801-13.4,2.7h-16.9c-1.1,0-2.1,0.4-2.8,1.2
		c-0.8,0.8-1.2,1.7-1.2,2.8c0,1.101,0.4,2,1.2,2.8c0.8,0.801,1.7,1.2,2.8,1.2H889.4c7.899,0.101,13.8-1.3,17.8-4
		c4.8-3.1,7.1-7.7,6.899-14c0.101-4.399-2.399-8.3-7.199-11.8l0,0c-4.4-3.1-9.301-4.7-14.9-4.7c-5.9,0-11.8,1.5-17.8,4.4
		c-5.9,3-11.2,7.1-15.9,12.5c-10.6,12-16,26.899-16.2,44.7c-0.199,19.5,6.5,35.3,20.101,47.5c14,12.699,33.1,19.1,57.2,19
		c27.1,0,49.199-7.5,66.1-22.301C994,530.4,1000.4,521.8,1004.9,511.8L1004.9,511.8z"/>
</g>
</svg>
